<svg width="172" height="115" viewBox="0 0 172 115" fill="none" xmlns="http://www.w3.org/2000/svg">
<path d="M126.658 71.9581C126.658 70.1837 127.152 68.8023 128.139 67.8138C129.126 66.8253 130.5 66.331 132.262 66.331C134.069 66.331 135.46 66.8178 136.438 67.7915C137.415 68.7603 137.903 70.1195 137.903 71.8692C137.903 73.1394 137.689 74.1823 137.259 74.9978C136.835 75.8084 136.218 76.441 135.409 76.8958C134.604 77.3455 133.6 77.5704 132.396 77.5704C131.172 77.5704 130.157 77.3752 129.353 76.9847C128.553 76.5943 127.904 75.9764 127.406 75.1313C126.908 74.2861 126.658 73.2284 126.658 71.9581ZM130.012 71.973C130.012 73.0702 130.214 73.8585 130.619 74.338C131.029 74.8174 131.584 75.0571 132.285 75.0571C133.005 75.0571 133.563 74.8224 133.958 74.3528C134.352 73.8833 134.55 73.0406 134.55 71.8247C134.55 70.8016 134.343 70.0552 133.928 69.5857C133.518 69.1112 132.961 68.874 132.255 68.874C131.579 68.874 131.036 69.1137 130.626 69.5931C130.217 70.0725 130.012 70.8658 130.012 71.973Z" fill="#FA9100"/>
<path d="M112.229 105.676C112.229 103.902 112.722 102.521 113.709 101.532C114.697 100.544 116.071 100.049 117.833 100.049C119.639 100.049 121.031 100.536 122.008 101.51C122.985 102.479 123.474 103.838 123.474 105.587C123.474 106.858 123.259 107.901 122.83 108.716C122.405 109.527 121.789 110.159 120.979 110.614C120.175 111.064 119.17 111.289 117.966 111.289C116.742 111.289 115.728 111.093 114.924 110.703C114.124 110.313 113.475 109.695 112.977 108.85C112.478 108.004 112.229 106.947 112.229 105.676ZM115.582 105.691C115.582 106.788 115.785 107.577 116.189 108.056C116.599 108.536 117.154 108.775 117.855 108.775C118.576 108.775 119.133 108.541 119.528 108.071C119.923 107.602 120.12 106.759 120.12 105.543C120.12 104.52 119.913 103.774 119.499 103.304C119.089 102.829 118.531 102.592 117.826 102.592C117.149 102.592 116.606 102.832 116.197 103.311C115.787 103.791 115.582 104.584 115.582 105.691Z" fill="#FA9100"/>
<path d="M72.1471 6.12713C72.1471 4.35274 72.6406 2.97129 73.6277 1.98278C74.6147 0.994258 75.9892 0.5 77.7511 0.5C79.5575 0.5 80.9492 0.986845 81.9264 1.96053C82.9036 2.92928 83.3922 4.28849 83.3922 6.03817C83.3922 7.30841 83.1775 8.35129 82.7481 9.16682C82.3237 9.9774 81.7068 10.6101 80.8974 11.0648C80.0929 11.5145 79.0886 11.7394 77.8844 11.7394C76.6604 11.7394 75.6462 11.5442 74.8418 11.1537C74.0423 10.7633 73.3933 10.1455 72.8948 9.30027C72.3963 8.45509 72.1471 7.39738 72.1471 6.12713ZM75.5006 6.14196C75.5006 7.23921 75.703 8.02755 76.1077 8.50699C76.5173 8.98642 77.0725 9.22613 77.7733 9.22613C78.4939 9.22613 79.0516 8.99136 79.4464 8.52181C79.8412 8.05227 80.0386 7.20956 80.0386 5.99368C80.0386 4.97057 79.8314 4.22424 79.4168 3.75469C79.0072 3.2802 78.4495 3.04296 77.7437 3.04296C77.0676 3.04296 76.5247 3.28267 76.1151 3.76211C75.7055 4.24154 75.5006 5.03482 75.5006 6.14196Z" fill="#FA9100"/>
<path d="M72.1471 88.8099H75.3853L79.6112 95.0276V88.8099H82.88V100.049H79.6112L75.4083 93.8776V100.049H72.1471V88.8099Z" fill="#FA9100"/>
<path d="M97.7994 44.6549H100.944L105.047 50.8726V44.6549H108.221V55.8943H105.047L100.966 49.7226V55.8943H97.7994V44.6549Z" fill="#FA9100"/>
<path d="M98.6011 81.8175L101.792 81.6173C101.861 82.1363 102.002 82.5317 102.214 82.8035C102.559 83.2434 103.053 83.4634 103.694 83.4634C104.173 83.4634 104.541 83.3522 104.797 83.1297C105.059 82.9024 105.19 82.6404 105.19 82.3439C105.19 82.0621 105.066 81.8101 104.82 81.5877C104.573 81.3652 104 81.1552 103.102 80.9575C101.631 80.6263 100.583 80.1864 99.9558 79.6378C99.3241 79.0892 99.0082 78.3898 99.0082 77.5397C99.0082 76.9812 99.1686 76.4548 99.4894 75.9605C99.8152 75.4613 100.301 75.0709 100.948 74.7891C101.599 74.5025 102.49 74.3591 103.62 74.3591C105.007 74.3591 106.063 74.6186 106.789 75.1376C107.519 75.6516 107.953 76.4721 108.092 77.599L104.931 77.7843C104.847 77.295 104.669 76.9392 104.398 76.7167C104.131 76.4943 103.761 76.3831 103.287 76.3831C102.897 76.3831 102.604 76.4671 102.406 76.6352C102.209 76.7983 102.11 76.9985 102.11 77.2357C102.11 77.4087 102.192 77.5644 102.354 77.7028C102.512 77.8461 102.887 77.9796 103.48 78.1031C104.945 78.4195 105.994 78.7407 106.626 79.0669C107.263 79.3882 107.724 79.7886 108.01 80.268C108.301 80.7474 108.447 81.2837 108.447 81.8768C108.447 82.5737 108.255 83.2162 107.87 83.8044C107.485 84.3926 106.947 84.8399 106.256 85.1463C105.565 85.4478 104.694 85.5986 103.642 85.5986C101.797 85.5986 100.518 85.2427 99.8078 84.531C99.0971 83.8192 98.6948 82.9147 98.6011 81.8175Z" fill="#FA9100"/>
<path d="M72.1471 103.261H75.615V107.194H79.4045V103.261H82.8877V114.5H79.4045V109.954H75.615V114.5H72.1471V103.261Z" fill="#FA9100"/>
<path d="M155.628 51.2286L157.836 51.897C157.688 52.5171 157.454 53.035 157.136 53.4509C156.817 53.8668 156.42 54.1805 155.945 54.3922C155.475 54.6038 154.874 54.7096 154.143 54.7096C153.257 54.7096 152.533 54.5815 151.969 54.3253C151.409 54.0654 150.925 53.6106 150.517 52.9608C150.11 52.311 149.906 51.4793 149.906 50.4656C149.906 49.114 150.263 48.0762 150.979 47.3522C151.698 46.6244 152.714 46.2606 154.027 46.2606C155.054 46.2606 155.86 46.4685 156.446 46.8844C157.035 47.3002 157.473 47.9389 157.758 48.8003L155.534 49.296C155.456 49.0472 155.374 48.8653 155.289 48.7502C155.148 48.5571 154.976 48.4086 154.772 48.3046C154.568 48.2006 154.34 48.1487 154.088 48.1487C153.517 48.1487 153.079 48.3789 152.775 48.8393C152.546 49.1809 152.431 49.7174 152.431 50.4489C152.431 51.3549 152.568 51.9768 152.842 52.3147C153.116 52.6489 153.502 52.816 153.999 52.816C154.481 52.816 154.844 52.6804 155.089 52.4094C155.337 52.1383 155.517 51.7448 155.628 51.2286Z" fill="#FA9100"/>
<path d="M159.076 46.3998H161.596V49.257H164.349V46.3998H166.879V54.5648H164.349V51.2621H161.596V54.5648H159.076V46.3998Z" fill="#FA9100"/>
<path d="M169.317 53.9343L168.032 53.7038C168.139 53.2938 168.344 52.9797 168.646 52.7614C168.951 52.5431 169.382 52.4339 169.938 52.4339C170.576 52.4339 171.038 52.5531 171.323 52.7915C171.607 53.0298 171.75 53.3295 171.75 53.6904C171.75 53.902 171.692 54.0936 171.576 54.2652C171.461 54.4367 171.286 54.5871 171.052 54.7163C171.241 54.7631 171.386 54.8177 171.486 54.8801C171.649 54.9803 171.774 55.1129 171.863 55.2777C171.954 55.4404 172 55.6353 172 55.8625C172 56.1477 171.925 56.4217 171.776 56.6846C171.627 56.9453 171.413 57.1469 171.132 57.2895C170.852 57.4298 170.484 57.5 170.028 57.5C169.583 57.5 169.232 57.4476 168.973 57.3429C168.718 57.2382 168.506 57.0856 168.339 56.8851C168.175 56.6824 168.048 56.4284 167.959 56.1232L169.317 55.9427C169.371 56.2168 169.453 56.4072 169.564 56.5142C169.678 56.6189 169.821 56.6712 169.995 56.6712C170.177 56.6712 170.328 56.6044 170.448 56.4707C170.571 56.3371 170.632 56.1588 170.632 55.9361C170.632 55.7088 170.573 55.5328 170.455 55.4081C170.339 55.2833 170.181 55.2209 169.981 55.2209C169.874 55.2209 169.728 55.2477 169.541 55.3011L169.611 54.3287C169.686 54.3398 169.745 54.3454 169.788 54.3454C169.966 54.3454 170.114 54.2886 170.231 54.1749C170.352 54.0613 170.412 53.9265 170.412 53.7706C170.412 53.6213 170.367 53.5021 170.278 53.413C170.189 53.3239 170.067 53.2794 169.911 53.2794C169.751 53.2794 169.621 53.3284 169.521 53.4264C169.421 53.5222 169.353 53.6915 169.317 53.9343Z" fill="#FA9100"/>
<path d="M126.77 5.46808L128.977 6.13643C128.829 6.75651 128.596 7.27448 128.277 7.69034C127.958 8.10621 127.561 8.41996 127.087 8.6316C126.616 8.84325 126.015 8.94907 125.285 8.94907C124.399 8.94907 123.674 8.82097 123.11 8.56477C122.55 8.30485 122.066 7.85 121.659 7.20022C121.251 6.55043 121.047 5.71871 121.047 4.70504C121.047 3.35349 121.405 2.31569 122.12 1.59164C122.839 0.86388 123.855 0.5 125.168 0.5C126.195 0.5 127.001 0.707931 127.587 1.12379C128.177 1.53966 128.614 2.1783 128.9 3.03973L126.675 3.53543C126.597 3.28665 126.516 3.10471 126.43 2.98961C126.289 2.79653 126.117 2.64801 125.913 2.54404C125.709 2.44007 125.481 2.38809 125.229 2.38809C124.658 2.38809 124.221 2.6183 123.917 3.07872C123.687 3.42032 123.572 3.95686 123.572 4.68833C123.572 5.59432 123.709 6.21626 123.983 6.55415C124.258 6.88832 124.643 7.05541 125.14 7.05541C125.622 7.05541 125.985 6.91988 126.23 6.64883C126.478 6.37778 126.658 5.98419 126.77 5.46808Z" fill="#FA9100"/>
<path d="M130.218 0.63924H132.737V3.49644H135.49V0.63924H138.02V8.80426H135.49V5.50149H132.737V8.80426H130.218V0.63924Z" fill="#FA9100"/>
<path d="M140.458 8.17378L139.174 7.9432C139.28 7.53328 139.485 7.21916 139.788 7.00083C140.092 6.7825 140.523 6.67334 141.079 6.67334C141.717 6.67334 142.179 6.79252 142.464 7.0309C142.749 7.26928 142.891 7.56893 142.891 7.92984C142.891 8.14148 142.833 8.33307 142.717 8.50462C142.602 8.67616 142.427 8.82654 142.194 8.95575C142.383 9.00254 142.527 9.05712 142.627 9.1195C142.79 9.21975 142.915 9.35231 143.004 9.51717C143.096 9.6798 143.141 9.87474 143.141 10.102C143.141 10.3871 143.067 10.6612 142.918 10.924C142.769 11.1847 142.554 11.3863 142.274 11.5289C141.993 11.6693 141.625 11.7394 141.169 11.7394C140.724 11.7394 140.373 11.6871 140.115 11.5824C139.859 11.4777 139.648 11.3251 139.481 11.1246C139.316 10.9218 139.189 10.6678 139.1 10.3626L140.458 10.1822C140.512 10.4562 140.594 10.6467 140.705 10.7536C140.819 10.8583 140.962 10.9107 141.136 10.9107C141.318 10.9107 141.469 10.8438 141.59 10.7102C141.712 10.5765 141.773 10.3983 141.773 10.1755C141.773 9.94826 141.714 9.77226 141.596 9.6475C141.481 9.52274 141.323 9.46036 141.122 9.46036C141.016 9.46036 140.869 9.48709 140.682 9.54056L140.752 8.56811C140.828 8.57925 140.887 8.58482 140.929 8.58482C141.107 8.58482 141.255 8.52801 141.373 8.41439C141.493 8.30077 141.553 8.16599 141.553 8.01004C141.553 7.86077 141.508 7.74158 141.419 7.65247C141.33 7.56336 141.208 7.5188 141.052 7.5188C140.892 7.5188 140.762 7.56781 140.662 7.66584C140.562 7.76163 140.494 7.93095 140.458 8.17378Z" fill="#FA9100"/>
<path fill-rule="evenodd" clip-rule="evenodd" d="M27.1826 34.4334C26.6866 34.1466 26.0754 34.1466 25.5793 34.4334L0.801635 48.7599C0.305582 49.0468 0 49.5768 0 50.1505V78.8035C0 79.3771 0.305582 79.9072 0.801635 80.194L25.5793 94.5205C26.0754 94.8073 26.6866 94.8073 27.1826 94.5205L51.9603 80.194C52.4564 79.9072 52.7619 79.3771 52.7619 78.8035V50.1505C52.7619 49.5768 52.4564 49.0468 51.9603 48.7599L27.1826 34.4334ZM27.1826 37.6453C26.6865 37.3585 26.0754 37.3585 25.5793 37.6453L3.57855 50.3662C3.0825 50.653 2.77692 51.1831 2.77692 51.7567V77.1985C2.77692 77.7721 3.0825 78.3022 3.57855 78.589L25.5793 91.3099C26.0754 91.5967 26.6865 91.5967 27.1826 91.3099L49.1833 78.589C49.6794 78.3022 49.985 77.7721 49.985 77.1985V51.7567C49.985 51.1831 49.6794 50.653 49.1833 50.3662L27.1826 37.6453Z" fill="#79C800"/>
<path d="M4.80981 54.088C4.80981 53.3121 5.43789 52.6831 6.21267 52.6831C6.98745 52.6831 7.61553 53.3121 7.61553 54.088V75.3627C7.61553 76.1386 6.98745 76.7676 6.21267 76.7676C5.43789 76.7676 4.80981 76.1386 4.80981 75.3627V54.088Z" fill="#79C800"/>
<path d="M72.9488 15.5528C72.9488 14.7769 73.5769 14.1479 74.3516 14.1479C75.1264 14.1479 75.7545 14.7769 75.7545 15.5528V35.2218C75.7545 35.9978 75.1264 36.6268 74.3516 36.6268C73.5769 36.6268 72.9488 35.9978 72.9488 35.2218V15.5528Z" fill="#79C800"/>
<path d="M78.5602 15.5528C78.5602 14.7769 79.1883 14.1479 79.9631 14.1479C80.7378 14.1479 81.3659 14.7769 81.3659 15.5528V35.2218C81.3659 35.9978 80.7378 36.6268 79.9631 36.6268C79.1883 36.6268 78.5602 35.9978 78.5602 35.2218V15.5528Z" fill="#79C800"/>
<path d="M127.46 15.5528C127.46 14.7769 128.088 14.1479 128.863 14.1479C129.638 14.1479 130.266 14.7769 130.266 15.5528V35.2218C130.266 35.9978 129.638 36.6268 128.863 36.6268C128.088 36.6268 127.46 35.9978 127.46 35.2218V15.5528Z" fill="#79C800"/>
<path d="M45.2644 75.8644C45.9354 75.4765 46.7934 75.7067 47.1808 76.3787C47.5682 77.0506 47.3383 77.9099 46.6673 78.2978L28.27 88.9352C27.5991 89.3231 26.7411 89.0929 26.3537 88.4209C25.9663 87.749 26.1962 86.8897 26.8672 86.5018L45.2644 75.8644Z" fill="#79C800"/>
<path d="M26.8672 42.974C26.1962 42.5861 25.9664 41.7268 26.3537 41.0549C26.7411 40.3829 27.5991 40.1527 28.2701 40.5406L46.6673 51.1779C47.3383 51.5659 47.5682 52.4251 47.1808 53.0971C46.7934 53.7691 45.9355 53.9993 45.2645 53.6114L26.8672 42.974Z" fill="#79C800"/>
<path d="M77.7575 36.9576C78.4284 36.5696 78.6583 35.7104 78.271 35.0384C77.8836 34.3665 77.0256 34.1362 76.3546 34.5242L51.7178 48.7692C51.0468 49.1572 50.8169 50.0164 51.2043 50.6884C51.5917 51.3604 52.4497 51.5906 53.1206 51.2027L77.7575 36.9576Z" fill="#79C800"/>
<path d="M129.407 36.5515C130.078 36.1635 130.308 35.3043 129.92 34.6323C129.533 33.9604 128.675 33.7301 128.004 34.1181L111.039 43.9273C110.368 44.3152 110.138 45.1745 110.525 45.8464C110.913 46.5184 111.771 46.7486 112.442 46.3607L129.407 36.5515Z" fill="#79C800"/>
<path d="M76.5686 36.9576C75.8976 36.5696 75.6677 35.7104 76.0551 35.0384C76.4425 34.3665 77.3005 34.1362 77.9714 34.5242L95.1805 44.4745C95.8515 44.8625 96.0814 45.7217 95.694 46.3937C95.3066 47.0657 94.4487 47.2959 93.7777 46.9079L76.5686 36.9576Z" fill="#79C800"/>
<path d="M128.675 36.5515C128.004 36.1635 127.774 35.3043 128.161 34.6323C128.549 33.9604 129.407 33.7301 130.078 34.1181L147.287 44.0684C147.958 44.4564 148.188 45.3156 147.8 45.9876C147.413 46.6595 146.555 46.8898 145.884 46.5018L128.675 36.5515Z" fill="#79C800"/>
<path d="M70.1646 89.0553C70.8356 89.4432 71.0655 90.3025 70.6781 90.9744C70.2907 91.6464 69.4328 91.8766 68.7618 91.4887L50.6797 81.0336C50.0087 80.6456 49.7789 79.7864 50.1662 79.1144C50.5536 78.4425 51.4116 78.2122 52.0826 78.6002L70.1646 89.0553Z" fill="#79C800"/>
<path d="M94.4029 82.7527C95.0739 82.3647 95.9319 82.5949 96.3193 83.2669C96.7067 83.9389 96.4768 84.7981 95.8058 85.1861L85.9878 90.8629C85.3168 91.2508 84.4588 91.0206 84.0714 90.3486C83.684 89.6767 83.9139 88.8174 84.5849 88.4295L94.4029 82.7527Z" fill="#79C800"/>
<path d="M121.372 70.6902C122.123 70.4996 122.886 70.9548 123.076 71.7069C123.267 72.4591 122.812 73.2233 122.061 73.414L111.071 76.2031C110.32 76.3938 109.557 75.9386 109.367 75.1864C109.177 74.4343 109.631 73.67 110.382 73.4794L121.372 70.6902Z" fill="#79C800"/>
<path d="M117.111 95.931C117.49 96.6082 117.248 97.4642 116.572 97.843C115.896 98.2218 115.041 97.9799 114.663 97.3027L109.128 87.3939C108.75 86.7168 108.992 85.8607 109.668 85.4819C110.344 85.1031 111.199 85.345 111.577 86.0222L117.111 95.931Z" fill="#79C800"/>
<path d="M122.975 75.5071C123.726 75.3165 124.489 75.7717 124.679 76.5238C124.87 77.276 124.415 78.0402 123.664 78.2309L112.675 81.0201C111.924 81.2107 111.161 80.7555 110.97 80.0033C110.78 79.2512 111.234 78.4869 111.985 78.2963L122.975 75.5071Z" fill="#79C800"/>
<path d="M112.881 98.7291C113.259 99.4062 113.017 100.262 112.341 100.641C111.665 101.02 110.81 100.778 110.432 100.101L104.897 90.192C104.519 89.5149 104.761 88.6588 105.437 88.28C106.113 87.9012 106.968 88.1431 107.346 88.8203L112.881 98.7291Z" fill="#79C800"/>
<path d="M101.808 59.7077C101.808 58.9318 102.436 58.3028 103.21 58.3028C103.985 58.3028 104.613 58.9318 104.613 59.7077V71.0613C104.613 71.8373 103.985 72.4663 103.21 72.4663C102.436 72.4663 101.808 71.8373 101.808 71.0613V59.7077Z" fill="#79C800"/>
</svg>
