<svg width="186" height="123" viewBox="0 0 186 123" fill="none" xmlns="http://www.w3.org/2000/svg">
<path d="M136.968 77.0996C136.968 75.1851 137.501 73.6946 138.569 72.628C139.636 71.5615 141.123 71.0282 143.028 71.0282C144.981 71.0282 146.486 71.5535 147.543 72.604C148.6 73.6493 149.128 75.1158 149.128 77.0036C149.128 78.3741 148.896 79.4993 148.432 80.3792C147.973 81.2538 147.306 81.9364 146.43 82.427C145.56 82.9123 144.474 83.155 143.172 83.155C141.848 83.155 140.752 82.9443 139.882 82.523C139.017 82.1017 138.315 81.4351 137.776 80.5232C137.237 79.6113 136.968 78.4701 136.968 77.0996ZM140.594 77.1156C140.594 78.2995 140.813 79.15 141.251 79.6673C141.694 80.1846 142.294 80.4432 143.052 80.4432C143.831 80.4432 144.434 80.1899 144.861 79.6833C145.288 79.1767 145.502 78.2675 145.502 76.9556C145.502 75.8517 145.277 75.0465 144.829 74.5398C144.386 74.0279 143.783 73.7719 143.02 73.7719C142.289 73.7719 141.702 74.0306 141.259 74.5478C140.816 75.0651 140.594 75.921 140.594 77.1156Z" fill="#EE4A13"/>
<path d="M121.364 113.48C121.364 111.565 121.897 110.075 122.965 109.008C124.032 107.942 125.519 107.408 127.424 107.408C129.377 107.408 130.882 107.934 131.939 108.984C132.996 110.03 133.524 111.496 133.524 113.384C133.524 114.754 133.292 115.88 132.828 116.759C132.369 117.634 131.702 118.317 130.826 118.807C129.956 119.293 128.87 119.535 127.568 119.535C126.244 119.535 125.148 119.325 124.278 118.903C123.413 118.482 122.711 117.815 122.172 116.903C121.633 115.992 121.364 114.85 121.364 113.48ZM124.99 113.496C124.99 114.68 125.209 115.53 125.647 116.048C126.09 116.565 126.69 116.823 127.448 116.823C128.227 116.823 128.83 116.57 129.257 116.064C129.684 115.557 129.898 114.648 129.898 113.336C129.898 112.232 129.674 111.427 129.225 110.92C128.782 110.408 128.179 110.152 127.416 110.152C126.685 110.152 126.098 110.411 125.655 110.928C125.212 111.445 124.99 112.301 124.99 113.496Z" fill="#EE4A13"/>
<path d="M78.0196 6.07138C78.0196 4.15691 78.5533 2.66639 79.6207 1.59984C80.6881 0.533279 82.1745 0 84.0798 0C86.0331 0 87.5382 0.52528 88.5949 1.57584C89.6516 2.62107 90.18 4.08758 90.18 5.97539C90.18 7.34592 89.9478 8.47113 89.4835 9.35104C89.0245 10.2256 88.3574 10.9082 87.4821 11.3988C86.6122 11.8841 85.5261 12.1268 84.2239 12.1268C82.9003 12.1268 81.8035 11.9161 80.9336 11.4948C80.069 11.0735 79.3672 10.4069 78.8282 9.49503C78.2891 8.58312 78.0196 7.44191 78.0196 6.07138ZM81.6461 6.08738C81.6461 7.27126 81.8649 8.12184 82.3025 8.63912C82.7455 9.1564 83.3459 9.41504 84.1038 9.41504C84.883 9.41504 85.4861 9.16173 85.913 8.65512C86.34 8.1485 86.5535 7.23926 86.5535 5.92739C86.5535 4.82351 86.3293 4.01826 85.881 3.51164C85.438 2.99969 84.835 2.74372 84.0718 2.74372C83.3406 2.74372 82.7535 3.00236 82.3106 3.51964C81.8676 4.03692 81.6461 4.89283 81.6461 6.08738Z" fill="#EE4A13"/>
<path d="M78.0196 95.2817H81.5214L86.0912 101.99V95.2817H89.6261V107.408H86.0912L81.5463 100.749V107.408H78.0196V95.2817Z" fill="#EE4A13"/>
<path d="M105.76 47.6409H109.16L113.597 54.3495V47.6409H117.029V59.7676H113.597L109.184 53.1087V59.7676H105.76V47.6409Z" fill="#EE4A13"/>
<path d="M106.627 87.7373L110.077 87.5213C110.152 88.0813 110.304 88.5079 110.533 88.8012C110.907 89.2758 111.441 89.5131 112.135 89.5131C112.652 89.5131 113.05 89.3931 113.327 89.1532C113.61 88.9078 113.752 88.6252 113.752 88.3052C113.752 88.0013 113.618 87.7293 113.351 87.4893C113.084 87.2494 112.465 87.0227 111.494 86.8094C109.904 86.4521 108.77 85.9775 108.092 85.3855C107.409 84.7936 107.067 84.039 107.067 83.1218C107.067 82.5192 107.24 81.9512 107.587 81.4179C107.94 80.8793 108.465 80.458 109.164 80.1541C109.869 79.8448 110.832 79.6901 112.054 79.6901C113.554 79.6901 114.696 79.9701 115.481 80.53C116.271 81.0846 116.74 81.9699 116.89 83.1858L113.471 83.3857C113.381 82.8578 113.189 82.4738 112.895 82.2339C112.607 81.9939 112.207 81.8739 111.694 81.8739C111.273 81.8739 110.955 81.9646 110.742 82.1459C110.528 82.3219 110.421 82.5378 110.421 82.7938C110.421 82.9805 110.509 83.1484 110.686 83.2978C110.856 83.4524 111.262 83.5964 111.902 83.7297C113.487 84.071 114.622 84.4176 115.305 84.7696C115.993 85.1162 116.492 85.5482 116.802 86.0655C117.117 86.5828 117.274 87.1614 117.274 87.8013C117.274 88.5532 117.066 89.2465 116.65 89.8811C116.233 90.5157 115.652 90.9983 114.904 91.3289C114.157 91.6542 113.215 91.8169 112.078 91.8169C110.082 91.8169 108.7 91.4329 107.932 90.665C107.163 89.8971 106.728 88.9212 106.627 87.7373Z" fill="#EE4A13"/>
<path d="M78.0196 110.873H81.7698V115.117H85.8677V110.873H89.6344V123H85.8677V118.095H81.7698V123H78.0196V110.873Z" fill="#EE4A13"/>
<path d="M168.296 54.7335L170.683 55.4546C170.523 56.1237 170.27 56.6825 169.926 57.1312C169.581 57.5799 169.152 57.9184 168.639 58.1468C168.129 58.3752 167.48 58.4893 166.69 58.4893C165.732 58.4893 164.948 58.3511 164.339 58.0747C163.733 57.7943 163.21 57.3035 162.769 56.6024C162.328 55.9013 162.107 55.0039 162.107 53.9102C162.107 52.452 162.494 51.3323 163.268 50.5511C164.046 49.7658 165.144 49.3732 166.564 49.3732C167.674 49.3732 168.546 49.5976 169.18 50.0463C169.817 50.495 170.29 51.184 170.599 52.1135L168.194 52.6483C168.109 52.3799 168.021 52.1836 167.929 52.0594C167.777 51.8511 167.59 51.6908 167.37 51.5786C167.149 51.4665 166.903 51.4104 166.63 51.4104C166.012 51.4104 165.539 51.6588 165.211 52.1555C164.962 52.5241 164.838 53.103 164.838 53.8922C164.838 54.8697 164.986 55.5408 165.283 55.9053C165.579 56.2659 165.996 56.4462 166.534 56.4462C167.055 56.4462 167.448 56.2999 167.712 56.0075C167.981 55.715 168.175 55.2904 168.296 54.7335Z" fill="#EE4A13"/>
<path d="M172.024 49.5235H174.749V52.6062H177.726V49.5235H180.462V58.3331H177.726V54.7696H174.749V58.3331H172.024V49.5235Z" fill="#EE4A13"/>
<path d="M183.099 57.6528L181.71 57.4041C181.825 56.9618 182.046 56.6228 182.373 56.3873C182.703 56.1517 183.169 56.0339 183.77 56.0339C184.46 56.0339 184.96 56.1625 185.267 56.4197C185.575 56.6769 185.729 57.0002 185.729 57.3896C185.729 57.618 185.667 57.8247 185.542 58.0098C185.417 58.1949 185.228 58.3571 184.975 58.4965C185.18 58.547 185.336 58.6059 185.444 58.6732C185.62 58.7814 185.756 58.9244 185.852 59.1023C185.951 59.2778 186 59.4881 186 59.7333C186 60.0409 185.919 60.3366 185.758 60.6202C185.597 60.9015 185.365 61.119 185.062 61.2728C184.759 61.4243 184.361 61.5 183.867 61.5C183.386 61.5 183.006 61.4435 182.727 61.3305C182.45 61.2176 182.222 61.0529 182.042 60.8366C181.863 60.6178 181.726 60.3438 181.63 60.0145L183.099 59.8198C183.157 60.1154 183.246 60.321 183.366 60.4363C183.488 60.5493 183.644 60.6058 183.831 60.6058C184.029 60.6058 184.192 60.5337 184.322 60.3895C184.454 60.2452 184.521 60.053 184.521 59.8126C184.521 59.5674 184.457 59.3775 184.329 59.2429C184.204 59.1083 184.033 59.041 183.817 59.041C183.701 59.041 183.543 59.0698 183.341 59.1275L183.416 58.0783C183.498 58.0903 183.562 58.0963 183.608 58.0963C183.8 58.0963 183.96 58.035 184.087 57.9124C184.217 57.7899 184.282 57.6444 184.282 57.4762C184.282 57.3151 184.234 57.1865 184.138 57.0904C184.042 56.9942 183.909 56.9461 183.741 56.9461C183.568 56.9461 183.427 56.999 183.319 57.1048C183.211 57.2082 183.137 57.3908 183.099 57.6528Z" fill="#EE4A13"/>
<path d="M137.088 5.36029L139.476 6.08141C139.315 6.75044 139.063 7.30931 138.718 7.758C138.373 8.2067 137.944 8.54522 137.431 8.77357C136.922 9.00193 136.272 9.1161 135.482 9.1161C134.524 9.1161 133.74 8.97789 133.131 8.70146C132.525 8.42103 132.002 7.93027 131.561 7.22918C131.12 6.5281 130.9 5.63071 130.9 4.53702C130.9 3.07876 131.286 1.95903 132.06 1.17782C132.838 0.392607 133.937 0 135.356 0C136.467 0 137.339 0.224347 137.972 0.673041C138.61 1.12174 139.083 1.8108 139.391 2.74024L136.986 3.27507C136.902 3.00665 136.813 2.81035 136.721 2.68616C136.569 2.47783 136.382 2.31759 136.162 2.20541C135.941 2.09324 135.695 2.03715 135.422 2.03715C134.805 2.03715 134.332 2.28554 134.003 2.7823C133.754 3.15087 133.63 3.72977 133.63 4.51899C133.63 5.4965 133.778 6.16754 134.075 6.53211C134.372 6.89266 134.789 7.07294 135.326 7.07294C135.847 7.07294 136.24 6.92672 136.505 6.63426C136.773 6.34181 136.968 5.91715 137.088 5.36029Z" fill="#EE4A13"/>
<path d="M140.817 0.150232H143.541V3.233H146.518V0.150232H149.254V8.95986H146.518V5.39635H143.541V8.95986H140.817V0.150232Z" fill="#EE4A13"/>
<path d="M151.891 8.27961L150.502 8.03082C150.617 7.58854 150.839 7.24962 151.166 7.01405C151.495 6.77849 151.961 6.6607 152.562 6.6607C153.253 6.6607 153.752 6.7893 154.06 7.0465C154.368 7.3037 154.522 7.627 154.522 8.0164C154.522 8.24475 154.459 8.45148 154.334 8.63656C154.209 8.82165 154.02 8.9839 153.767 9.12331C153.972 9.17379 154.128 9.23268 154.237 9.29999C154.412 9.40815 154.548 9.55118 154.644 9.72905C154.743 9.90452 154.792 10.1148 154.792 10.36C154.792 10.6677 154.712 10.9634 154.55 11.247C154.389 11.5282 154.157 11.7458 153.854 11.8996C153.551 12.051 153.153 12.1268 152.66 12.1268C152.178 12.1268 151.798 12.0703 151.519 11.9573C151.243 11.8443 151.014 11.6797 150.834 11.4633C150.656 11.2446 150.519 10.9706 150.422 10.6413L151.891 10.4466C151.949 10.7422 152.038 10.9477 152.158 11.0631C152.281 11.1761 152.436 11.2326 152.624 11.2326C152.821 11.2326 152.984 11.1605 153.114 11.0162C153.247 10.872 153.313 10.6797 153.313 10.4394C153.313 10.1942 153.249 10.0043 153.121 9.86967C152.996 9.73506 152.826 9.66776 152.609 9.66776C152.494 9.66776 152.335 9.6966 152.133 9.75429L152.209 8.70507C152.29 8.71708 152.354 8.72309 152.4 8.72309C152.592 8.72309 152.752 8.6618 152.88 8.53921C153.01 8.41662 153.075 8.2712 153.075 8.10294C153.075 7.94189 153.026 7.81329 152.93 7.71714C152.834 7.62099 152.702 7.57292 152.533 7.57292C152.36 7.57292 152.219 7.6258 152.111 7.73156C152.003 7.83492 151.93 8.0176 151.891 8.27961Z" fill="#EE4A13"/>
<path fill-rule="evenodd" clip-rule="evenodd" d="M29.3951 36.6124C28.8587 36.3029 28.1978 36.3029 27.6614 36.6124L0.866884 52.0699C0.330454 52.3794 0 52.9513 0 53.5702V84.4853C0 85.1042 0.330455 85.6761 0.866884 85.9856L27.6614 101.443C28.1978 101.753 28.8587 101.753 29.3951 101.443L56.1896 85.9856C56.7261 85.6761 57.0565 85.1042 57.0565 84.4853V53.5702C57.0565 52.9513 56.7261 52.3794 56.1896 52.0699L29.3951 36.6124ZM29.3951 40.0779C28.8587 39.7684 28.1978 39.7684 27.6614 40.0779L3.86983 53.803C3.3334 54.1125 3.00295 54.6844 3.00295 55.3033V82.7536C3.00295 83.3725 3.3334 83.9445 3.86983 84.2539L27.6614 97.9791C28.1978 98.2885 28.8587 98.2885 29.3951 97.9791L53.1866 84.2539C53.7231 83.9445 54.0535 83.3725 54.0535 82.7536V55.3033C54.0535 54.6844 53.7231 54.1125 53.1866 53.803L29.3951 40.0779Z" fill="#5181B8"/>
<path d="M5.2013 57.8186C5.2013 56.9815 5.88051 56.3028 6.71835 56.3028C7.55619 56.3028 8.2354 56.9815 8.2354 57.8186V80.7729C8.2354 81.6101 7.55619 82.2887 6.71835 82.2887C5.88051 82.2887 5.2013 81.6101 5.2013 80.7729V57.8186Z" fill="#5181B8"/>
<path d="M78.8865 16.2412C78.8865 15.404 79.5657 14.7253 80.4035 14.7253C81.2413 14.7253 81.9206 15.404 81.9206 16.2412V37.463C81.9206 38.3002 81.2413 38.9789 80.4035 38.9789C79.5657 38.9789 78.8865 38.3002 78.8865 37.463V16.2412Z" fill="#5181B8"/>
<path d="M84.9547 16.2412C84.9547 15.404 85.6339 14.7253 86.4717 14.7253C87.3095 14.7253 87.9887 15.404 87.9887 16.2412V37.463C87.9887 38.3002 87.3095 38.9789 86.4717 38.9789C85.6339 38.9789 84.9547 38.3002 84.9547 37.463V16.2412Z" fill="#5181B8"/>
<path d="M137.835 16.2412C137.835 15.404 138.514 14.7253 139.352 14.7253C140.189 14.7253 140.869 15.404 140.869 16.2412V37.463C140.869 38.3002 140.189 38.9789 139.352 38.9789C138.514 38.9789 137.835 38.3002 137.835 37.463V16.2412Z" fill="#5181B8"/>
<path d="M48.9488 81.3142C49.6744 80.8957 50.6022 81.1441 51.0211 81.8691C51.44 82.5941 51.1914 83.5212 50.4658 83.9398L30.5711 95.4169C29.8455 95.8355 28.9177 95.5871 28.4988 94.862C28.0799 94.137 28.3285 93.21 29.0541 92.7914L48.9488 81.3142Z" fill="#5181B8"/>
<path d="M29.0541 45.8272C28.3285 45.4086 28.0799 44.4816 28.4988 43.7565C28.9177 43.0315 29.8456 42.7831 30.5711 43.2017L50.4659 54.6788C51.1914 55.0974 51.44 56.0245 51.0211 56.7495C50.6022 57.4745 49.6744 57.7229 48.9488 57.3043L29.0541 45.8272Z" fill="#5181B8"/>
<path d="M84.0866 39.3358C84.8122 38.9172 85.0608 37.9902 84.6418 37.2651C84.2229 36.5401 83.2951 36.2917 82.5695 36.7103L55.9274 52.08C55.2018 52.4986 54.9532 53.4256 55.3721 54.1507C55.791 54.8757 56.7188 55.1241 57.4444 54.7055L84.0866 39.3358Z" fill="#5181B8"/>
<path d="M139.94 38.8977C140.665 38.4791 140.914 37.552 140.495 36.827C140.076 36.102 139.148 35.8535 138.423 36.2721L120.077 46.8557C119.351 47.2743 119.103 48.2014 119.522 48.9264C119.941 49.6514 120.868 49.8998 121.594 49.4813L139.94 38.8977Z" fill="#5181B8"/>
<path d="M82.8009 39.3358C82.0753 38.9172 81.8267 37.9902 82.2456 37.2651C82.6646 36.5401 83.5924 36.2917 84.318 36.7103L102.928 47.4462C103.653 47.8648 103.902 48.7919 103.483 49.5169C103.064 50.2419 102.136 50.4903 101.411 50.0717L82.8009 39.3358Z" fill="#5181B8"/>
<path d="M139.148 38.8977C138.423 38.4791 138.174 37.552 138.593 36.827C139.012 36.102 139.94 35.8535 140.665 36.2721L159.275 47.008C160.001 47.4266 160.249 48.3537 159.831 49.0787C159.412 49.8037 158.484 50.0521 157.758 49.6335L139.148 38.8977Z" fill="#5181B8"/>
<path d="M75.8757 95.5464C76.6013 95.965 76.8499 96.8921 76.431 97.6171C76.0121 98.3421 75.0843 98.5906 74.3587 98.172L54.8048 86.8915C54.0792 86.4729 53.8306 85.5458 54.2495 84.8208C54.6685 84.0958 55.5963 83.8474 56.3219 84.266L75.8757 95.5464Z" fill="#5181B8"/>
<path d="M102.087 88.7463C102.812 88.3277 103.74 88.5761 104.159 89.3011C104.578 90.0261 104.33 90.9532 103.604 91.3718L92.9868 97.4968C92.2612 97.9154 91.3334 97.667 90.9145 96.9419C90.4955 96.2169 90.7441 95.2898 91.4697 94.8713L102.087 88.7463Z" fill="#5181B8"/>
<path d="M131.251 75.7315C132.063 75.5259 132.888 76.017 133.094 76.8285C133.3 77.6401 132.808 78.4646 131.996 78.6703L120.112 81.6797C119.3 81.8854 118.475 81.3942 118.269 80.5827C118.063 79.7712 118.555 78.9466 119.367 78.7409L131.251 75.7315Z" fill="#5181B8"/>
<path d="M126.644 102.965C127.053 103.696 126.792 104.619 126.06 105.028C125.329 105.437 124.405 105.176 123.996 104.445L118.011 93.754C117.602 93.0233 117.863 92.0997 118.594 91.691C119.325 91.2823 120.25 91.5433 120.659 92.274L126.644 102.965Z" fill="#5181B8"/>
<path d="M132.985 80.9287C133.797 80.7231 134.622 81.2142 134.828 82.0257C135.034 82.8372 134.542 83.6618 133.73 83.8675L121.846 86.8769C121.034 87.0826 120.209 86.5914 120.003 85.7799C119.797 84.9684 120.288 84.1438 121.101 83.9381L132.985 80.9287Z" fill="#5181B8"/>
<path d="M122.068 105.984C122.478 106.715 122.216 107.638 121.485 108.047C120.754 108.456 119.83 108.195 119.421 107.464L113.436 96.773C113.027 96.0423 113.288 95.1187 114.019 94.71C114.75 94.3013 115.675 94.5623 116.084 95.293L122.068 105.984Z" fill="#5181B8"/>
<path d="M110.094 63.882C110.094 63.0449 110.773 62.3662 111.611 62.3662C112.449 62.3662 113.128 63.0449 113.128 63.882V76.132C113.128 76.9691 112.449 77.6478 111.611 77.6478C110.773 77.6478 110.094 76.9691 110.094 76.132V63.882Z" fill="#5181B8"/>
</svg>
