<svg width="180" height="91" viewBox="0 0 180 91" fill="none" xmlns="http://www.w3.org/2000/svg">
<path d="M0 26.7027C0 26.5797 0 26.4743 0 26.3512C0.245042 24.0138 1.61028 22.5375 3.62312 21.4654C6.03854 20.1824 8.40144 18.7764 10.7994 17.4934C12.2346 16.7201 13.0222 15.6656 12.8647 13.996C12.8297 13.5918 12.8472 13.17 12.8822 12.7658C12.8997 12.4143 12.9522 12.0628 13.3548 11.9046C13.7574 11.7816 14.1599 11.7816 14.5625 11.7816C20.321 11.7816 26.062 11.7816 31.8205 11.7816C32.223 11.7816 32.6431 11.764 33.0282 11.887C33.5183 12.0452 33.6583 12.4494 33.6933 12.9239C33.7283 13.5039 33.7283 14.1015 33.7108 14.6814C33.6408 16.7729 34.5334 18.3722 36.2662 19.4618C38.1215 20.6218 40.0819 21.606 41.9722 22.6956C43.0049 23.2932 44.0726 23.838 45.0877 24.4707C46.0504 25.0683 46.558 25.9646 46.628 27.0894C46.698 28.1439 46.663 29.1984 46.6455 30.2529C46.628 30.6044 46.593 30.9735 46.1904 31.1316C45.7529 31.2371 45.3153 31.2019 44.8777 31.2019C30.4727 31.2019 16.0678 31.2019 1.68029 31.2019C1.1902 31.2019 0.682617 31.3074 0.227539 31.0438C-0.070012 30.288 0.157527 29.4972 0.087515 28.7239C0.035006 28.0384 0.192533 27.353 0 26.7027Z" fill="#F6BD57"/>
<path d="M49.2014 80.3066C49.2014 82.8023 49.2364 85.3155 49.2189 87.8111C49.2014 89.2347 48.2387 89.9553 47.101 90.5001C32.171 90.5001 17.2234 90.5001 2.29334 90.5001C0.718074 90.131 0.157978 89.4632 0.105469 87.9166C0.105469 87.7584 0.157978 87.6178 0.262996 87.4948C0.805589 87.073 1.4357 87.196 2.0308 87.196C13.3027 87.196 24.5747 87.196 35.8466 87.196C37.8594 87.196 39.8723 87.1081 41.8676 87.2136C44.2305 87.3366 46.1209 85.2628 46.0684 83.0307C46.0508 82.4683 46.0508 81.9235 46.0859 81.3611C46.1034 80.9745 46.1034 80.5878 46.3659 80.2715C47.3111 79.8497 48.2562 79.7969 49.2014 80.3066Z" fill="#F4A34E"/>
<path d="M0 80.3066C0 63.9091 0 47.4941 0 31.0966C0.0524616 31.079 0.12241 31.079 0.174872 31.0615C0.262308 31.1318 0.332257 31.2196 0.384718 31.3427C0.542103 31.7996 0.507129 32.2741 0.507129 32.7311C0.507129 48.0565 0.507129 63.3819 0.507129 78.6897C0.507129 79.0939 0.524616 79.5157 0.43718 79.9199C0.402205 80.0254 0.367231 80.1308 0.297282 80.2363C0.227333 80.3242 0.12241 80.3593 0 80.3066Z" fill="#FCF1D5"/>
<path d="M0.157385 88.0573C0.104923 88.0573 0.0524616 88.0573 0 88.0397C0 85.4562 0 82.8902 0 80.3067C0.0524616 80.3067 0.12241 80.3067 0.174872 80.3067C0.489641 80.5879 0.489641 80.9746 0.489641 81.3612C0.507129 83.0835 0.489641 84.8059 0.489641 86.5107C0.489641 86.9325 0.384718 87.3191 0.192359 87.6882C0.192359 87.8112 0.174872 87.9342 0.157385 88.0573Z" fill="#FBE4BD"/>
<path d="M0.175357 31.0967C0.12275 31.0967 0.0701427 31.0967 0 31.0967C0 29.638 0 28.1617 0 26.7029C0.350714 27.3532 0.12275 28.0562 0.157821 28.7241C0.192893 29.4446 0.175357 30.1828 0.192893 30.9034C0.2455 30.9737 0.2455 31.044 0.175357 31.0967Z" fill="#FBE5BD"/>
<path d="M24.6794 0.551241C25.677 0.551241 26.6747 0.551241 27.6549 0.551241C28.0049 0.902741 27.9524 1.35969 27.9524 1.78149C27.9699 3.46869 27.9524 5.17346 27.9524 6.86066C27.9524 7.21216 27.9524 7.56366 28.0049 7.91516C28.075 8.40726 28.3375 8.70604 28.8451 8.77634C29.3702 8.84664 29.7552 8.65331 29.9828 8.16121C30.1578 7.77456 30.1403 7.37034 30.1403 6.94854C30.1578 5.22619 30.1403 3.50384 30.1403 1.78149C30.1403 1.34212 30.0878 0.902741 30.4379 0.551241C31.6631 0.586391 32.9233 0.340341 34.131 0.691841C33.7984 1.16637 33.7284 1.69362 33.7284 2.25601C33.7284 5.06801 33.7284 7.86244 33.7284 10.6744C33.7284 11.1314 33.7809 11.6059 33.5359 12.0453C33.4659 12.1507 33.3609 12.1859 33.2558 12.1683C27.4273 12.1507 21.5988 12.1507 15.7703 12.1332C14.8952 12.1332 14.02 12.1332 13.1449 12.1332C13.1449 9.19814 13.0924 6.26311 13.1274 3.31051C13.1624 1.67604 14.4226 0.551241 16.1029 0.551241C16.3479 1.02577 16.2254 1.53544 16.2254 2.00997C16.2429 3.59171 16.2254 5.17346 16.2254 6.73764C16.2254 7.17701 16.2429 7.61639 16.4005 8.03819C16.593 8.56544 16.9781 8.81149 17.5381 8.77634C18.0982 8.74119 18.3608 8.38969 18.5008 7.91516C18.5883 7.58124 18.5708 7.21216 18.5708 6.87824C18.5708 5.19104 18.5708 3.48626 18.5708 1.79907C18.5708 1.35969 18.5183 0.920316 18.8684 0.551241C19.866 0.551241 20.8637 0.551241 21.8439 0.551241C22.1939 0.902741 22.1414 1.35969 22.1414 1.78149C22.1589 3.46869 22.1414 5.17346 22.1414 6.86066C22.1414 7.21216 22.1414 7.56366 22.1939 7.91516C22.264 8.40726 22.5265 8.70604 23.0341 8.77634C23.5592 8.84664 23.9442 8.65331 24.1718 8.16121C24.3468 7.77456 24.3293 7.37034 24.3293 6.94854C24.3468 5.22619 24.3293 3.50384 24.3293 1.78149C24.3818 1.35969 24.3293 0.902741 24.6794 0.551241Z" fill="#5F5260"/>
<path d="M0.174744 31.0964C0.174744 31.0261 0.192247 30.9734 0.192247 30.9031C12.1818 30.9031 24.1714 30.9207 36.1434 30.9207C39.5565 30.9207 42.9696 30.9207 46.3827 30.9207C46.8203 30.534 47.3628 30.6395 47.8704 30.6043C48.7981 30.5692 48.8506 30.5164 48.8681 29.6201C48.8856 29.0401 48.8506 28.4602 48.8856 27.8802C48.9031 27.5111 48.8681 27.1245 49.2182 26.8433C49.4807 28.2141 49.3057 29.585 49.3057 30.9382C49.3057 31.3776 49.2182 31.817 49.2182 32.2388C49.2182 47.8981 49.2182 63.5574 49.2182 79.2343C49.2182 79.5858 49.2007 79.9373 49.2007 80.2888C48.273 80.3064 47.3278 80.3064 46.4002 80.324C46.3652 80.2888 46.3127 80.2361 46.2777 80.2009C45.9801 79.6561 46.0676 79.0586 46.0676 78.4786C46.0676 63.4344 46.0676 48.3902 46.0676 33.3284C46.0676 31.2194 46.2602 31.4128 44.1248 31.4128C30.0699 31.4128 16.015 31.4128 1.96005 31.4128C1.34745 31.4303 0.699834 31.5534 0.174744 31.0964C0.192247 31.0964 0.174744 31.0964 0.174744 31.0964Z" fill="#F8CD84"/>
<path d="M49.2184 26.8436C49.2009 27.9508 49.1659 29.0405 49.1834 30.1477C49.2009 30.7804 48.9734 30.9737 48.3783 30.921C47.7132 30.8859 47.0481 30.9034 46.3829 30.9034C46.3829 29.7083 46.3829 28.4957 46.3829 27.3006C46.3654 26.1055 45.8754 25.174 44.8077 24.5764C42.1472 23.0826 39.4693 21.6063 36.8088 20.1124C34.6034 18.8822 33.3082 17.1247 33.4307 14.4708C33.4657 13.6975 33.6233 12.8891 33.2732 12.1334C33.3257 12.1158 33.3957 12.0982 33.4482 12.0806C34.3759 11.6588 35.3035 11.6237 36.2137 12.1158C36.2312 12.8715 36.2662 13.6448 36.2312 14.4005C36.1787 15.8593 36.8438 16.8259 38.0865 17.5113C40.817 19.0052 43.5475 20.5342 46.2604 22.0808C48.0982 23.1177 49.0959 24.717 49.2184 26.8436Z" fill="#F4A34E"/>
<path d="M36.2134 12.1157C35.2857 12.0981 34.3581 12.0981 33.4479 12.0806C33.4479 8.56556 33.4479 5.05056 33.4304 1.53556C33.4304 0.990735 33.4829 0.586511 34.1655 0.674385C35.4258 1.06104 36.2309 1.99251 36.2309 3.25791C36.2484 6.22808 36.2134 9.1631 36.2134 12.1157Z" fill="#4D3E4F"/>
<path d="M18.9034 0.55127C18.9034 2.81844 18.9034 5.10319 18.9034 7.37037C18.9034 8.54789 18.4658 9.11029 17.5731 9.12786C16.5055 9.16301 15.9979 8.67092 15.9454 7.42309C15.8929 6.10497 15.8929 4.80442 15.9454 3.48629C15.9804 2.50209 15.7353 1.50032 16.1029 0.55127C17.0481 0.55127 17.9757 0.55127 18.9034 0.55127Z" fill="#4D3E4F"/>
<path d="M24.6794 0.55127C24.6794 2.88874 24.6969 5.22622 24.6794 7.56369C24.6794 8.60062 24.1718 9.14544 23.2441 9.14544C22.2814 9.14544 21.8789 8.75879 21.8789 7.73944C21.8614 5.34924 21.8789 2.94147 21.8789 0.55127C22.824 0.55127 23.7517 0.55127 24.6794 0.55127Z" fill="#4D3E4F"/>
<path d="M30.4556 0.551392C30.4556 2.88887 30.4731 5.22634 30.4556 7.56381C30.4556 8.60074 29.948 9.14556 29.0204 9.14556C28.0577 9.14556 27.6551 8.75891 27.6551 7.73956C27.6376 5.34936 27.6551 2.94159 27.6551 0.551392C28.6003 0.551392 29.5279 0.551392 30.4556 0.551392Z" fill="#4D3E4F"/>
<path d="M0.20975 87.688C0.192247 85.2275 0.192247 82.767 0.174744 80.3065L0.192247 80.3241C0.682331 79.8671 1.27743 79.9902 1.85503 79.9902C9.39883 79.9902 16.9601 79.9902 24.5039 79.9902C31.2601 79.9902 38.0337 79.9902 44.7899 79.9902C45.3325 79.9902 45.9101 79.9023 46.3827 80.3065V80.3417C46.3127 81.5895 46.4702 82.8373 46.2777 84.1027C45.9801 85.8778 43.9848 87.565 41.9544 87.565C28.4421 87.4947 14.9298 87.5298 1.41746 87.5298C0.997385 87.5123 0.577313 87.442 0.20975 87.688Z" fill="#F6BD57"/>
<path d="M46.3827 80.2888C38.7163 80.2888 31.05 80.3063 23.3662 80.3063C15.6299 80.3063 7.91106 80.3063 0.17473 80.3063C0.17473 72.2394 0.157227 64.1549 0.157227 56.088C0.157227 47.7575 0.157227 39.4093 0.157227 31.0788C15.1398 31.0788 30.1399 31.0788 45.1224 31.0788C46.3477 31.0788 46.3477 31.0788 46.3477 32.309C46.3827 48.3199 46.3827 64.3131 46.3827 80.2888Z" fill="#FADD94"/>
<path d="M25.155 60.6558C24.9857 60.6558 24.8146 60.6523 24.6435 60.6437L23.8612 60.6075L23.8252 59.822C23.6911 56.9182 24.6952 54.2362 26.6536 52.2697C28.6119 50.3042 31.2803 49.2916 34.1741 49.4297L34.9564 49.4668L34.9934 50.2523C35.1275 53.1562 34.1225 55.8374 32.165 57.8038C30.3226 59.6536 27.8493 60.6558 25.155 60.6558Z" fill="#79C800"/>
<path d="M25.097 53.1105L24.3318 52.7782C21.6126 51.5982 19.4479 49.3142 18.3905 46.5122C17.3219 43.6774 17.4448 40.5939 18.737 37.829L19.0912 37.071L19.8564 37.4034C22.5746 38.5834 24.7402 40.8674 25.7967 43.6694C26.8661 46.5042 26.7432 49.5877 25.4512 52.3525L25.097 53.1105Z" fill="#79C800"/>
<path d="M24.6621 64.9609H24.6706H24.6621ZM24.1909 65.8354C21.4958 65.8354 19.0233 64.8333 17.181 62.9834C15.2236 61.0169 14.2185 58.3349 14.3526 55.4311L14.3887 54.6456L15.171 54.6094C18.0664 54.4738 20.734 55.483 22.6923 57.4494C24.6507 59.4158 25.6548 62.0978 25.5207 65.0009L25.4847 65.7873L24.7015 65.8235C24.5305 65.8311 24.3603 65.8354 24.1909 65.8354Z" fill="#79C800"/>
<path d="M24.672 73.1566C24.1975 73.1566 23.8123 72.7699 23.8123 72.2935V51.5762C23.8123 51.0997 24.1975 50.713 24.672 50.713C25.1465 50.713 25.5316 51.0997 25.5316 51.5762V72.2935C25.5316 72.7699 25.1465 73.1566 24.672 73.1566Z" fill="#5ABA63"/>
<path d="M24.6722 60.6557C24.4521 60.6557 24.2321 60.5711 24.0645 60.4028C23.7283 60.0652 23.7283 59.5197 24.0645 59.1822L29.2303 53.9951C29.5665 53.6576 30.1106 53.6576 30.4459 53.9951C30.7821 54.3318 30.7821 54.8782 30.4459 55.2157L25.28 60.4028C25.1124 60.5711 24.8924 60.6557 24.6722 60.6557Z" fill="#5ABA63"/>
<path d="M24.6716 52.8499C24.3157 52.8499 23.983 52.6263 23.8592 52.2689L21.1727 44.4914C21.017 44.0408 21.2544 43.5496 21.7031 43.3925C22.151 43.2354 22.641 43.4745 22.7975 43.926L25.484 51.7036C25.6397 52.1541 25.4023 52.6454 24.9536 52.8015C24.8599 52.8344 24.7653 52.8499 24.6716 52.8499Z" fill="#5ABA63"/>
<path d="M24.6723 65.8353C24.4521 65.8353 24.2321 65.7507 24.0645 65.5824L18.9064 60.4031C18.5702 60.0655 18.5702 59.52 18.9064 59.1825C19.2426 58.8449 19.7859 58.8449 20.122 59.1825L25.2801 64.3618C25.6162 64.6994 25.6162 65.2449 25.2801 65.5824C25.1124 65.7507 24.8924 65.8353 24.6723 65.8353Z" fill="#5ABA63"/>
<path d="M65.3186 26.7027C65.3186 26.5796 65.3186 26.4742 65.3186 26.3512C65.5636 24.0137 66.9289 22.5374 68.9417 21.4653C71.3571 20.1824 73.72 18.7764 76.118 17.4934C77.5532 16.7201 78.3408 15.6656 78.1833 13.996C78.1483 13.5917 78.1658 13.1699 78.2008 12.7657C78.2183 12.4142 78.2708 12.0627 78.6734 11.9045C79.076 11.7815 79.4785 11.7815 79.8811 11.7815C85.6396 11.7815 91.3806 11.7815 97.1391 11.7815C97.5416 11.7815 97.9617 11.7639 98.3468 11.887C98.8369 12.0451 98.9769 12.4494 99.0119 12.9239C99.0469 13.5039 99.0469 14.1014 99.0294 14.6814C98.9594 16.7728 99.852 18.3721 101.585 19.4618C103.44 20.6217 105.4 21.6059 107.291 22.6956C108.323 23.2931 109.391 23.8379 110.406 24.4706C111.369 25.0682 111.877 25.9645 111.947 27.0893C112.017 28.1438 111.982 29.1983 111.964 30.2528C111.947 30.6043 111.912 30.9734 111.509 31.1316C111.071 31.237 110.634 31.2019 110.196 31.2019C95.7913 31.2019 81.3864 31.2019 66.9989 31.2019C66.5088 31.2019 66.0012 31.3073 65.5461 31.0437C65.2486 30.288 65.4761 29.4971 65.4061 28.7238C65.3536 28.0384 65.5111 27.3529 65.3186 26.7027Z" fill="#F6BD57"/>
<path d="M114.52 80.3066C114.52 82.8023 114.555 85.3155 114.537 87.8111C114.52 89.2347 113.557 89.9553 112.42 90.5001C97.4896 90.5001 82.542 90.5001 67.6119 90.5001C66.0367 90.131 65.4766 89.4632 65.4241 87.9166C65.4241 87.7584 65.4766 87.6178 65.5816 87.4948C66.1242 87.073 66.7543 87.196 67.3494 87.196C78.6213 87.196 89.8933 87.196 101.165 87.196C103.178 87.196 105.191 87.1081 107.186 87.2136C109.549 87.3366 111.439 85.2628 111.387 83.0307C111.369 82.4683 111.369 81.9235 111.404 81.3611C111.422 80.9745 111.422 80.5878 111.685 80.2715C112.63 79.8497 113.575 79.7969 114.52 80.3066Z" fill="#F4A34E"/>
<path d="M65.3186 80.3064C65.3186 63.909 65.3186 47.4939 65.3186 31.0965C65.3711 31.0789 65.441 31.0789 65.4935 31.0613C65.5809 31.1316 65.6509 31.2195 65.7033 31.3425C65.8607 31.7995 65.8257 32.274 65.8257 32.731C65.8257 48.0563 65.8257 63.3817 65.8257 78.6895C65.8257 79.0938 65.8432 79.5156 65.7558 79.9198C65.7208 80.0252 65.6858 80.1307 65.6159 80.2361C65.5459 80.324 65.441 80.3592 65.3186 80.3064Z" fill="#FCF1D5"/>
<path d="M65.476 88.0571C65.4235 88.0571 65.3711 88.0571 65.3186 88.0395C65.3186 85.456 65.3186 82.89 65.3186 80.3065C65.3711 80.3065 65.441 80.3065 65.4935 80.3065C65.8082 80.5877 65.8082 80.9744 65.8082 81.361C65.8257 83.0834 65.8082 84.8057 65.8082 86.5105C65.8082 86.9323 65.7033 87.3189 65.511 87.688C65.511 87.811 65.4935 87.9341 65.476 88.0571Z" fill="#FBE4BD"/>
<path d="M65.494 31.0966C65.4414 31.0966 65.3887 31.0966 65.3186 31.0966C65.3186 29.6379 65.3186 28.1616 65.3186 26.7029C65.6693 27.3532 65.4414 28.0562 65.4764 28.724C65.5115 29.4446 65.494 30.1827 65.5115 30.9033C65.5641 30.9736 65.5641 31.0439 65.494 31.0966Z" fill="#FBE5BD"/>
<path d="M89.998 0.551241C90.9956 0.551241 91.9933 0.551241 92.9735 0.551241C93.3235 0.90274 93.271 1.35969 93.271 1.78149C93.2885 3.46869 93.271 5.17346 93.271 6.86066C93.271 7.21216 93.271 7.56366 93.3235 7.91516C93.3936 8.40726 93.6561 8.70603 94.1637 8.77633C94.6888 8.84663 95.0738 8.65331 95.3014 8.16121C95.4764 7.77456 95.4589 7.37033 95.4589 6.94853C95.4764 5.22619 95.4589 3.50384 95.4589 1.78149C95.4589 1.34211 95.4064 0.90274 95.7565 0.551241C96.9817 0.586391 98.2419 0.340341 99.4496 0.691841C99.117 1.16637 99.047 1.69361 99.047 2.25601C99.047 5.06801 99.047 7.86243 99.047 10.6744C99.047 11.1314 99.0995 11.6059 98.8545 12.0453C98.7845 12.1507 98.6795 12.1859 98.5744 12.1683C92.7459 12.1507 86.9174 12.1507 81.0889 12.1332C80.2138 12.1332 79.3386 12.1332 78.4635 12.1332C78.4635 9.19813 78.411 6.26311 78.446 3.31051C78.481 1.67604 79.7412 0.551241 81.4215 0.551241C81.6665 1.02577 81.544 1.53544 81.544 2.00996C81.5615 3.59171 81.544 5.17346 81.544 6.73763C81.544 7.17701 81.5615 7.61638 81.7191 8.03818C81.9116 8.56543 82.2967 8.81148 82.8568 8.77633C83.4168 8.74118 83.6794 8.38968 83.8194 7.91516C83.9069 7.58123 83.8894 7.21216 83.8894 6.87823C83.8894 5.19104 83.8894 3.48626 83.8894 1.79906C83.8894 1.35969 83.8369 0.920315 84.187 0.551241C85.1847 0.551241 86.1823 0.551241 87.1625 0.551241C87.5126 0.90274 87.46 1.35969 87.46 1.78149C87.4775 3.46869 87.46 5.17346 87.46 6.86066C87.46 7.21216 87.46 7.56366 87.5126 7.91516C87.5826 8.40726 87.8451 8.70603 88.3527 8.77633C88.8778 8.84663 89.2628 8.65331 89.4904 8.16121C89.6654 7.77456 89.6479 7.37033 89.6479 6.94853C89.6654 5.22619 89.6479 3.50384 89.6479 1.78149C89.7004 1.35969 89.6479 0.90274 89.998 0.551241Z" fill="#5F5260"/>
<path d="M65.4933 31.0964C65.4933 31.0261 65.5109 30.9734 65.5109 30.9031C77.5004 30.9031 89.49 30.9207 101.462 30.9207C104.875 30.9207 108.288 30.9207 111.701 30.9207C112.139 30.534 112.681 30.6395 113.189 30.6043C114.117 30.5692 114.169 30.5164 114.187 29.6201C114.204 29.0401 114.169 28.4602 114.204 27.8802C114.222 27.5111 114.187 27.1245 114.537 26.8433C114.799 28.2141 114.624 29.585 114.624 30.9382C114.624 31.3776 114.537 31.817 114.537 32.2388C114.537 47.8981 114.537 63.5574 114.537 79.2343C114.537 79.5858 114.519 79.9373 114.519 80.2888C113.592 80.3064 112.646 80.3064 111.719 80.3239C111.684 80.2888 111.631 80.2361 111.596 80.2009C111.299 79.6561 111.386 79.0585 111.386 78.4786C111.386 63.4344 111.386 48.3902 111.386 33.3284C111.386 31.2194 111.579 31.4128 109.443 31.4128C95.3885 31.4128 81.3336 31.4128 67.2787 31.4128C66.666 31.4303 66.0184 31.5534 65.4933 31.0964C65.5109 31.0964 65.4933 31.0964 65.4933 31.0964Z" fill="#F8CD84"/>
<path d="M114.537 26.8434C114.52 27.9506 114.485 29.0402 114.502 30.1475C114.52 30.7802 114.292 30.9735 113.697 30.9208C113.032 30.8856 112.367 30.9032 111.702 30.9032C111.702 29.7081 111.702 28.4954 111.702 27.3003C111.684 26.1052 111.194 25.1737 110.126 24.5762C107.466 23.0823 104.788 21.606 102.127 20.1122C99.922 18.8819 98.6268 17.1244 98.7493 14.4706C98.7843 13.6973 98.9419 12.8888 98.5918 12.1331C98.6443 12.1155 98.7143 12.098 98.7668 12.0804C99.6945 11.6586 100.622 11.6234 101.532 12.1155C101.55 12.8713 101.585 13.6446 101.55 14.4003C101.497 15.859 102.162 16.8256 103.405 17.5111C106.136 19.0049 108.866 20.534 111.579 22.0806C113.417 23.1175 114.415 24.7168 114.537 26.8434Z" fill="#F4A34E"/>
<path d="M101.532 12.1157C100.604 12.0981 99.6767 12.0981 98.7665 12.0805C98.7665 8.56555 98.7665 5.05056 98.749 1.53556C98.749 0.990735 98.8015 0.586511 99.4841 0.674385C100.744 1.06104 101.55 1.99251 101.55 3.25791C101.567 6.22808 101.532 9.1631 101.532 12.1157Z" fill="#4D3E4F"/>
<path d="M84.222 0.551025C84.222 2.8182 84.222 5.10295 84.222 7.37012C84.222 8.54764 83.7844 9.11004 82.8917 9.12762C81.8241 9.16277 81.3165 8.67067 81.264 7.42284C81.2115 6.10472 81.2115 4.80417 81.264 3.48605C81.299 2.50185 81.0539 1.50007 81.4215 0.551025C82.3667 0.551025 83.2943 0.551025 84.222 0.551025Z" fill="#4D3E4F"/>
<path d="M89.998 0.551025C89.998 2.8885 90.0155 5.22597 89.998 7.56344C89.998 8.60037 89.4904 9.14519 88.5627 9.14519C87.6 9.14519 87.1975 8.75854 87.1975 7.73919C87.18 5.349 87.1975 2.94122 87.1975 0.551025C88.1426 0.551025 89.0703 0.551025 89.998 0.551025Z" fill="#4D3E4F"/>
<path d="M95.7742 0.551086C95.7742 2.88856 95.7917 5.22603 95.7742 7.5635C95.7742 8.60043 95.2666 9.14525 94.339 9.14525C93.3763 9.14525 92.9737 8.7586 92.9737 7.73925C92.9562 5.34906 92.9737 2.94128 92.9737 0.551086C93.9189 0.551086 94.8465 0.551086 95.7742 0.551086Z" fill="#4D3E4F"/>
<path d="M65.5284 87.688C65.5109 85.2275 65.5109 82.767 65.4933 80.3065L65.5109 80.3241C66.0009 79.8671 66.596 79.9902 67.1736 79.9902C74.7174 79.9902 82.2787 79.9902 89.8225 79.9902C96.5787 79.9902 103.352 79.9902 110.109 79.9902C110.651 79.9902 111.229 79.9023 111.701 80.3065V80.3417C111.631 81.5895 111.789 82.8373 111.596 84.1027C111.299 85.8778 109.303 87.565 107.273 87.565C93.7607 87.4947 80.2484 87.5298 66.7361 87.5298C66.316 87.5123 65.8959 87.442 65.5284 87.688Z" fill="#F6BD57"/>
<path d="M111.701 80.289C104.035 80.289 96.3686 80.3066 88.6848 80.3066C80.9485 80.3066 73.2297 80.3066 65.4933 80.3066C65.4933 72.2397 65.4758 64.1552 65.4758 56.0883C65.4758 47.7578 65.4758 39.4096 65.4758 31.0791C80.4584 31.0791 95.4585 31.0791 110.441 31.0791C111.666 31.0791 111.666 31.0791 111.666 32.3094C111.701 48.3202 111.701 64.3134 111.701 80.289Z" fill="#FADD94"/>
<path d="M80.3913 39.9116C79.1198 48.8635 82.0426 52.2212 90.9785 53.4401C92.2501 44.4883 89.3272 41.1306 80.3913 39.9116Z" fill="#79C800"/>
<path d="M90.3597 52.8299C97.7572 57.9748 102.053 56.8484 107.137 49.361C99.7392 44.2161 95.4431 45.3423 90.3597 52.8299Z" fill="#79C800"/>
<path d="M88.3737 74.9833C87.9289 74.9833 87.5446 74.6465 87.4912 74.187C86.4877 65.6615 88.4867 54.6471 90.2489 51.1034C90.4704 50.6592 91.0059 50.4777 91.4436 50.7034C91.8822 50.9282 92.0592 51.4717 91.8377 51.9159C90.3619 54.8825 88.2615 65.5107 89.2579 73.9738C89.3167 74.4686 88.9679 74.9182 88.4795 74.9768C88.444 74.9815 88.4084 74.9833 88.3737 74.9833Z" fill="#4CAF50"/>
<path d="M130.637 26.7027C130.637 26.5797 130.637 26.4743 130.637 26.3512C130.882 24.0138 132.247 22.5375 134.26 21.4654C136.675 20.1824 139.038 18.7764 141.436 17.4934C142.871 16.7201 143.659 15.6656 143.501 13.996C143.466 13.5918 143.484 13.17 143.519 12.7658C143.536 12.4143 143.589 12.0628 143.992 11.9046C144.394 11.7816 144.797 11.7816 145.199 11.7816C150.958 11.7816 156.699 11.7816 162.457 11.7816C162.86 11.7816 163.28 11.764 163.665 11.887C164.155 12.0452 164.295 12.4494 164.33 12.9239C164.365 13.5039 164.365 14.1015 164.348 14.6814C164.277 16.7729 165.17 18.3722 166.903 19.4618C168.758 20.6218 170.719 21.606 172.609 22.6956C173.642 23.2932 174.709 23.838 175.724 24.4707C176.687 25.0683 177.195 25.9646 177.265 27.0894C177.335 28.1439 177.3 29.1984 177.282 30.2529C177.265 30.6044 177.23 30.9735 176.827 31.1316C176.39 31.2371 175.952 31.2019 175.514 31.2019C161.109 31.2019 146.704 31.2019 132.317 31.2019C131.827 31.2019 131.319 31.3074 130.864 31.0438C130.567 30.288 130.794 29.4972 130.724 28.7239C130.672 28.0384 130.829 27.353 130.637 26.7027Z" fill="#F6BD57"/>
<path d="M179.838 80.3066C179.838 82.8023 179.873 85.3155 179.856 87.8111C179.838 89.2347 178.875 89.9553 177.738 90.5001C162.808 90.5001 147.86 90.5001 132.93 90.5001C131.355 90.131 130.795 89.4632 130.742 87.9166C130.742 87.7584 130.795 87.6178 130.9 87.4948C131.442 87.073 132.072 87.196 132.668 87.196C143.939 87.196 155.211 87.196 166.483 87.196C168.496 87.196 170.509 87.1081 172.504 87.2136C174.867 87.3366 176.758 85.2628 176.705 83.0307C176.688 82.4683 176.688 81.9235 176.723 81.3611C176.74 80.9745 176.74 80.5878 177.003 80.2715C177.948 79.8497 178.893 79.7969 179.838 80.3066Z" fill="#F4A34E"/>
<path d="M130.637 80.3066C130.637 63.9091 130.637 47.4941 130.637 31.0966C130.689 31.079 130.759 31.079 130.812 31.0615C130.899 31.1318 130.969 31.2196 131.021 31.3427C131.179 31.7996 131.144 32.2741 131.144 32.7311C131.144 48.0565 131.144 63.3819 131.144 78.6897C131.144 79.0939 131.161 79.5157 131.074 79.9199C131.039 80.0254 131.004 80.1308 130.934 80.2363C130.864 80.3242 130.759 80.3593 130.637 80.3066Z" fill="#FCF1D5"/>
<path d="M130.794 88.0573C130.742 88.0573 130.689 88.0573 130.637 88.0397C130.637 85.4562 130.637 82.8902 130.637 80.3067C130.689 80.3067 130.759 80.3067 130.812 80.3067C131.126 80.5879 131.126 80.9746 131.126 81.3612C131.144 83.0835 131.126 84.8059 131.126 86.5107C131.126 86.9325 131.021 87.3191 130.829 87.6882C130.829 87.8112 130.812 87.9342 130.794 88.0573Z" fill="#FBE4BD"/>
<path d="M130.812 31.0967C130.759 31.0967 130.707 31.0967 130.637 31.0967C130.637 29.638 130.637 28.1617 130.637 26.7029C130.987 27.3532 130.759 28.0562 130.795 28.7241C130.83 29.4446 130.812 30.1828 130.83 30.9034C130.882 30.9737 130.882 31.044 130.812 31.0967Z" fill="#FBE5BD"/>
<path d="M155.316 0.551241C156.314 0.551241 157.311 0.551241 158.292 0.551241C158.642 0.902741 158.589 1.35969 158.589 1.78149C158.607 3.46869 158.589 5.17346 158.589 6.86066C158.589 7.21216 158.589 7.56366 158.642 7.91516C158.712 8.40726 158.974 8.70604 159.482 8.77634C160.007 8.84664 160.392 8.65331 160.62 8.16121C160.795 7.77456 160.777 7.37034 160.777 6.94854C160.795 5.22619 160.777 3.50384 160.777 1.78149C160.777 1.34212 160.725 0.902741 161.075 0.551241C162.3 0.586391 163.56 0.340341 164.768 0.691841C164.435 1.16637 164.365 1.69362 164.365 2.25601C164.365 5.06801 164.365 7.86244 164.365 10.6744C164.365 11.1314 164.418 11.6059 164.173 12.0453C164.103 12.1507 163.998 12.1859 163.893 12.1683C158.064 12.1507 152.236 12.1507 146.407 12.1332C145.532 12.1332 144.657 12.1332 143.782 12.1332C143.782 9.19814 143.729 6.26311 143.764 3.31051C143.799 1.67604 145.059 0.551241 146.74 0.551241C146.985 1.02577 146.862 1.53544 146.862 2.00997C146.88 3.59171 146.862 5.17346 146.862 6.73764C146.862 7.17701 146.88 7.61639 147.037 8.03819C147.23 8.56544 147.615 8.81149 148.175 8.77634C148.735 8.74119 148.998 8.38969 149.138 7.91516C149.225 7.58124 149.208 7.21216 149.208 6.87824C149.208 5.19104 149.208 3.48626 149.208 1.79907C149.208 1.35969 149.155 0.920316 149.505 0.551241C150.503 0.551241 151.5 0.551241 152.481 0.551241C152.831 0.902741 152.778 1.35969 152.778 1.78149C152.796 3.46869 152.778 5.17346 152.778 6.86066C152.778 7.21216 152.778 7.56366 152.831 7.91516C152.901 8.40726 153.163 8.70604 153.671 8.77634C154.196 8.84664 154.581 8.65331 154.809 8.16121C154.984 7.77456 154.966 7.37034 154.966 6.94854C154.984 5.22619 154.966 3.50384 154.966 1.78149C155.019 1.35969 154.966 0.902741 155.316 0.551241Z" fill="#5F5260"/>
<path d="M130.811 31.0964C130.811 31.0261 130.829 30.9734 130.829 30.9031C142.819 30.9031 154.808 30.9207 166.78 30.9207C170.193 30.9207 173.606 30.9207 177.019 30.9207C177.457 30.534 178 30.6395 178.507 30.6043C179.435 30.5692 179.487 30.5164 179.505 29.6201C179.522 29.0401 179.487 28.4602 179.522 27.8802C179.54 27.5111 179.505 27.1245 179.855 26.8433C180.117 28.2141 179.942 29.585 179.942 30.9382C179.942 31.3776 179.855 31.817 179.855 32.2388C179.855 47.8981 179.855 63.5574 179.855 79.2343C179.855 79.5858 179.837 79.9373 179.837 80.2888C178.91 80.3064 177.965 80.3064 177.037 80.324C177.002 80.2888 176.949 80.2361 176.914 80.2009C176.617 79.6561 176.704 79.0586 176.704 78.4786C176.704 63.4344 176.704 48.3902 176.704 33.3284C176.704 31.2194 176.897 31.4128 174.762 31.4128C160.707 31.4128 146.652 31.4128 132.597 31.4128C131.984 31.4303 131.337 31.5534 130.811 31.0964C130.829 31.0964 130.811 31.0964 130.811 31.0964Z" fill="#F8CD84"/>
<path d="M179.855 26.8436C179.838 27.9508 179.803 29.0405 179.82 30.1477C179.838 30.7804 179.61 30.9737 179.015 30.921C178.35 30.8859 177.685 30.9034 177.02 30.9034C177.02 29.7083 177.02 28.4957 177.02 27.3006C177.002 26.1055 176.512 25.174 175.444 24.5764C172.784 23.0826 170.106 21.6063 167.446 20.1124C165.24 18.8822 163.945 17.1247 164.067 14.4708C164.102 13.6975 164.26 12.8891 163.91 12.1334C163.962 12.1158 164.032 12.0982 164.085 12.0806C165.013 11.6588 165.94 11.6237 166.85 12.1158C166.868 12.8715 166.903 13.6448 166.868 14.4005C166.815 15.8593 167.481 16.8259 168.723 17.5113C171.454 19.0052 174.184 20.5342 176.897 22.0808C178.735 23.1177 179.733 24.717 179.855 26.8436Z" fill="#F4A34E"/>
<path d="M166.85 12.1157C165.922 12.0981 164.995 12.0981 164.085 12.0806C164.085 8.56556 164.085 5.05056 164.067 1.53556C164.067 0.990735 164.12 0.586511 164.802 0.674385C166.062 1.06104 166.868 1.99251 166.868 3.25791C166.885 6.22808 166.85 9.1631 166.85 12.1157Z" fill="#4D3E4F"/>
<path d="M149.54 0.55127C149.54 2.81844 149.54 5.10319 149.54 7.37037C149.54 8.54789 149.103 9.11029 148.21 9.12786C147.142 9.16301 146.635 8.67092 146.582 7.42309C146.53 6.10497 146.53 4.80442 146.582 3.48629C146.617 2.50209 146.372 1.50032 146.74 0.55127C147.685 0.55127 148.612 0.55127 149.54 0.55127Z" fill="#4D3E4F"/>
<path d="M155.316 0.55127C155.316 2.88874 155.334 5.22622 155.316 7.56369C155.316 8.60062 154.808 9.14544 153.881 9.14544C152.918 9.14544 152.516 8.75879 152.516 7.73944C152.498 5.34924 152.516 2.94147 152.516 0.55127C153.461 0.55127 154.388 0.55127 155.316 0.55127Z" fill="#4D3E4F"/>
<path d="M161.092 0.551392C161.092 2.88887 161.11 5.22634 161.092 7.56381C161.092 8.60074 160.585 9.14556 159.657 9.14556C158.694 9.14556 158.292 8.75891 158.292 7.73956C158.274 5.34936 158.292 2.94159 158.292 0.551392C159.237 0.551392 160.165 0.551392 161.092 0.551392Z" fill="#4D3E4F"/>
<path d="M130.846 87.688C130.829 85.2275 130.829 82.767 130.811 80.3065L130.829 80.3241C131.319 79.8671 131.914 79.9902 132.492 79.9902C140.036 79.9902 147.597 79.9902 155.141 79.9902C161.897 79.9902 168.67 79.9902 175.427 79.9902C175.969 79.9902 176.547 79.9023 177.019 80.3065V80.3417C176.949 81.5895 177.107 82.8373 176.914 84.1027C176.617 85.8778 174.621 87.565 172.591 87.565C159.079 87.4947 145.566 87.5298 132.054 87.5298C131.634 87.5123 131.214 87.442 130.846 87.688Z" fill="#F6BD57"/>
<path d="M177.019 80.2888C169.353 80.2888 161.687 80.3063 154.003 80.3063C146.267 80.3063 138.548 80.3063 130.811 80.3063C130.811 72.2394 130.794 64.1549 130.794 56.088C130.794 47.7575 130.794 39.4093 130.794 31.0788C145.777 31.0788 160.777 31.0788 175.759 31.0788C176.984 31.0788 176.984 31.0788 176.984 32.309C177.019 48.3199 177.019 64.3131 177.019 80.2888Z" fill="#FADD94"/>
<path d="M152.513 45.5044C152.527 45.5044 152.541 45.5044 152.559 45.5044C152.638 45.5694 152.684 45.6576 152.73 45.7504C153.6 47.5234 154.295 49.3613 154.795 51.2782C155.193 52.8006 155.461 54.3415 155.623 55.9056C155.739 57.0427 155.743 58.1891 155.725 59.3309C155.693 61.4566 155.443 63.5545 154.808 65.5921C154.559 66.3904 154.239 67.1608 153.716 67.8292C153.471 68.1448 153.161 68.3536 152.79 68.4836C152.758 68.4836 152.73 68.4836 152.698 68.4836C152.573 68.4465 152.453 68.4465 152.328 68.4836C152.295 68.4836 152.267 68.4836 152.235 68.4836C151.675 68.2933 151.319 67.8709 151.022 67.3929C150.462 66.4785 150.152 65.4667 149.912 64.4317C149.634 63.2482 149.476 62.0461 149.384 60.8347C149.301 59.7765 149.268 58.7183 149.305 57.6647C149.407 55.0887 149.814 52.5639 150.583 50.0993C151.046 48.6187 151.61 47.1846 152.295 45.7968C152.351 45.6854 152.397 45.5694 152.513 45.5044Z" fill="#785353"/>
<path d="M152.79 68.4837C152.887 68.3212 153.086 68.3212 153.225 68.2145C153.744 67.8153 154.054 67.2723 154.318 66.6968C154.794 65.6618 155.063 64.5664 155.271 63.4525C155.387 62.8259 155.456 62.1947 155.53 61.5635C155.692 60.1896 155.674 58.8065 155.655 57.428C155.641 56.6065 155.549 55.7897 155.447 54.9728C155.317 53.9099 155.118 52.8656 154.873 51.826C154.651 50.8884 154.378 49.9694 154.058 49.0597C153.637 47.8762 153.147 46.7205 152.586 45.5927C152.573 45.5648 152.573 45.5323 152.563 45.5045C152.772 45.4813 152.929 45.588 153.082 45.7133C154.276 46.6787 155.373 47.7416 156.373 48.9066C156.442 48.9855 156.493 49.0829 156.595 49.1386C156.72 49.1943 156.785 49.315 156.868 49.4171C157.595 50.3361 158.266 51.2922 158.812 52.3319C158.849 52.4015 158.895 52.4618 158.932 52.5268C159.719 54.0538 160.261 55.6551 160.441 57.3677C160.515 58.0593 160.524 58.7555 160.45 59.4517C160.261 61.6749 159.576 63.717 158.21 65.504C158.081 65.6757 157.942 65.8428 157.794 65.9959C157.719 66.0748 157.641 66.1491 157.618 66.2605C157.456 66.2976 157.335 66.3904 157.215 66.5018C156.178 67.4672 154.984 68.1217 153.577 68.3723C153.364 68.4094 153.137 68.3909 152.934 68.4837C152.883 68.4837 152.836 68.4837 152.79 68.4837Z" fill="#9A7863"/>
<path d="M152.512 45.5045C151.823 46.8551 151.244 48.2475 150.777 49.6863C150.314 51.1158 149.957 52.5686 149.731 54.0538C149.606 54.8753 149.513 55.6968 149.444 56.523C149.36 57.5626 149.333 58.6069 149.374 59.6419C149.416 60.7141 149.508 61.7862 149.68 62.8491C149.837 63.8238 150.032 64.7845 150.346 65.7221C150.578 66.4183 150.846 67.1006 151.309 67.6854C151.536 67.9685 151.786 68.233 152.133 68.3769C152.184 68.4001 152.235 68.414 152.239 68.479C152.179 68.479 152.114 68.479 152.054 68.479C151.744 68.4233 151.429 68.428 151.119 68.3584C149.374 67.9499 148.009 66.966 146.912 65.5828C145.602 63.9398 144.903 62.0322 144.653 59.9576C144.621 59.693 144.644 59.4192 144.598 59.1546C144.598 59.0293 144.598 58.9086 144.598 58.7833C144.635 58.5512 144.635 58.3192 144.598 58.0871C144.598 58.0082 144.598 57.9339 144.598 57.855C144.699 57.6044 144.672 57.3306 144.709 57.0706C145.037 54.6247 146.051 52.4664 147.463 50.4707C148.736 48.6698 150.258 47.1011 151.971 45.7087C152.128 45.5834 152.295 45.4766 152.512 45.5045Z" fill="#9A7863"/>
<path d="M144.598 58.087C144.672 58.3191 144.672 58.5512 144.598 58.7832C144.598 58.5512 144.598 58.3191 144.598 58.087Z" fill="#DEC3A0"/>
<path d="M152.327 68.4837C152.452 68.4141 152.573 68.4187 152.698 68.4837C152.573 68.4837 152.452 68.4837 152.327 68.4837Z" fill="#CAA87D"/>
<path d="M157.613 66.2605C157.446 66.1538 157.631 66.0888 157.663 66.047C157.816 65.8428 158.001 65.6711 158.159 65.4669C159.168 64.158 159.802 62.6774 160.154 61.0669C160.269 60.5424 160.334 60.0087 160.385 59.4749C160.524 59.2197 160.746 59.034 160.94 58.8251C162.445 57.1868 163.736 55.3906 164.824 53.4505C165.689 51.9049 166.411 50.2897 166.971 48.6049C167.008 48.4889 167.032 48.3636 167.115 48.2661C167.124 48.2615 167.133 48.2522 167.143 48.2476C167.305 48.3775 167.36 48.5539 167.383 48.7535C167.564 50.4104 167.578 52.0674 167.43 53.729C167.277 55.3952 166.957 57.0289 166.36 58.5977C165.009 62.1344 162.621 64.6268 159.024 65.8985C158.561 66.0563 158.094 66.1956 157.613 66.2605Z" fill="#8C695C"/>
<path d="M158.853 52.5176C158.575 52.0581 158.326 51.5801 158.029 51.1298C157.622 50.5125 157.192 49.9185 156.733 49.3429C156.682 49.278 156.636 49.2037 156.59 49.1387C157.96 48.5864 159.385 48.2522 160.848 48.0619C162.459 47.8484 164.069 47.8206 165.689 47.9273C166.018 47.9505 166.351 47.983 166.68 48.0202C166.856 48.0387 167.022 48.1037 167.143 48.2522L167.134 48.2661C167.078 48.3543 166.985 48.3729 166.897 48.4007C165.597 48.8185 164.343 49.3429 163.121 49.9602C161.727 50.6611 160.404 51.4779 159.145 52.4016C159.052 52.4573 158.983 52.5547 158.853 52.5176Z" fill="#8C695C"/>
<path d="M158.853 52.5175C159.339 52.1787 159.821 51.8306 160.316 51.5103C161.718 50.596 163.181 49.7977 164.727 49.1479C165.514 48.8184 166.31 48.512 167.125 48.2614C166.893 49.0876 166.574 49.8812 166.25 50.6703C165.935 51.4361 165.569 52.1741 165.181 52.9027C164.477 54.2255 163.686 55.488 162.783 56.6808C162.089 57.6044 161.344 58.4816 160.552 59.3217C160.501 59.3774 160.436 59.4238 160.381 59.4749C160.362 59.15 160.432 58.8297 160.427 58.5048C160.409 56.8386 160.061 55.242 159.4 53.7103C159.228 53.3112 159.039 52.9167 158.853 52.5175Z" fill="#785353"/>
</svg>
