<svg width="115" height="114" viewBox="0 0 115 114" fill="none" xmlns="http://www.w3.org/2000/svg">
<g clip-path="url(#clip0_2_1420)">
<path d="M20.4995 90.2998C19.8995 89.9998 19.9995 87.2998 18.2995 89.3998C17.6995 89.2998 16.9995 89.2998 16.3995 89.1998C16.5995 89.5998 16.8995 90.0998 17.0995 90.4998C16.7995 90.8998 16.3995 91.2998 16.0995 91.6998C15.0995 92.3998 16.9995 93.2998 15.9995 93.9998C15.2995 93.8998 13.7995 93.5998 14.1995 94.0998C15.5995 95.8998 15.2995 99.4998 18.7995 99.3998C19.6995 102.5 22.4995 103.3 24.8995 104.6C26.3995 105.4 28.1995 106.3 29.4995 104.7C30.5995 103.4 30.6995 101.5 29.6995 99.7998C29.4995 97.8998 31.1995 94.7998 26.8995 95.6998C25.8995 92.5998 22.9995 91.6998 20.4995 90.2998Z" fill="#C6C6C6"/>
<path d="M55.0995 76.8C52.7995 76.1 52.8995 77.7 52.7995 79.1C51.9995 80.8 53.8995 81 54.3995 81.9C52.7995 85.5 54.7995 88.4 58.9995 88.7C59.2995 88.7 59.4995 88.5 59.5995 88.2C59.9995 87.4 60.3995 86.6 60.7995 85.8C61.8995 84.5 64.6995 84.9 64.8995 83.1C65.1995 79.8 58.6995 75.8 55.0995 76.8Z" fill="#C6C6C6"/>
<path d="M63.8004 59.4001C62.5004 64.0001 64.3004 66.8001 68.9004 67.6001C71.7003 70.3001 72.5003 67.2001 74.0003 65.8001C74.5003 66.2001 74.9003 66.9001 75.6003 66.3001C76.3003 65.7001 76.2004 64.9001 75.8004 64.2001C76.3004 63.3001 75.8003 62.8001 75.0003 62.5001C73.8003 61.4001 73.1003 59.6001 71.1003 59.5001C70.0003 58.8001 68.9003 57.8001 67.7003 57.6001C66.3003 57.4001 64.4004 57.3001 63.8004 59.4001Z" fill="#C6C6C6"/>
<path d="M18.3005 39.0001C16.2005 39.6001 12.9005 45.7001 13.8005 47.4001C13.9005 47.6001 15.6005 49.4001 16.4005 47.3001C17.7005 50.8001 21.0005 52.4001 24.0005 52.6001C25.3005 52.7001 29.6005 51.7001 29.7005 48.0001C29.8005 45.4001 27.7005 44.0001 26.3005 42.3001C25.8005 40.6001 23.8005 41.0001 23.0005 39.9001C21.8005 38.1001 20.3005 37.8001 18.4005 38.7001L18.3005 39.0001Z" fill="#C6C6C6"/>
<path d="M47.1008 56.1C49.3008 57.4 48.8008 54.6 49.9008 54.3C52.5008 53.4 50.4008 52.8 49.7008 52.1C50.0008 49.2 47.2008 49.4 45.8008 48.2C44.2008 46.9 39.5008 47.7 38.3008 49.5C38.3008 49.6 38.8008 50 39.1008 50.3C39.1008 50.7 39.0008 51.1 39.0008 51.5C38.2008 53.8 40.0008 53.7 41.3008 53.9C43.1008 55 44.1008 58 47.1008 56.1Z" fill="#C6C6C6"/>
<path d="M53.3995 95.7001C51.9995 95.2001 50.3995 94.1001 49.4995 96.4001C45.2995 98.5001 48.0995 99.9001 49.8995 101.5C47.9995 105.3 50.6995 104.6 52.8995 104.5C53.7995 105.7 54.8995 106.6 56.9995 106C54.4995 105.7 55.5995 104.2 55.4995 103.2C56.4995 102.3 57.1995 103 57.8995 103.6C57.5995 101.9 59.3995 101.5 59.7995 100.2C57.0995 99.5001 56.8995 95.3001 53.3995 95.7001Z" fill="#C6C6C6"/>
<path d="M27.6009 72.2C28.5009 74.6 29.5009 76.9 31.6009 78.5C32.8009 79.5 33.2009 81.7 35.5009 81.3C35.8009 81.2 36.0009 81.1 36.1009 80.8C37.5009 81 37.9009 80.3 37.9009 79.1C37.4009 77.7 40.5009 76.7 38.5009 75.1C39.5009 70.8 36.0009 69.6 33.8009 67.2C32.1009 65.3 31.1009 66.4 29.8009 66.3C29.8009 68.5 24.9009 69 27.6009 72.2Z" fill="#C6C6C6"/>
<path d="M67.8009 14.7002C71.0009 14.7002 69.8009 12.8002 69.3009 11.2002C69.9009 8.40024 67.9009 7.30024 66.0009 6.10024C65.7009 4.50024 64.1009 4.20024 63.2009 3.30024C61.8009 2.60024 60.3009 1.70024 59.3009 3.90024C58.6009 4.00024 58.0009 4.20024 57.4009 4.30024C56.4009 3.60024 56.1009 3.90024 56.0009 5.00024C55.5009 10.7002 60.9009 15.2002 67.8009 14.7002Z" fill="#C6C6C6"/>
<path d="M112.501 71.3001C114.301 70.1001 115.701 67.1001 114.301 65.7001C112.601 65.2001 114.201 61.1001 110.801 62.5001C109.301 62.0001 108.401 59.5001 106.101 62.2001C105.001 63.5001 103.801 62.5001 104.001 64.7001C105.101 67.0001 106.101 69.3001 108.501 70.5001C109.901 70.7001 110.501 72.6001 112.501 71.3001Z" fill="#C6C6C6"/>
<path d="M53.4997 29.1001C49.1997 31.0001 48.8997 31.9001 51.5997 34.2001C54.2997 36.0001 56.6997 38.3001 60.2997 38.3001C61.7997 40.0001 62.2997 38.3001 63.1997 37.6001C65.9997 36.8001 66.0997 36.5001 64.3997 33.1001C64.5997 32.7001 64.7997 32.3001 64.1997 32.0001H64.3997C65.7997 30.5001 64.1997 29.7001 63.4997 28.8001C63.2997 28.5001 61.6997 27.4001 61.4997 29.4001C60.4997 29.9001 59.9997 29.2001 59.6997 28.4001C58.9997 26.6001 58.9997 29.2001 58.3997 28.6001C57.9997 28.6001 57.6997 28.5001 57.2997 28.5001C55.8997 27.4001 54.3997 27.0001 53.4997 29.1001Z" fill="#C6C6C6"/>
<path d="M72.6007 102.4C72.2007 101.9 71.3007 101.9 71.3007 103C71.3007 103.2 71.5007 103.5 71.6007 103.7C71.0007 105.3 69.6007 103.6 68.8007 104.3C68.3007 106.4 70.4007 106.9 71.1007 108.3C71.3007 108 71.5007 107.6 71.7007 107.3C72.1007 107.6 72.5007 108 72.8007 108.3C72.9007 112.1 77.8007 109.5 78.1007 114C79.1007 111.5 79.2007 110 80.1007 109.2C84.2007 105.4 80.3007 104.7 77.9007 103.3C77.0007 99.1003 74.2007 104.5 72.6007 102.4Z" fill="#C6C6C6"/>
<path d="M1.69941 38.1C2.89941 39.1 3.09941 37.3 3.89941 37.2C5.09941 38.4 6.19941 37.3 7.29941 37.1C10.0994 38.7 10.1994 36.5 10.6994 34.8C10.5994 33.8 10.4994 32.8 10.4994 31.8C10.7994 28.9 8.59941 31.1 7.79941 30.5L7.69941 30.3C7.99941 29.6 9.89941 29.7 8.89941 28.4C7.99941 27.2 6.99941 28 6.19941 28.8C5.59941 28.3 5.09941 27.3 3.99941 27.7C0.799412 25.4 1.49941 29.1 0.299412 30C-0.600588 31.7 -4.40059 33.1 -0.200588 35.4C-0.500588 36.9 0.999412 37.3 1.69941 38.1Z" fill="#C6C6C6"/>
<path d="M30.9994 34.3C33.6994 36.1 37.5994 35.5 38.8994 32.4C39.9994 29.7 37.8994 27.6 35.4994 26.3C35.2994 26.1 35.0994 25.9 34.8994 25.7C32.2994 24.4 30.8994 20.4 26.8994 22.1C26.4994 21.8 26.0994 21.4 25.6994 21.1C24.0994 21 22.5994 21 23.4994 23.3C23.3994 23.7 23.3994 24 23.2994 24.4C21.1994 27.3 21.3994 29.3 25.2994 29.9C27.1994 31.4 27.8994 34.4 30.9994 34.3Z" fill="#C6C6C6"/>
<path d="M92.0994 73.2998C90.9994 72.8998 90.9994 74.5997 90.2994 75.0997C88.0994 76.1997 87.7994 77.9997 88.2994 80.1997C85.8994 82.2997 87.5994 83.7997 89.1994 85.1997C91.2994 86.0997 92.8994 87.8997 95.3994 88.0997C96.1994 88.7997 96.6994 90.0998 98.1994 89.3997C98.2994 89.3997 97.8994 88.5997 97.7994 88.0997C98.6994 87.1997 100.599 88.2997 100.999 86.5997C101.099 86.2997 99.9994 85.7998 99.3994 85.2998H99.5994C100.199 84.9998 101.099 84.8997 101.199 84.4997C101.499 83.3997 100.199 83.4997 99.6994 82.9997C99.1994 79.9997 96.1994 76.9997 94.3994 77.6997C94.1994 77.4997 93.9994 77.3998 93.6994 77.3998C93.2994 75.9998 93.9994 73.9998 92.0994 73.2998Z" fill="#C6C6C6"/>
<path d="M29.3995 14C31.9995 15.4 32.7995 13.4 33.7995 11.7C34.0995 11.6 34.2995 11.5 34.3995 11.2C35.2995 10.8 36.1995 10.2 37.1995 9.90002C39.4995 9.40002 37.5995 8.80002 37.1995 8.30002C36.5995 6.80002 34.5995 7.30002 33.9995 5.90002C33.5995 2.70002 31.5995 1.70002 28.5995 1.90002C28.1995 1.10002 28.1995 -0.0999756 26.6995 -0.0999756C24.3995 2.44156e-05 27.4995 2.20002 25.6995 2.30002C23.5995 1.10002 23.0995 3.60002 23.1995 4.10002C23.6995 6.00002 23.4995 8.30002 25.6995 9.40002C25.8995 9.60002 25.9995 9.80002 26.1995 10C26.0995 11 26.9995 11.5 27.3995 12.2C26.9995 12.6 25.9995 12.9 25.9995 13.2C25.9995 14 26.8995 13.9 27.4995 14C28.0995 14.2 28.6995 14 29.3995 14Z" fill="#C6C6C6"/>
<path d="M87.3 42.4001C87.5 42.6001 87.6 42.7001 87.7 43.0001C87.2 44.0001 88.1 44.1001 88.6 44.5001C89 45.0001 89.3 44.9001 89.6 44.5001L89.7 44.7001C90.7 44.1001 93.3 45.1001 92 42.3001L91.8 42.2001C91.4 40.5001 96.2 40.2001 92.9 37.8001C92.8 37.5001 92.7 37.3001 92.5 37.1001C92.9 36.3001 92.4 35.9001 91.9 35.4001C90.2 32.9001 88.4 30.6001 85.1 33.2001C83.6 34.1001 82.4 35.1001 83.3 37.1001C83.3 37.5001 83.4 37.8001 83.4 38.2001C83.8 39.0001 83.7 40.0001 84.6 40.5001C84.8 42.0001 85.2 43.4001 87.3 42.4001Z" fill="#C6C6C6"/>
<path d="M0.500015 79.7C1.50001 79.5 0.800014 83 2.80001 80.8C4.20001 78.4 4.10001 75.6 4.70001 73C3.80001 71.7 2.70002 70.9 1.10001 70.9C1.4782e-05 69.1 -1.49999 70 -2.79999 70.4C-6.29999 71.2 -6.99999 72.7 -4.09999 75.2C-3.79999 75.5 -3.49999 75.8 -3.19999 76.1C-3.79999 77 -3.39999 77.8 -2.79999 78.5C-2.59999 81.2 -0.799985 79.7 0.500015 79.7Z" fill="#C6C6C6"/>
<path d="M7.3991 63.7C7.0991 65.9 9.8991 66.8 9.9991 66.4C10.4991 63.1 13.8991 65.9 14.7991 63.8C15.5991 63.2 16.5991 63 15.5991 61.4C13.4991 58 12.0991 54.2 7.8991 52.6C7.5991 51.8 6.6991 51.4 6.4991 50.4C6.0991 48.5 4.9991 47.3 2.7991 48.3C2.5991 47.8 2.8991 47.1 2.1991 46.8C-0.900898 45.2 -1.1009 48.8 -3.0009 49.5C-4.8009 51.1 -2.7009 52.2 -2.5009 53.6C-2.6009 54.9 -1.7009 55.2 -0.800898 55.5C1.2991 57.2 1.1991 61.2 5.0991 61.1C5.1991 61.4 5.2991 61.6 5.4991 61.9C5.5991 63.1 4.8991 65 7.3991 63.7Z" fill="#C6C6C6"/>
</g>
<defs>
<clipPath id="clip0_2_1420">
<rect width="120.9" height="114.1" fill="white" transform="translate(-6)"/>
</clipPath>
</defs>
</svg>
