<svg width="245" height="115" viewBox="0 0 245 115" fill="none" xmlns="http://www.w3.org/2000/svg">
<g clip-path="url(#clip0_1_503)">
<g clip-path="url(#clip1_1_503)">
<path d="M64.8759 86.1203C65.72 84.7581 66.7897 83.6215 68.1519 82.7774C68.4611 82.5852 68.4193 82.4264 68.2438 82.1673C66.8315 80.17 66.7228 78.0556 67.7675 75.8744C67.8343 75.7407 67.9764 75.5986 67.8343 75.4565C67.5 75.1222 67.5585 74.696 67.5585 74.2949C67.5585 72.7405 67.5669 71.1777 67.5585 69.6316C67.5502 68.5702 66.9735 67.7763 66.0375 67.4754C64.9511 67.1244 63.7477 67.442 63.1459 68.2443C62.6362 68.9212 62.5442 69.6483 62.8702 70.4088C63.2128 71.186 63.8229 71.6457 64.6837 71.7209C64.9595 71.746 65.2352 71.7209 65.511 71.746C66.096 71.7794 66.4972 72.1972 66.4805 72.7154C66.4637 73.2335 66.0877 73.5929 65.5194 73.6263C63.7895 73.735 62.3102 73.2586 61.3575 71.7209C60.4215 70.25 60.4884 68.7457 61.4077 67.2749C61.4244 67.2414 61.416 67.1997 61.4244 67.1579C61.7336 66.8487 62.0344 66.5478 62.3437 66.2386C63.3047 65.6452 64.3494 65.4196 65.486 65.4864C67.6839 65.6118 69.3386 67.2164 69.4305 69.4143C69.4807 70.6512 69.4556 71.8964 69.4473 73.1416C69.4473 73.3589 69.3888 73.5678 69.3303 73.9439C71.8458 72.331 74.1941 72.3059 76.5425 73.8352C76.7013 73.6597 76.6177 73.4592 76.6261 73.267C76.6428 71.9131 76.5759 70.5425 76.6762 69.1887C76.8517 66.6732 79.2001 65.0769 81.8911 65.5617C84.2311 65.9795 85.727 68.3112 85.1253 70.601C84.5988 72.6485 82.5095 73.9857 80.4118 73.6263C79.8937 73.5427 79.6012 73.2168 79.6012 72.6987C79.6012 72.1805 79.9104 71.8546 80.4202 71.7794C80.7127 71.7376 81.0136 71.771 81.3061 71.746C82.4844 71.654 83.3619 70.7097 83.3619 69.5564C83.3619 68.4198 82.4677 67.4754 81.2894 67.3835C79.4842 67.2498 78.5231 68.144 78.5148 69.9742C78.5148 71.4117 78.5148 72.8491 78.5148 74.2865C78.5064 74.696 78.5733 75.1139 78.2306 75.4565C78.0802 75.607 78.2306 75.7407 78.2975 75.8744C79.3505 78.064 79.2502 80.17 77.8378 82.1673C77.6623 82.4097 77.5955 82.5768 77.9214 82.7691C79.2753 83.6215 80.345 84.7581 81.1974 86.1119C81.0971 86.3292 80.8798 86.3292 80.696 86.3459C79.2335 86.5548 77.9548 87.1482 76.9603 88.2597C76.8601 88.3767 76.7347 88.4854 76.601 88.5522C74.9463 88.8029 73.2748 88.8531 71.6118 88.7611C70.9098 88.7277 70.191 88.7444 69.5057 88.5606C69.2968 88.4519 69.1297 88.2681 68.9709 88.1093C68.0432 87.1148 66.8816 86.605 65.5695 86.3793C65.3188 86.3459 65.043 86.3877 64.8759 86.1203Z" fill="#9A7863"/>
<path d="M78.8239 99.801C79.3087 100.119 79.785 100.428 80.2781 100.737C80.2279 102.141 79.4842 103.219 78.6317 104.239C77.1107 106.06 75.2972 107.556 73.4001 108.969C73.1996 109.119 72.9906 109.211 72.765 109.036C70.4417 107.281 68.1686 105.475 66.5473 103.002C66.096 102.316 65.8202 101.573 65.8035 100.737C66.2798 100.428 66.7478 100.127 67.2326 99.826C67.4833 99.8093 67.6838 99.9263 67.8928 100.035C71.3777 101.965 74.8543 101.932 78.3141 99.9598C78.4646 99.8762 78.5983 99.6923 78.8239 99.801Z" fill="#785353"/>
<path d="M76.4589 88.5104C75.8321 89.5718 75.339 90.6833 75.2137 91.9452C75.1301 92.7642 75.2972 93.5331 75.3808 94.3354C74.754 95.0457 73.9016 95.2296 73.0408 95.2212C72.18 95.2296 71.3192 95.0374 70.7008 94.3354C71.1688 92.2461 70.7509 90.3072 69.6144 88.5188C71.8959 88.711 74.1774 88.7194 76.4589 88.5104Z" fill="#785353"/>
<path d="M70.6924 94.327C71.2524 94.6028 71.7789 94.9287 72.414 95.029C73.5005 95.2129 74.4532 94.8619 75.3725 94.327C75.7903 95.6642 76.3085 96.9345 77.1776 98.0543C77.6707 98.6978 78.3058 99.1992 78.824 99.801C74.963 102.241 71.0936 102.216 67.2159 99.826C68.2104 98.8148 69.2299 97.812 69.8567 96.4999C70.2077 95.7979 70.4167 95.0541 70.6924 94.327Z" fill="#9A7863"/>
<path d="M57.4764 100.511C57.2257 100.261 56.975 100.01 56.7243 99.7592C55.3119 98.046 54.9943 96.0737 55.4372 93.9426C56.1977 90.207 59.2983 87.0396 63.1175 86.3292C63.7526 86.2122 64.4392 85.979 65.0743 85.9122C65.0743 85.9122 71.1164 84.1723 72.3784 85.6014C72.8882 85.9607 71.8345 90.2635 71.8345 90.2635C71.8345 90.2635 71.3576 92.9314 70.9649 94.4441C70.4133 96.6671 69.2099 98.4722 67.4716 99.9263C66.9392 100.287 65.9589 100.754 65.9589 100.754C64.4797 101.548 62.9169 101.991 61.212 101.907C59.808 101.823 58.5628 101.397 57.4764 100.511Z" fill="#C8D4E4"/>
<path d="M88.9167 100.511C89.1674 100.261 89.4181 100.01 89.6688 99.7592C91.0812 98.046 91.3987 96.0737 90.9558 93.9426C90.1953 90.207 87.0948 87.0396 83.2756 86.3292C82.6404 86.2122 81.9539 85.979 81.3187 85.9122C81.3187 85.9122 75.2766 84.1723 74.0147 85.6014C73.5049 85.9607 74.5586 90.2635 74.5586 90.2635C74.5586 90.2635 75.0354 92.9314 75.4282 94.4441C75.9798 96.6671 77.1832 98.4722 78.9215 99.9263C79.4539 100.287 80.4341 100.754 80.4341 100.754C81.9134 101.548 83.4761 101.991 85.181 101.907C86.585 101.823 87.8302 101.397 88.9167 100.511Z" fill="#C8D4E4"/>
</g>
<g clip-path="url(#clip2_1_503)">
<path d="M73 68C62.5236 68 54 76.523 54 87C54 97.477 62.523 106 73 106C83.477 106 92 97.477 92 87C92 76.523 83.4764 68 73 68ZM57.48 87C57.48 78.4422 64.4422 71.48 73 71.48C76.8558 71.48 80.3856 72.8969 83.1029 75.2337L61.2337 97.1029C58.8969 94.3856 57.48 90.8558 57.48 87ZM73 102.52C69.5502 102.52 66.3608 101.387 63.781 99.4762L85.4757 77.7816C87.3867 80.3614 88.5195 83.5508 88.5195 87.0006C88.52 95.5578 81.5578 102.52 73 102.52Z" fill="#C73838"/>
</g>
<path d="M94.0132 46.7852C94.0132 46.7455 94.0132 46.6926 94.0132 46.6529C94.2209 45.8987 94.2338 45.1047 94.8567 44.4564C96.0375 43.2258 97.7634 42.9612 99.1648 43.5698C101.41 44.5622 102.617 43.5434 103.797 42.4848C104.109 42.2069 104.096 41.8232 104.083 41.4395C104.005 39.4547 104.329 37.536 105.017 35.6703C105.536 34.281 104.706 33.0107 103.252 32.9445C102.305 32.9049 101.488 32.6138 100.826 31.8728C99.7358 30.6554 99.8785 28.7765 101.176 27.7179C102.409 26.7123 104.342 26.9769 105.212 28.2472C105.393 28.5251 105.536 28.8162 105.666 29.1205C105.925 29.7292 106.354 30.1923 106.925 30.4966C107.586 30.8539 108.222 30.8936 108.845 30.3511C109.598 29.6895 110.454 29.147 111.337 28.6971C111.83 28.4457 112.089 28.0752 112.167 27.5194C112.401 25.9184 112.102 24.5819 110.714 23.5631C109.053 22.3722 108.936 19.911 110.247 18.31C111.025 17.3705 112.011 17.1588 113.088 17.0132C113.218 17.0132 113.348 17.0132 113.478 17.0132C113.737 17.1456 114.036 17.1191 114.295 17.1191C115.761 17.1853 116.618 18.085 117.15 19.3288C117.682 20.5859 117.565 21.8562 116.696 22.9412C115.748 24.1188 115.476 25.0715 116.8 26.8578C117.072 27.2283 117.435 27.3739 117.864 27.3739C119.797 27.3739 121.562 27.9826 123.262 28.8426C123.716 29.0808 124.131 29.0676 124.559 28.8162C125.208 28.4457 125.805 28.0223 126.363 27.5194C126.83 27.1092 126.999 26.5667 127.077 25.9448C127.323 23.9071 129.27 22.703 131.022 23.5101C132.086 23.9997 132.721 24.8466 132.747 26.0772C132.786 27.3474 132.215 28.3398 131.099 28.75C129.555 29.3058 128.79 30.5099 128.102 31.8463C127.816 32.3888 127.816 32.8784 128.167 33.3944C128.79 34.3074 129.179 35.3395 129.581 36.3584C129.919 37.2185 130.425 37.5493 131.32 37.536C132.345 37.5096 133.163 37.1126 133.798 36.2128C134.811 34.7706 136.601 34.1751 138.158 34.6515C139.962 35.2072 140.909 36.4907 140.935 38.4491C140.935 38.7269 140.935 39.0048 140.935 39.2694C140.974 41.0028 140.183 42.1937 138.639 42.8156C137.004 43.4772 135.498 43.2258 134.227 41.9291C132.838 40.5 131.904 40.9631 130.593 41.5718C130.321 41.7041 130.204 41.9688 130.165 42.2731C130.022 43.3449 129.75 44.3902 129.399 45.4091C129.153 46.1501 129.296 46.547 129.932 46.9969C130.58 47.46 131.307 47.5924 132.073 47.6188C133.63 47.6585 134.837 48.9552 134.837 50.5299C134.837 51.8001 134.032 52.8984 132.812 53.2953C131.683 53.6658 130.347 53.2159 129.685 52.1442C129.179 51.3238 128.712 50.4902 127.907 49.9079C127.284 49.4448 127.09 49.4316 126.532 49.9873C125.675 50.8342 124.767 51.6149 123.716 52.1971C123.119 52.5279 122.859 53.0175 122.795 53.6791C122.639 55.3331 123.067 56.7753 124.313 57.9133C125.221 58.7337 125.688 59.7261 125.649 60.9963C125.61 62.2005 124.624 63.9074 122.976 63.8809C122.885 63.8809 122.808 63.8809 122.73 63.9471C122.34 63.9471 121.951 63.9471 121.562 63.9471C119.148 63.3913 118.214 61.605 119.109 59.1968C119.732 57.5163 119.369 55.955 118.603 54.4201C118.435 54.0893 118.136 53.9569 117.799 53.9702C116.696 53.9834 115.593 53.9305 114.516 53.7055C114.075 53.6129 113.724 53.8378 113.413 54.1422C112.115 55.3992 111.557 56.9871 111.388 58.7469C111.35 59.1836 111.298 59.6202 111.207 60.0569C110.934 61.3668 109.52 62.4122 108.274 62.2534C106.834 62.0814 105.744 60.8773 105.692 59.4879C105.653 58.35 106.12 57.5163 107.002 56.8547C108.586 55.6771 109.286 54.0363 109.325 52.078C109.338 51.5884 109.157 51.1914 108.78 50.8606C107.768 49.9873 106.912 48.9685 106.198 47.8305C105.848 47.2748 105.419 47.0366 104.784 47.1954C104.576 47.2483 104.355 47.2483 104.135 47.2351C102.681 47.1425 101.656 47.7776 100.969 49.0743C100.398 50.1461 99.4633 50.7416 98.2954 50.9797C96.1024 51.4164 94.1949 49.8683 94.143 47.5924C94.0522 47.3277 94.156 47.0498 94.0132 46.7852Z" fill="#F6BD57"/>
<path d="M111.479 34.3472C112.854 34.3604 113.88 35.4189 113.867 36.8348C113.867 38.2109 112.738 39.3753 111.401 39.3753C110.091 39.3753 108.949 38.2109 108.936 36.8877C108.936 35.4983 110.091 34.3339 111.479 34.3472Z" fill="#F4A34E"/>
<path d="M123.742 37.4037C124.728 37.4037 125.636 38.3432 125.649 39.3621C125.662 40.4074 124.715 41.3601 123.703 41.3469C122.703 41.3204 121.808 40.4074 121.795 39.3885C121.782 38.3565 122.716 37.4037 123.742 37.4037Z" fill="#F4A34E"/>
<path d="M115.943 43.0009C115.943 43.8874 115.242 44.602 114.386 44.602C113.529 44.602 112.751 43.8213 112.751 42.9612C112.751 42.0879 113.503 41.3601 114.412 41.3733C115.229 41.3733 115.93 42.1143 115.943 43.0009Z" fill="#F4A34E"/>
<path d="M119.927 33.9766C119.914 34.7044 119.252 35.3395 118.525 35.3395C117.798 35.3395 117.163 34.6779 117.176 33.937C117.189 33.196 117.824 32.5344 118.538 32.5344C119.304 32.5344 119.952 33.2092 119.927 33.9766Z" fill="#F4A34E"/>
<path d="M119.459 49.5639C118.668 49.5639 118.149 49.0214 118.149 48.1878C118.149 47.3674 118.733 46.7852 119.537 46.7984C120.238 46.8117 120.835 47.4468 120.848 48.1613C120.874 48.9156 120.225 49.5639 119.459 49.5639Z" fill="#F4A34E"/>
<path d="M125.831 20.5197C125.831 21.5651 125 22.4251 123.988 22.3987C123.002 22.3722 122.184 21.5386 122.184 20.533C122.184 19.5009 123.041 18.6408 124.04 18.654C125.039 18.6673 125.831 19.5009 125.831 20.5197Z" fill="#F6BD57"/>
<path d="M101.319 23.3514C99.8004 23.3382 98.5547 22.0679 98.5547 20.5197C98.5547 18.9716 99.8134 17.6881 101.319 17.7013C102.824 17.7013 104.083 18.9848 104.096 20.533C104.108 22.0547 102.824 23.3646 101.319 23.3514Z" fill="#F6BD57"/>
<path d="M98.7882 56.4975C98.7882 55.4521 99.6187 54.5921 100.631 54.6185C101.617 54.6317 102.435 55.4786 102.448 56.4842C102.461 57.5296 101.617 58.3632 100.592 58.3499C99.5668 58.3367 98.7882 57.5296 98.7882 56.4975Z" fill="#F6BD57"/>
<path d="M133.059 62.1475C131.579 62.1475 130.437 60.9699 130.437 59.4614C130.45 57.953 131.605 56.7886 133.084 56.815C134.538 56.8282 135.667 57.9927 135.667 59.4746C135.693 60.9699 134.538 62.1475 133.059 62.1475Z" fill="#F6BD57"/>
<g clip-path="url(#clip3_1_503)">
<path d="M116.729 20.8525C106.321 20.8525 97.8524 29.3203 97.8524 39.7295C97.8524 50.1387 106.32 58.6066 116.729 58.6066C127.139 58.6066 135.607 50.1387 135.607 39.7295C135.607 29.3203 127.138 20.8525 116.729 20.8525ZM101.31 39.7295C101.31 31.2271 108.227 24.3099 116.729 24.3099C120.56 24.3099 124.067 25.7177 126.767 28.0393L105.039 49.7671C102.718 47.0674 101.31 43.5604 101.31 39.7295ZM116.729 55.1491C113.302 55.1491 110.133 54.0237 107.57 52.125L129.124 30.5708C131.023 33.1339 132.149 36.3026 132.149 39.7301C132.149 48.2319 125.232 55.1491 116.729 55.1491Z" fill="#C73838"/>
</g>
<path d="M27.0776 71.5053C28.4579 71.5053 29.8296 71.5139 31.2099 71.5053C31.6326 71.5053 31.9863 71.5654 32.1503 72.0121C32.2797 72.3901 32.133 72.6736 31.6585 72.9914C23.0316 72.9914 14.4047 72.9914 5.77786 72.9914C5.54493 72.8454 5.32063 72.6993 5.26024 72.3987C5.16535 71.8918 5.5018 71.5139 6.0798 71.5139C7.52912 71.5053 8.97843 71.5053 10.4277 71.5053C10.5399 71.428 10.6693 71.4108 10.7987 71.4108C13.4385 71.428 16.0697 71.3592 18.7009 71.4022C19.9691 71.385 21.2372 71.385 22.5054 71.4022C23.8771 71.3764 25.2487 71.3936 26.629 71.3936C26.7843 71.3936 26.9396 71.4022 27.0776 71.5053Z" fill="#785353"/>
<path d="M38.56 29.2749C37.0158 30.5549 35.532 31.9036 34.1862 33.3983C31.4429 36.4479 29.2603 39.8583 27.5263 43.5607C25.5162 47.8559 24.1704 52.3659 23.325 57.0219C23.1352 58.0785 23.0058 59.1351 22.8505 60.2003C22.7728 60.3206 22.8936 60.4495 22.8505 60.5697C22.3415 61.36 21.7376 62.0902 21.2718 62.9063C21.22 63.0008 21.1251 63.164 20.9871 62.9664C20.7887 61.9957 20.8145 61.0078 20.7024 60.0285C20.3746 57.271 19.7621 54.5736 18.9252 51.9278C18.8562 51.7216 18.7872 51.524 18.7872 51.3007C18.8821 49.5826 19.2444 47.9075 19.7017 46.2581C20.0812 44.8751 20.6334 43.5607 21.2373 42.2636C21.3063 42.1261 21.358 41.9715 21.5133 41.8942C21.8239 41.3788 22.1258 40.8634 22.445 40.3565C25.1366 36.0012 28.9669 32.9602 33.5737 30.8212C34.9799 30.1683 36.4378 29.6357 37.9389 29.2491C38.0769 29.2148 38.215 29.1976 38.3616 29.1632C38.4565 29.1375 38.56 29.1031 38.56 29.2749Z" fill="#5ABA64"/>
<path d="M18.8821 51.2491C18.9684 51.9621 19.2531 52.615 19.4515 53.3022C20.0209 55.2866 20.4436 57.2881 20.7196 59.3412C20.8835 60.5697 20.9612 61.7981 21.0475 63.0265C21.1682 63.1897 21.0647 63.3272 20.9957 63.4646C19.8224 65.681 19.1495 68.0347 18.9166 70.5259C18.908 70.6634 18.908 70.818 18.7354 70.8781C18.5198 70.8438 18.537 70.6634 18.5198 70.5088C18.2523 66.9523 17.2516 63.6107 15.647 60.4322C15.3796 59.8996 15.0086 59.4186 14.8275 58.8344C14.8361 58.654 14.9396 58.4736 14.8447 58.2932C14.2753 50.3299 12.1186 42.8649 7.75342 36.0269C8.16751 36.1901 8.41769 36.465 8.69375 36.697C11.4026 38.9562 13.6887 41.5763 15.5694 44.5572C15.6298 44.6517 15.7074 44.7376 15.7764 44.8235C16.225 45.2788 16.4666 45.8629 16.7685 46.4041C17.4759 47.7099 18.0971 49.0585 18.6233 50.4416C18.7268 50.7079 18.7613 50.9914 18.8821 51.2491Z" fill="#68BB6B"/>
<path d="M14.9137 58.8172C15.0949 59.2983 15.3968 59.7192 15.6384 60.1745C16.8893 62.5798 17.7865 65.114 18.2782 67.7856C18.4508 68.722 18.6233 69.6583 18.6319 70.6204C18.6319 70.7064 18.6405 70.7923 18.7182 70.8524C18.8821 71.0757 18.8821 71.2905 18.7182 71.5138C15.9576 71.5396 13.197 71.5568 10.4364 71.5138C10.4364 71.4881 10.445 71.4709 10.4623 71.4537C10.6262 71.2991 10.8418 71.3334 11.0316 71.3334C12.0927 71.3334 13.1538 71.3334 14.215 71.3334C14.6636 71.3334 14.6981 71.2905 14.5687 70.8696C14.1459 69.4607 13.5076 68.1636 12.5413 67.0383C12.4378 66.918 12.3257 66.8063 12.3343 66.6345C12.2135 65.2944 11.9202 63.9887 11.5751 62.6915C10.5572 58.8516 8.90942 55.3381 6.36449 52.28C5.48455 51.2233 4.50108 50.2612 3.38821 49.4108C4.35443 49.4537 7.84831 51.3522 9.84113 53.0445C11.7563 54.6681 13.4299 56.5064 14.7412 58.6454C14.8275 58.6798 14.862 58.7571 14.9137 58.8172Z" fill="#6EC277"/>
<path d="M18.8821 51.2491C18.537 50.8368 18.468 50.2956 18.2696 49.8231C17.5794 48.148 16.7771 46.533 15.8368 44.9781C15.8109 44.9352 15.8023 44.8751 15.7851 44.8149C16.2423 43.4834 16.4666 42.1004 16.5615 40.7001C16.8375 36.843 16.225 33.0976 15.1035 29.4123C15.0777 29.3178 15.0604 29.2234 15.0086 29.0344C18.5715 32.6853 20.7455 36.9203 21.4874 41.8684C20.9871 43.0539 20.4263 44.205 20.0381 45.4334C19.4515 47.3405 19.0201 49.2647 18.8821 51.2491Z" fill="#91CF96"/>
<path d="M12.3084 66.626C13.4817 67.8544 14.215 69.3233 14.6981 70.9297C14.8533 71.4452 14.8533 71.4452 14.3271 71.4538C13.0331 71.4538 11.739 71.4538 10.445 71.4538C10.2984 69.0656 9.56507 66.9094 7.93458 65.0969C7.64127 64.779 7.31345 64.5127 6.98563 64.2292C7.01151 64.0231 7.14954 64.1347 7.24443 64.1433C8.98706 64.3581 10.5226 65.0281 11.8339 66.1878C11.9978 66.3253 12.1531 66.4713 12.3084 66.626Z" fill="#8CD19A"/>
<path d="M14.9137 58.8172C14.8275 58.7915 14.7671 58.7313 14.7412 58.6454C14.8879 58.5595 14.7843 58.4049 14.8361 58.2932C14.9569 58.4564 14.8965 58.6454 14.9137 58.8172Z" fill="#ACD9AE"/>
<path d="M18.7096 71.5053C18.7096 71.2819 18.7096 71.0671 18.7096 70.8438C18.8994 70.5345 18.8131 70.1737 18.8562 69.8473C19.0719 68.1121 19.5291 66.4455 20.1934 64.8391C20.4436 64.2206 20.7541 63.6279 21.0388 63.0265C21.5823 62.1675 22.1344 61.3256 22.7642 60.5267C22.816 60.4666 22.8591 60.3979 22.9367 60.3549C25.3436 57.606 28.2768 55.6474 31.8052 54.565C31.486 54.8485 31.1582 55.1148 30.8562 55.4069C28.8203 57.3569 27.5349 59.7536 26.5687 62.3565C26.1718 63.4131 25.8785 64.5041 25.6024 65.5951C25.6111 65.7583 25.5421 65.8871 25.4213 66.0074C23.972 67.3905 23.0661 69.0656 22.7124 71.0414C22.6866 71.2132 22.6607 71.385 22.514 71.5053C21.2459 71.5053 19.9777 71.5053 18.7096 71.5053Z" fill="#50AF5C"/>
<path d="M22.5054 71.5053C22.7556 69.8989 23.2904 68.4127 24.2912 67.1156C24.6017 66.7118 24.9209 66.2995 25.3091 65.9645C25.4299 65.8614 25.5162 65.7411 25.5938 65.6123C25.7405 65.7067 25.7922 65.5521 25.8699 65.5006C27.578 64.2034 29.5363 63.5935 31.6413 63.3702C31.7362 63.3616 31.8569 63.2499 31.8828 63.4475C30.6319 64.0574 29.683 65.0023 28.9411 66.1449C27.8713 67.777 27.2588 69.581 27.0777 71.5139C25.5507 71.5053 24.0324 71.5053 22.5054 71.5053Z" fill="#68BB6B"/>
<path d="M19 35C8.52358 35 0 43.523 0 54C0 64.477 8.523 73 19 73C29.477 73 38 64.477 38 54C38 43.523 29.4764 35 19 35ZM3.47996 54C3.47996 45.4422 10.4422 38.48 19 38.48C22.8558 38.48 26.3856 39.8969 29.1029 42.2337L7.23368 64.1029C4.89688 61.3856 3.47996 57.8558 3.47996 54ZM19 69.52C15.5502 69.52 12.3608 68.3873 9.78101 66.4762L31.4757 44.7816C33.3867 47.3614 34.5195 50.5508 34.5195 54.0006C34.52 62.5578 27.5578 69.52 19 69.52Z" fill="#C73838"/>
<g clip-path="url(#clip4_1_503)">
<path d="M201.73 114.127C216.278 107.503 230.825 100.879 245.372 94.2557C246.46 93.4569 246.512 92.4566 245.907 91.3508C245.462 90.3742 245.005 89.3697 244.56 88.3931C243.429 85.9097 242.311 83.4542 241.181 80.9709C239.199 76.618 237.217 72.2651 235.235 67.9123C233.786 64.7313 232.338 61.5504 230.89 58.3695C225.134 45.7294 219.379 33.0893 213.624 20.4493C212.5 19.984 211.425 19.3283 210.115 19.7899C209.997 21.0898 208.965 21.4925 207.986 21.9383C195.984 27.4028 184.011 32.8546 172.01 38.3191C170.975 38.7904 169.955 39.221 168.97 39.8039C168.159 40.1733 167.152 40.2613 166.865 41.3355C168.178 44.8137 169.883 48.1135 171.405 51.5304C172.305 53.5801 173.232 55.617 174.187 57.6412C174.304 57.8238 174.452 57.9251 174.655 58.0009C175.583 58.1847 176.359 57.663 177.114 57.3191C183.925 54.2518 190.738 51.1159 197.536 48.0206C198.04 47.7913 198.571 47.5493 199.1 47.3758C199.726 47.192 200.201 47.3461 200.552 47.8939C200.824 48.3427 201.027 48.7892 201.243 49.2635C206.427 60.648 211.623 72.0603 216.807 83.4447C217.849 85.7327 217.803 85.8547 215.537 86.8864C208.599 90.0454 201.633 93.2171 194.695 96.376C193.912 96.7327 192.996 96.9474 192.686 97.8973C193.118 99.5873 193.997 101.073 194.708 102.636C196.129 105.83 197.605 108.998 199.053 112.179C199.488 113.43 200.093 114.535 201.73 114.127Z" fill="#BCD5D1"/>
<path d="M174.414 57.8414C180.512 71.2349 186.623 84.6562 192.721 98.0497C200.834 94.3557 208.894 90.6187 217.032 86.9806C218.375 86.3692 218.601 85.8281 217.979 84.4608C212.345 72.2369 206.755 59.9596 201.234 47.6847C200.624 46.3454 200.054 46.133 198.712 46.7445C190.652 50.4815 182.527 54.1475 174.414 57.8414Z" fill="#DEF4EF"/>
<path d="M192.042 14.8131C191.379 14.5425 191.264 13.9208 191.01 13.3627C189.041 9.03778 187.072 4.71281 185.115 0.41575C180.275 2.61938 175.408 4.83574 170.568 7.03937C171.419 8.90887 172.271 10.7784 173.109 12.62C174.22 13.0573 175.098 12.3883 175.955 11.897C176.852 11.4208 177.661 11.12 178.368 12.0784C178.917 12.839 178.492 13.9084 177.406 14.6388C176.546 15.1986 175.305 15.292 174.89 16.4578C175.637 18.1727 176.412 19.8748 177.159 21.5896C177.698 22.2538 178.354 21.9887 178.97 21.7085C182.996 19.9428 186.996 18.1213 190.971 16.244C191.571 16.0044 192.202 15.6835 192.042 14.8131Z" fill="#DEF4EF"/>
<path d="M174.903 16.4859C175.966 16.0018 177.095 15.5888 178.079 15.0059C179.331 14.2677 179.69 12.7567 179.041 11.7043C178.378 10.6925 177.135 10.4838 175.967 11.1838L173.058 12.5086C173.642 13.7921 174.278 15.1872 174.903 16.4859Z" fill="#BDD5D1"/>
<path d="M192.042 14.813L177.144 21.6301C175.547 22.4247 173.845 23.0646 172.429 24.1813C167.784 27.7783 166.327 35.1118 169.186 40.2781C175.552 37.346 181.902 34.4546 188.268 31.5225C195.374 28.2871 202.495 25.011 209.626 21.8315C210.829 21.2837 211.233 20.7627 210.478 19.6241C207.289 14.8442 203 12.2492 197.072 13.0279C195.29 13.2669 193.728 14.2137 192.042 14.813Z" fill="#F39D00"/>
</g>
</g>
<defs>
<clipPath id="clip0_1_503">
<rect width="245" height="115" fill="white"/>
</clipPath>
<clipPath id="clip1_1_503">
<rect width="46" height="46" fill="white" transform="translate(50 64)"/>
</clipPath>
<clipPath id="clip2_1_503">
<rect width="38" height="38" fill="white" transform="translate(54 68)"/>
</clipPath>
<clipPath id="clip3_1_503">
<rect width="37.7541" height="37.7541" fill="white" transform="translate(97.8524 20.8525)"/>
</clipPath>
<clipPath id="clip4_1_503">
<rect width="51.7639" height="110.496" fill="white" transform="matrix(-0.9101 0.414388 0.414388 0.9101 201.328 -7)"/>
</clipPath>
</defs>
</svg>
