<svg width="180" height="105" viewBox="0 0 180 105" fill="none" xmlns="http://www.w3.org/2000/svg">
<path d="M0 40.7028C0 40.5798 0 40.4743 0 40.3513C0.245042 38.0138 1.61028 36.5375 3.62312 35.4654C6.03854 34.1825 8.40144 32.7765 10.7994 31.4935C12.2346 30.7202 13.0222 29.6657 12.8647 27.9961C12.8297 27.5919 12.8472 27.1701 12.8822 26.7658C12.8997 26.4143 12.9522 26.0628 13.3548 25.9047C13.7574 25.7816 14.1599 25.7816 14.5625 25.7816C20.321 25.7816 26.062 25.7816 31.8205 25.7816C32.223 25.7816 32.6431 25.7641 33.0282 25.8871C33.5183 26.0453 33.6583 26.4495 33.6933 26.924C33.7283 27.504 33.7283 28.1015 33.7108 28.6815C33.6408 30.7729 34.5334 32.3723 36.2662 33.4619C38.1215 34.6219 40.0819 35.606 41.9722 36.6957C43.0049 37.2932 44.0726 37.8381 45.0877 38.4708C46.0504 39.0683 46.558 39.9646 46.628 41.0894C46.698 42.1439 46.663 43.1984 46.6455 44.2529C46.628 44.6044 46.593 44.9735 46.1904 45.1317C45.7529 45.2371 45.3153 45.202 44.8777 45.202C30.4727 45.202 16.0678 45.202 1.68029 45.202C1.1902 45.202 0.682617 45.3074 0.227539 45.0438C-0.070012 44.2881 0.157527 43.4972 0.087515 42.7239C0.035006 42.0385 0.192533 41.3531 0 40.7028Z" fill="#F6BD57"/>
<path d="M49.2014 94.3066C49.2014 96.8023 49.2364 99.3155 49.2189 101.811C49.2014 103.235 48.2387 103.955 47.101 104.5C32.171 104.5 17.2234 104.5 2.29334 104.5C0.718074 104.131 0.157978 103.463 0.105469 101.917C0.105469 101.758 0.157978 101.618 0.262996 101.495C0.805589 101.073 1.4357 101.196 2.0308 101.196C13.3027 101.196 24.5747 101.196 35.8466 101.196C37.8594 101.196 39.8723 101.108 41.8676 101.214C44.2305 101.337 46.1209 99.2628 46.0684 97.0307C46.0508 96.4683 46.0508 95.9235 46.0859 95.3611C46.1034 94.9745 46.1034 94.5878 46.3659 94.2715C47.3111 93.8497 48.2562 93.7969 49.2014 94.3066Z" fill="#F4A34E"/>
<path d="M0 94.3066C0 77.9092 0 61.4941 0 45.0967C0.0524616 45.0791 0.12241 45.0791 0.174872 45.0615C0.262308 45.1318 0.332257 45.2197 0.384718 45.3427C0.542103 45.7997 0.507129 46.2742 0.507129 46.7311C0.507129 62.0565 0.507129 77.3819 0.507129 92.6897C0.507129 93.094 0.524616 93.5158 0.43718 93.92C0.402205 94.0254 0.367231 94.1309 0.297282 94.2363C0.227333 94.3242 0.12241 94.3594 0 94.3066Z" fill="#FCF1D5"/>
<path d="M0.157385 102.057C0.104923 102.057 0.0524616 102.057 0 102.04C0 99.4564 0 96.8904 0 94.3069C0.0524616 94.3069 0.12241 94.3069 0.174872 94.3069C0.489641 94.5881 0.489641 94.9747 0.489641 95.3614C0.507129 97.0837 0.489641 98.8061 0.489641 100.511C0.489641 100.933 0.384718 101.319 0.192359 101.688C0.192359 101.811 0.174872 101.934 0.157385 102.057Z" fill="#FBE4BD"/>
<path d="M0.175357 45.0969C0.12275 45.0969 0.0701427 45.0969 0 45.0969C0 43.6381 0 42.1618 0 40.7031C0.350714 41.3534 0.12275 42.0564 0.157821 42.7242C0.192893 43.4448 0.175357 44.183 0.192893 44.9035C0.2455 44.9738 0.2455 45.0441 0.175357 45.0969Z" fill="#FBE5BD"/>
<path d="M0.174805 45.0967C0.174805 45.0264 0.192308 44.9736 0.192308 44.9033C12.1819 44.9033 24.1714 44.9209 36.1435 44.9209C39.5566 44.9209 42.9697 44.9209 46.3827 44.9209C46.8203 44.5343 47.3629 44.6397 47.8705 44.6046C48.7982 44.5694 48.8507 44.5167 48.8682 43.6204C48.8857 43.0404 48.8507 42.4604 48.8857 41.8804C48.9032 41.5114 48.8682 41.1247 49.2182 40.8435C49.4808 42.2144 49.3057 43.5852 49.3057 44.9385C49.3057 45.3779 49.2182 45.8172 49.2182 46.239C49.2182 61.8983 49.2182 77.5577 49.2182 93.2346C49.2182 93.5861 49.2007 93.9376 49.2007 94.2891C48.2731 94.3066 47.3279 94.3066 46.4002 94.3242C46.3652 94.2891 46.3127 94.2363 46.2777 94.2012C45.9802 93.6564 46.0677 93.0588 46.0677 92.4788C46.0677 77.4346 46.0677 62.3904 46.0677 47.3287C46.0677 45.2197 46.2602 45.413 44.1248 45.413C30.0699 45.413 16.015 45.413 1.96011 45.413C1.34751 45.4306 0.699895 45.5536 0.174805 45.0967C0.192308 45.0967 0.174805 45.0967 0.174805 45.0967Z" fill="#F8CD84"/>
<path d="M49.2184 40.8437C49.2009 41.951 49.1659 43.0406 49.1834 44.1478C49.2009 44.7805 48.9734 44.9739 48.3783 44.9211C47.7132 44.886 47.0481 44.9036 46.3829 44.9036C46.3829 43.7085 46.3829 42.4958 46.3829 41.3007C46.3654 40.1056 45.8754 39.1741 44.8077 38.5766C42.1472 37.0827 39.4693 35.6064 36.8088 34.1125C34.6034 32.8823 33.3082 31.1248 33.4307 28.471C33.4657 27.6977 33.6233 26.8892 33.2732 26.1335C33.3257 26.1159 33.3957 26.0983 33.4482 26.0808C34.3759 25.659 35.3035 25.6238 36.2137 26.1159C36.2312 26.8716 36.2662 27.6449 36.2312 28.4007C36.1787 29.8594 36.8438 30.826 38.0865 31.5114C40.817 33.0053 43.5475 34.5343 46.2604 36.0809C48.0982 37.1178 49.0959 38.7172 49.2184 40.8437Z" fill="#F4A34E"/>
<path d="M0.209811 101.688C0.192308 99.2278 0.192308 96.7673 0.174805 94.3068L0.192308 94.3243C0.682392 93.8674 1.27749 93.9904 1.85509 93.9904C9.39889 93.9904 16.9602 93.9904 24.504 93.9904C31.2601 93.9904 38.0338 93.9904 44.79 93.9904C45.3326 93.9904 45.9102 93.9025 46.3827 94.3068V94.3419C46.3127 95.5897 46.4703 96.8376 46.2777 98.103C45.9802 99.878 43.9848 101.565 41.9545 101.565C28.4422 101.495 14.9298 101.53 1.41752 101.53C0.997446 101.513 0.577374 101.442 0.209811 101.688Z" fill="#F6BD57"/>
<path d="M46.3827 94.2888C38.7163 94.2888 31.05 94.3064 23.3662 94.3064C15.6299 94.3064 7.91106 94.3064 0.17473 94.3064C0.17473 86.2395 0.157227 78.155 0.157227 70.0881C0.157227 61.7575 0.157227 53.4094 0.157227 45.0789C15.1398 45.0789 30.1399 45.0789 45.1224 45.0789C46.3477 45.0789 46.3477 45.0789 46.3477 46.3091C46.3827 62.3199 46.3827 78.3132 46.3827 94.2888Z" fill="#FADD94"/>
<path d="M25.1549 74.6558C24.9856 74.6558 24.8145 74.6523 24.6435 74.6437L23.8612 74.6075L23.8251 73.822C23.691 70.9182 24.6951 68.2362 26.6535 66.2697C28.6119 64.3042 31.2803 63.2916 34.1741 63.4297L34.9563 63.4668L34.9933 64.2523C35.1274 67.1562 34.1225 69.8374 32.1649 71.8038C30.3225 73.6536 27.8492 74.6558 25.1549 74.6558Z" fill="#91CF96"/>
<path d="M25.097 67.1105L24.3319 66.7782C21.6127 65.5982 19.448 63.3142 18.3906 60.5122C17.322 57.6774 17.4449 54.5939 18.7371 51.829L19.0913 51.071L19.8564 51.4034C22.5747 52.5834 24.7403 54.8674 25.7968 57.6694C26.8662 60.5042 26.7433 63.5877 25.4512 66.3525L25.097 67.1105Z" fill="#91CF96"/>
<path d="M24.6621 78.961H24.6707H24.6621ZM24.191 79.8356C21.4959 79.8356 19.0234 78.8334 17.1811 76.9835C15.2236 75.0171 14.2186 72.3351 14.3527 69.4312L14.3888 68.6457L15.171 68.6095C18.0664 68.4739 20.734 69.4831 22.6924 71.4495C24.6508 73.4159 25.6549 76.0979 25.5208 79.001L25.4847 79.7874L24.7015 79.8236C24.5306 79.8312 24.3603 79.8356 24.191 79.8356Z" fill="#91CF96"/>
<path d="M24.6719 87.1568C24.1974 87.1568 23.8123 86.77 23.8123 86.2936V65.5763C23.8123 65.0999 24.1974 64.7131 24.6719 64.7131C25.1464 64.7131 25.5316 65.0999 25.5316 65.5763V86.2936C25.5316 86.77 25.1464 87.1568 24.6719 87.1568Z" fill="#5ABA63"/>
<path d="M24.6722 74.6557C24.4521 74.6557 24.232 74.5711 24.0644 74.4028C23.7282 74.0652 23.7282 73.5197 24.0644 73.1822L29.2303 67.9951C29.5664 67.6576 30.1106 67.6576 30.4458 67.9951C30.782 68.3318 30.782 68.8782 30.4458 69.2157L25.28 74.4028C25.1123 74.5711 24.8923 74.6557 24.6722 74.6557Z" fill="#5ABA63"/>
<path d="M24.6717 66.8499C24.3158 66.8499 23.9831 66.6263 23.8593 66.2689L21.1728 58.4914C21.0171 58.0408 21.2545 57.5496 21.7032 57.3925C22.1511 57.2354 22.6411 57.4745 22.7976 57.926L25.4841 65.7036C25.6397 66.1541 25.4024 66.6454 24.9537 66.8015C24.86 66.8344 24.7654 66.8499 24.6717 66.8499Z" fill="#5ABA63"/>
<path d="M24.6723 79.8352C24.4522 79.8352 24.2322 79.7506 24.0645 79.5823L18.9064 74.403C18.5703 74.0654 18.5703 73.5198 18.9064 73.1824C19.2426 72.8448 19.7859 72.8448 20.122 73.1824L25.2801 78.3617C25.6163 78.6993 25.6163 79.2448 25.2801 79.5823C25.1125 79.7506 24.8924 79.8352 24.6723 79.8352Z" fill="#5ABA63"/>
<path d="M65.3186 40.7028C65.3186 40.5798 65.3186 40.4743 65.3186 40.3513C65.5636 38.0138 66.9289 36.5375 68.9417 35.4654C71.3571 34.1825 73.72 32.7765 76.118 31.4935C77.5532 30.7202 78.3408 29.6657 78.1833 27.9961C78.1483 27.5919 78.1658 27.1701 78.2008 26.7658C78.2183 26.4143 78.2708 26.0628 78.6734 25.9047C79.076 25.7816 79.4785 25.7816 79.8811 25.7816C85.6396 25.7816 91.3806 25.7816 97.1391 25.7816C97.5416 25.7816 97.9617 25.7641 98.3468 25.8871C98.8369 26.0453 98.9769 26.4495 99.0119 26.924C99.0469 27.504 99.0469 28.1015 99.0294 28.6815C98.9594 30.7729 99.852 32.3722 101.585 33.4619C103.44 34.6218 105.4 35.606 107.291 36.6957C108.323 37.2932 109.391 37.8381 110.406 38.4708C111.369 39.0683 111.877 39.9646 111.947 41.0894C112.017 42.1439 111.982 43.1984 111.964 44.2529C111.947 44.6044 111.912 44.9735 111.509 45.1317C111.071 45.2371 110.634 45.202 110.196 45.202C95.7913 45.202 81.3864 45.202 66.9989 45.202C66.5088 45.202 66.0012 45.3074 65.5461 45.0438C65.2486 44.2881 65.4761 43.4972 65.4061 42.7239C65.3536 42.0385 65.5111 41.3531 65.3186 40.7028Z" fill="#F6BD57"/>
<path d="M114.52 94.3066C114.52 96.8023 114.555 99.3155 114.537 101.811C114.52 103.235 113.557 103.955 112.42 104.5C97.4896 104.5 82.542 104.5 67.6119 104.5C66.0367 104.131 65.4766 103.463 65.4241 101.917C65.4241 101.758 65.4766 101.618 65.5816 101.495C66.1242 101.073 66.7543 101.196 67.3494 101.196C78.6213 101.196 89.8933 101.196 101.165 101.196C103.178 101.196 105.191 101.108 107.186 101.214C109.549 101.337 111.439 99.2628 111.387 97.0307C111.369 96.4683 111.369 95.9235 111.404 95.3611C111.422 94.9745 111.422 94.5878 111.685 94.2715C112.63 93.8497 113.575 93.7969 114.52 94.3066Z" fill="#F4A34E"/>
<path d="M65.3186 94.3064C65.3186 77.9089 65.3186 61.4939 65.3186 45.0964C65.3711 45.0789 65.441 45.0789 65.4935 45.0613C65.5809 45.1316 65.6509 45.2195 65.7033 45.3425C65.8607 45.7994 65.8257 46.274 65.8257 46.7309C65.8257 62.0563 65.8257 77.3817 65.8257 92.6895C65.8257 93.0937 65.8432 93.5155 65.7558 93.9197C65.7208 94.0252 65.6858 94.1306 65.6159 94.2361C65.5459 94.324 65.441 94.3591 65.3186 94.3064Z" fill="#FCF1D5"/>
<path d="M65.476 102.057C65.4235 102.057 65.3711 102.057 65.3186 102.04C65.3186 99.4561 65.3186 96.8902 65.3186 94.3066C65.3711 94.3066 65.441 94.3066 65.4935 94.3066C65.8082 94.5878 65.8082 94.9745 65.8082 95.3611C65.8257 97.0835 65.8082 98.8058 65.8082 100.511C65.8082 100.932 65.7033 101.319 65.511 101.688C65.511 101.811 65.4935 101.934 65.476 102.057Z" fill="#FBE4BD"/>
<path d="M65.494 45.0966C65.4414 45.0966 65.3887 45.0966 65.3186 45.0966C65.3186 43.6379 65.3186 42.1616 65.3186 40.7029C65.6693 41.3532 65.4414 42.0562 65.4764 42.724C65.5115 43.4446 65.494 44.1827 65.5115 44.9033C65.5641 44.9736 65.5641 45.0439 65.494 45.0966Z" fill="#FBE5BD"/>
<path d="M65.4934 45.0964C65.4934 45.0261 65.5109 44.9734 65.5109 44.9031C77.5005 44.9031 89.49 44.9207 101.462 44.9207C104.875 44.9207 108.288 44.9207 111.701 44.9207C112.139 44.534 112.682 44.6395 113.189 44.6043C114.117 44.5692 114.169 44.5164 114.187 43.6201C114.204 43.0401 114.169 42.4602 114.204 41.8802C114.222 41.5111 114.187 41.1245 114.537 40.8433C114.799 42.2141 114.624 43.585 114.624 44.9382C114.624 45.3776 114.537 45.817 114.537 46.2388C114.537 61.8981 114.537 77.5574 114.537 93.2343C114.537 93.5858 114.519 93.9373 114.519 94.2888C113.592 94.3064 112.647 94.3064 111.719 94.3239C111.684 94.2888 111.631 94.2361 111.596 94.2009C111.299 93.6561 111.386 93.0585 111.386 92.4786C111.386 77.4344 111.386 62.3902 111.386 47.3284C111.386 45.2194 111.579 45.4128 109.443 45.4128C95.3885 45.4128 81.3336 45.4128 67.2787 45.4128C66.6661 45.4303 66.0185 45.5534 65.4934 45.0964C65.5109 45.0964 65.4934 45.0964 65.4934 45.0964Z" fill="#F8CD84"/>
<path d="M114.537 40.8432C114.52 41.9505 114.485 43.0401 114.502 44.1473C114.52 44.78 114.292 44.9734 113.697 44.9206C113.032 44.8855 112.367 44.9031 111.702 44.9031C111.702 43.708 111.702 42.4953 111.702 41.3002C111.684 40.1051 111.194 39.1736 110.126 38.5761C107.466 37.0822 104.788 35.6059 102.127 34.112C99.922 32.8818 98.6268 31.1243 98.7493 28.4705C98.7843 27.6972 98.9419 26.8887 98.5918 26.133C98.6443 26.1154 98.7143 26.0978 98.7668 26.0803C99.6945 25.6585 100.622 25.6233 101.532 26.1154C101.55 26.8711 101.585 27.6444 101.55 28.4002C101.497 29.8589 102.162 30.8255 103.405 31.5109C106.136 33.0048 108.866 34.5338 111.579 36.0804C113.417 37.1174 114.415 38.7167 114.537 40.8432Z" fill="#F4A34E"/>
<path d="M89.9979 14.5512C90.9955 14.5512 91.9932 14.5512 92.9734 14.5512C93.3234 14.9027 93.2709 15.3597 93.2709 15.7815C93.2884 17.4687 93.2709 19.1735 93.2709 20.8607C93.2709 21.2122 93.2709 21.5637 93.3234 21.9152C93.3934 22.4073 93.656 22.706 94.1636 22.7763C94.6887 22.8466 95.0737 22.6533 95.3013 22.1612C95.4763 21.7746 95.4588 21.3703 95.4588 20.9485C95.4763 19.2262 95.4588 17.5038 95.4588 15.7815C95.4588 15.3421 95.4063 14.9027 95.7563 14.5512C96.9816 14.5864 98.2418 14.3403 99.4495 14.6918C99.1169 15.1664 99.0469 15.6936 99.0469 16.256C99.0469 19.068 99.0469 21.8624 99.0469 24.6744C99.0469 25.1314 99.0994 25.6059 98.8544 26.0453C98.7844 26.1507 98.6793 26.1859 98.5743 26.1683C92.7458 26.1507 86.9173 26.1507 81.0888 26.1332C80.2137 26.1332 79.3385 26.1332 78.4634 26.1332C78.4634 23.1981 78.4109 20.2631 78.4459 17.3105C78.4809 15.676 79.7411 14.5512 81.4214 14.5512C81.6664 15.0258 81.5439 15.5354 81.5439 16.01C81.5614 17.5917 81.5439 19.1735 81.5439 20.7376C81.5439 21.177 81.5614 21.6164 81.7189 22.0382C81.9115 22.5654 82.2965 22.8115 82.8566 22.7763C83.4167 22.7412 83.6793 22.3897 83.8193 21.9152C83.9068 21.5812 83.8893 21.2122 83.8893 20.8782C83.8893 19.191 83.8893 17.4863 83.8893 15.7991C83.8893 15.3597 83.8368 14.9203 84.1869 14.5512C85.1845 14.5512 86.1822 14.5512 87.1624 14.5512C87.5124 14.9027 87.4599 15.3597 87.4599 15.7815C87.4774 17.4687 87.4599 19.1735 87.4599 20.8607C87.4599 21.2122 87.4599 21.5637 87.5124 21.9152C87.5824 22.4073 87.845 22.706 88.3526 22.7763C88.8777 22.8466 89.2627 22.6533 89.4903 22.1612C89.6653 21.7746 89.6478 21.3703 89.6478 20.9485C89.6653 19.2262 89.6478 17.5038 89.6478 15.7815C89.7003 15.3597 89.6478 14.9027 89.9979 14.5512Z" fill="#5F5260"/>
<path d="M101.532 26.1157C100.605 26.0981 99.6769 26.0981 98.7668 26.0805C98.7668 22.5656 98.7668 19.0506 98.7493 15.5356C98.7493 14.9907 98.8018 14.5865 99.4844 14.6744C100.745 15.061 101.55 15.9925 101.55 17.2579C101.567 20.2281 101.532 23.1631 101.532 26.1157Z" fill="#4D3E4F"/>
<path d="M84.222 14.551C84.222 16.8182 84.222 19.1029 84.222 21.3701C84.222 22.5476 83.7844 23.11 82.8917 23.1276C81.8241 23.1628 81.3165 22.6707 81.264 21.4228C81.2115 20.1047 81.2115 18.8042 81.264 17.486C81.299 16.5018 81.0539 15.5001 81.4215 14.551C82.3667 14.551 83.2943 14.551 84.222 14.551Z" fill="#4D3E4F"/>
<path d="M89.998 14.551C89.998 16.8885 90.0155 19.226 89.998 21.5634C89.998 22.6004 89.4904 23.1452 88.5627 23.1452C87.6 23.1452 87.1975 22.7585 87.1975 21.7392C87.18 19.349 87.1975 16.9412 87.1975 14.551C88.1426 14.551 89.0703 14.551 89.998 14.551Z" fill="#4D3E4F"/>
<path d="M95.7743 14.551C95.7743 16.8885 95.7918 19.226 95.7743 21.5634C95.7743 22.6004 95.2667 23.1452 94.3391 23.1452C93.3764 23.1452 92.9738 22.7585 92.9738 21.7392C92.9563 19.349 92.9738 16.9412 92.9738 14.551C93.919 14.551 94.8467 14.551 95.7743 14.551Z" fill="#4D3E4F"/>
<path d="M65.5284 101.688C65.5109 99.2275 65.5109 96.767 65.4934 94.3065L65.5109 94.3241C66.001 93.8671 66.5961 93.9902 67.1737 93.9902C74.7175 93.9902 82.2788 93.9902 89.8226 93.9902C96.5787 93.9902 103.352 93.9902 110.109 93.9902C110.651 93.9902 111.229 93.9023 111.701 94.3065V94.3417C111.631 95.5895 111.789 96.8373 111.596 98.1027C111.299 99.8778 109.303 101.565 107.273 101.565C93.7608 101.495 80.2484 101.53 66.7361 101.53C66.316 101.512 65.896 101.442 65.5284 101.688Z" fill="#F6BD57"/>
<path d="M111.701 94.289C104.035 94.289 96.3686 94.3066 88.6848 94.3066C80.9485 94.3066 73.2297 94.3066 65.4933 94.3066C65.4933 86.2397 65.4758 78.1552 65.4758 70.0883C65.4758 61.7578 65.4758 53.4096 65.4758 45.0791C80.4584 45.0791 95.4585 45.0791 110.441 45.0791C111.666 45.0791 111.666 45.0791 111.666 46.3094C111.701 62.3202 111.701 78.3134 111.701 94.289Z" fill="#FADD94"/>
<path d="M80.3912 53.9116C79.1196 62.8635 82.0425 66.2212 90.9784 67.4401C92.2499 58.4883 89.3271 55.1306 80.3912 53.9116Z" fill="#81C784"/>
<path d="M90.3596 66.8297C97.7571 71.9746 102.053 70.8483 107.137 63.3608C99.739 58.2159 95.443 59.3421 90.3596 66.8297Z" fill="#81C784"/>
<path d="M88.3736 88.9832C87.9288 88.9832 87.5445 88.6464 87.4911 88.1869C86.4876 79.6615 88.4866 68.647 90.2488 65.1034C90.4703 64.6592 91.0058 64.4776 91.4435 64.7034C91.882 64.9282 92.0591 65.4716 91.8376 65.9158C90.3618 68.8825 88.2614 79.5106 89.2578 87.9738C89.3165 88.4686 88.9678 88.9182 88.4794 88.9768C88.4439 88.9815 88.4083 88.9832 88.3736 88.9832Z" fill="#4CAF50"/>
<path d="M130.637 40.7028C130.637 40.5798 130.637 40.4743 130.637 40.3513C130.882 38.0138 132.247 36.5375 134.26 35.4654C136.675 34.1825 139.038 32.7765 141.436 31.4935C142.871 30.7202 143.659 29.6657 143.501 27.9961C143.466 27.5919 143.484 27.1701 143.519 26.7658C143.536 26.4143 143.589 26.0628 143.992 25.9047C144.394 25.7816 144.797 25.7816 145.199 25.7816C150.958 25.7816 156.699 25.7816 162.457 25.7816C162.86 25.7816 163.28 25.7641 163.665 25.8871C164.155 26.0453 164.295 26.4495 164.33 26.924C164.365 27.504 164.365 28.1015 164.348 28.6815C164.277 30.7729 165.17 32.3723 166.903 33.4619C168.758 34.6219 170.719 35.606 172.609 36.6957C173.642 37.2932 174.709 37.8381 175.724 38.4708C176.687 39.0683 177.195 39.9646 177.265 41.0894C177.335 42.1439 177.3 43.1984 177.282 44.2529C177.265 44.6044 177.23 44.9735 176.827 45.1317C176.39 45.2371 175.952 45.202 175.514 45.202C161.109 45.202 146.704 45.202 132.317 45.202C131.827 45.202 131.319 45.3074 130.864 45.0438C130.567 44.2881 130.794 43.4972 130.724 42.7239C130.672 42.0385 130.829 41.3531 130.637 40.7028Z" fill="#F6BD57"/>
<path d="M179.838 94.3066C179.838 96.8023 179.873 99.3155 179.856 101.811C179.838 103.235 178.875 103.955 177.738 104.5C162.808 104.5 147.86 104.5 132.93 104.5C131.355 104.131 130.795 103.463 130.742 101.917C130.742 101.758 130.795 101.618 130.9 101.495C131.442 101.073 132.072 101.196 132.668 101.196C143.939 101.196 155.211 101.196 166.483 101.196C168.496 101.196 170.509 101.108 172.504 101.214C174.867 101.337 176.758 99.2628 176.705 97.0307C176.688 96.4683 176.688 95.9235 176.723 95.3611C176.74 94.9745 176.74 94.5878 177.003 94.2715C177.948 93.8497 178.893 93.7969 179.838 94.3066Z" fill="#F4A34E"/>
<path d="M130.637 94.3066C130.637 77.9092 130.637 61.4941 130.637 45.0967C130.689 45.0791 130.759 45.0791 130.812 45.0615C130.899 45.1318 130.969 45.2197 131.021 45.3427C131.179 45.7997 131.144 46.2742 131.144 46.7311C131.144 62.0565 131.144 77.3819 131.144 92.6897C131.144 93.094 131.161 93.5158 131.074 93.92C131.039 94.0254 131.004 94.1309 130.934 94.2363C130.864 94.3242 130.759 94.3594 130.637 94.3066Z" fill="#FCF1D5"/>
<path d="M130.794 102.057C130.742 102.057 130.689 102.057 130.637 102.04C130.637 99.4561 130.637 96.8902 130.637 94.3066C130.689 94.3066 130.759 94.3066 130.812 94.3066C131.126 94.5878 131.126 94.9745 131.126 95.3611C131.144 97.0835 131.126 98.8058 131.126 100.511C131.126 100.932 131.021 101.319 130.829 101.688C130.829 101.811 130.812 101.934 130.794 102.057Z" fill="#FBE4BD"/>
<path d="M130.812 45.0966C130.759 45.0966 130.707 45.0966 130.637 45.0966C130.637 43.6379 130.637 42.1616 130.637 40.7029C130.987 41.3532 130.759 42.0562 130.795 42.724C130.83 43.4446 130.812 44.1827 130.83 44.9033C130.882 44.9736 130.882 45.0439 130.812 45.0966Z" fill="#FBE5BD"/>
<path d="M130.812 45.0964C130.812 45.0261 130.829 44.9734 130.829 44.9031C142.819 44.9031 154.808 44.9207 166.78 44.9207C170.193 44.9207 173.606 44.9207 177.019 44.9207C177.457 44.534 178 44.6395 178.507 44.6043C179.435 44.5692 179.487 44.5164 179.505 43.6201C179.522 43.0401 179.487 42.4602 179.522 41.8802C179.54 41.5111 179.505 41.1245 179.855 40.8433C180.117 42.2141 179.942 43.585 179.942 44.9382C179.942 45.3776 179.855 45.817 179.855 46.2388C179.855 61.8981 179.855 77.5574 179.855 93.2343C179.855 93.5858 179.837 93.9373 179.837 94.2888C178.91 94.3064 177.965 94.3064 177.037 94.324C177.002 94.2888 176.949 94.2361 176.914 94.2009C176.617 93.6561 176.704 93.0586 176.704 92.4786C176.704 77.4344 176.704 62.3902 176.704 47.3284C176.704 45.2194 176.897 45.4128 174.762 45.4128C160.707 45.4128 146.652 45.4128 132.597 45.4128C131.984 45.4303 131.337 45.5534 130.812 45.0964C130.829 45.0964 130.812 45.0964 130.812 45.0964Z" fill="#F8CD84"/>
<path d="M179.855 40.8435C179.838 41.9507 179.803 43.0404 179.82 44.1476C179.838 44.7803 179.61 44.9736 179.015 44.9209C178.35 44.8857 177.685 44.9033 177.02 44.9033C177.02 43.7082 177.02 42.4956 177.02 41.3005C177.002 40.1054 176.512 39.1739 175.445 38.5763C172.784 37.0825 170.106 35.6062 167.446 34.1123C165.24 32.882 163.945 31.1245 164.068 28.4707C164.103 27.6974 164.26 26.889 163.91 26.1332C163.963 26.1157 164.033 26.0981 164.085 26.0805C165.013 25.6587 165.941 25.6236 166.851 26.1157C166.868 26.8714 166.903 27.6447 166.868 28.4004C166.816 29.8591 167.481 30.8258 168.723 31.5112C171.454 33.0051 174.184 34.5341 176.897 36.0807C178.735 37.1176 179.733 38.7169 179.855 40.8435Z" fill="#F4A34E"/>
<path d="M155.316 14.5512C156.314 14.5512 157.311 14.5512 158.291 14.5512C158.642 14.9027 158.589 15.3597 158.589 15.7815C158.607 17.4687 158.589 19.1735 158.589 20.8607C158.589 21.2122 158.589 21.5637 158.642 21.9152C158.712 22.4073 158.974 22.706 159.482 22.7763C160.007 22.8466 160.392 22.6533 160.619 22.1612C160.794 21.7746 160.777 21.3703 160.777 20.9485C160.794 19.2262 160.777 17.5038 160.777 15.7815C160.777 15.3421 160.724 14.9027 161.074 14.5512C162.3 14.5864 163.56 14.3403 164.768 14.6918C164.435 15.1664 164.365 15.6936 164.365 16.256C164.365 19.068 164.365 21.8624 164.365 24.6744C164.365 25.1314 164.418 25.6059 164.172 26.0453C164.102 26.1507 163.997 26.1859 163.892 26.1683C158.064 26.1507 152.235 26.1507 146.407 26.1332C145.532 26.1332 144.657 26.1332 143.781 26.1332C143.781 23.1981 143.729 20.2631 143.764 17.3105C143.799 15.676 145.059 14.5512 146.739 14.5512C146.985 15.0258 146.862 15.5354 146.862 16.01C146.88 17.5917 146.862 19.1735 146.862 20.7376C146.862 21.177 146.88 21.6164 147.037 22.0382C147.23 22.5654 147.615 22.8115 148.175 22.7763C148.735 22.7412 148.997 22.3897 149.137 21.9152C149.225 21.5812 149.207 21.2122 149.207 20.8782C149.207 19.191 149.207 17.4863 149.207 15.7991C149.207 15.3597 149.155 14.9203 149.505 14.5512C150.503 14.5512 151.5 14.5512 152.48 14.5512C152.831 14.9027 152.778 15.3597 152.778 15.7815C152.796 17.4687 152.778 19.1735 152.778 20.8607C152.778 21.2122 152.778 21.5637 152.831 21.9152C152.901 22.4073 153.163 22.706 153.671 22.7763C154.196 22.8466 154.581 22.6533 154.808 22.1612C154.983 21.7746 154.966 21.3703 154.966 20.9485C154.983 19.2262 154.966 17.5038 154.966 15.7815C155.018 15.3597 154.966 14.9027 155.316 14.5512Z" fill="#5F5260"/>
<path d="M166.85 26.1157C165.923 26.0981 164.995 26.0981 164.085 26.0806C164.085 22.5656 164.085 19.0506 164.067 15.5356C164.067 14.9907 164.12 14.5865 164.803 14.6744C166.063 15.061 166.868 15.9925 166.868 17.2579C166.885 20.2281 166.85 23.1631 166.85 26.1157Z" fill="#4D3E4F"/>
<path d="M149.54 14.5513C149.54 16.8184 149.54 19.1032 149.54 21.3704C149.54 22.5479 149.103 23.1103 148.21 23.1279C147.142 23.163 146.635 22.6709 146.582 21.4231C146.53 20.105 146.53 18.8044 146.582 17.4863C146.617 16.5021 146.372 15.5003 146.74 14.5513C147.685 14.5513 148.612 14.5513 149.54 14.5513Z" fill="#4D3E4F"/>
<path d="M155.316 14.5513C155.316 16.8887 155.334 19.2262 155.316 21.5637C155.316 22.6006 154.808 23.1454 153.881 23.1454C152.918 23.1454 152.516 22.7588 152.516 21.7394C152.498 19.3492 152.516 16.9415 152.516 14.5513C153.461 14.5513 154.388 14.5513 155.316 14.5513Z" fill="#4D3E4F"/>
<path d="M161.092 14.5513C161.092 16.8887 161.11 19.2262 161.092 21.5637C161.092 22.6006 160.585 23.1454 159.657 23.1454C158.695 23.1454 158.292 22.7588 158.292 21.7394C158.274 19.3492 158.292 16.9415 158.292 14.5513C159.237 14.5513 160.165 14.5513 161.092 14.5513Z" fill="#4D3E4F"/>
<path d="M130.847 101.688C130.829 99.2275 130.829 96.767 130.812 94.3065L130.829 94.3241C131.319 93.8671 131.914 93.9902 132.492 93.9902C140.036 93.9902 147.597 93.9902 155.141 93.9902C161.897 93.9902 168.671 93.9902 175.427 93.9902C175.969 93.9902 176.547 93.9023 177.019 94.3065V94.3417C176.949 95.5895 177.107 96.8373 176.914 98.1027C176.617 99.8778 174.622 101.565 172.591 101.565C159.079 101.495 145.567 101.53 132.054 101.53C131.634 101.512 131.214 101.442 130.847 101.688Z" fill="#F6BD57"/>
<path d="M177.019 94.2888C169.353 94.2888 161.687 94.3064 154.003 94.3064C146.267 94.3064 138.548 94.3064 130.811 94.3064C130.811 86.2395 130.794 78.155 130.794 70.0881C130.794 61.7575 130.794 53.4094 130.794 45.0789C145.777 45.0789 160.777 45.0789 175.759 45.0789C176.984 45.0789 176.984 45.0789 176.984 46.3091C177.019 62.3199 177.019 78.3132 177.019 94.2888Z" fill="#FADD94"/>
<path d="M152.513 59.5046C152.527 59.5046 152.541 59.5046 152.559 59.5046C152.638 59.5696 152.684 59.6578 152.73 59.7506C153.6 61.5236 154.295 63.3616 154.795 65.2784C155.193 66.8008 155.461 68.3417 155.623 69.9059C155.739 71.043 155.743 72.1894 155.725 73.3312C155.693 75.4569 155.443 77.5548 154.808 79.5923C154.559 80.3906 154.239 81.1611 153.716 81.8294C153.471 82.145 153.161 82.3539 152.79 82.4838C152.758 82.4838 152.73 82.4838 152.698 82.4838C152.573 82.4467 152.453 82.4467 152.328 82.4838C152.295 82.4838 152.267 82.4838 152.235 82.4838C151.675 82.2936 151.319 81.8712 151.022 81.3931C150.462 80.4788 150.152 79.467 149.912 78.432C149.634 77.2484 149.476 76.0463 149.384 74.8349C149.301 73.7767 149.268 72.7185 149.305 71.6649C149.407 69.089 149.814 66.5641 150.583 64.0996C151.046 62.619 151.61 61.1848 152.295 59.797C152.351 59.6857 152.397 59.5696 152.513 59.5046Z" fill="#785353"/>
<path d="M152.79 82.4837C152.887 82.3212 153.086 82.3212 153.225 82.2145C153.744 81.8153 154.054 81.2723 154.318 80.6968C154.794 79.6618 155.063 78.5664 155.271 77.4525C155.387 76.8259 155.456 76.1947 155.53 75.5635C155.692 74.1896 155.674 72.8065 155.655 71.428C155.641 70.6065 155.549 69.7897 155.447 68.9728C155.317 67.9099 155.118 66.8656 154.873 65.826C154.651 64.8884 154.378 63.9694 154.058 63.0597C153.637 61.8762 153.147 60.7205 152.586 59.5927C152.573 59.5648 152.573 59.5323 152.563 59.5045C152.772 59.4813 152.929 59.588 153.082 59.7133C154.276 60.6787 155.373 61.7416 156.373 62.9066C156.442 62.9855 156.493 63.0829 156.595 63.1386C156.72 63.1943 156.785 63.315 156.868 63.4171C157.595 64.3361 158.266 65.2922 158.812 66.3319C158.849 66.4015 158.895 66.4618 158.932 66.5268C159.719 68.0538 160.261 69.6551 160.441 71.3677C160.515 72.0593 160.524 72.7555 160.45 73.4517C160.261 75.6749 159.576 77.717 158.21 79.504C158.081 79.6757 157.942 79.8428 157.794 79.9959C157.719 80.0748 157.641 80.1491 157.618 80.2605C157.456 80.2976 157.335 80.3904 157.215 80.5018C156.178 81.4672 154.984 82.1217 153.577 82.3723C153.364 82.4094 153.137 82.3909 152.934 82.4837C152.883 82.4837 152.836 82.4837 152.79 82.4837Z" fill="#9A7863"/>
<path d="M152.512 59.5045C151.823 60.8551 151.244 62.2475 150.777 63.6863C150.314 65.1158 149.957 66.5686 149.731 68.0538C149.606 68.8753 149.513 69.6968 149.444 70.523C149.36 71.5626 149.333 72.6069 149.374 73.6419C149.416 74.7141 149.508 75.7862 149.68 76.8491C149.837 77.8238 150.032 78.7845 150.346 79.7221C150.578 80.4183 150.846 81.1006 151.309 81.6854C151.536 81.9685 151.786 82.233 152.133 82.3769C152.184 82.4001 152.235 82.414 152.239 82.479C152.179 82.479 152.114 82.479 152.054 82.479C151.744 82.4233 151.429 82.428 151.119 82.3584C149.374 81.9499 148.009 80.966 146.912 79.5828C145.602 77.9398 144.903 76.0322 144.653 73.9576C144.621 73.693 144.644 73.4192 144.598 73.1546C144.598 73.0293 144.598 72.9086 144.598 72.7833C144.635 72.5512 144.635 72.3192 144.598 72.0871C144.598 72.0082 144.598 71.9339 144.598 71.855C144.699 71.6044 144.672 71.3306 144.709 71.0706C145.037 68.6247 146.051 66.4664 147.463 64.4707C148.736 62.6698 150.258 61.1011 151.971 59.7087C152.128 59.5834 152.295 59.4766 152.512 59.5045Z" fill="#9A7863"/>
<path d="M144.598 72.0872C144.672 72.3192 144.672 72.5513 144.598 72.7834C144.598 72.5513 144.598 72.3192 144.598 72.0872Z" fill="#DEC3A0"/>
<path d="M152.327 82.4836C152.452 82.414 152.572 82.4186 152.697 82.4836C152.572 82.4836 152.452 82.4836 152.327 82.4836Z" fill="#CAA87D"/>
<path d="M157.613 80.2605C157.446 80.1538 157.631 80.0888 157.663 80.047C157.816 79.8428 158.001 79.6711 158.159 79.4669C159.168 78.158 159.802 76.6774 160.154 75.0669C160.269 74.5424 160.334 74.0087 160.385 73.4749C160.524 73.2197 160.746 73.034 160.94 72.8251C162.445 71.1868 163.736 69.3906 164.824 67.4505C165.689 65.9049 166.411 64.2897 166.971 62.6049C167.008 62.4889 167.032 62.3636 167.115 62.2661C167.124 62.2615 167.133 62.2522 167.143 62.2476C167.305 62.3775 167.36 62.5539 167.383 62.7535C167.564 64.4104 167.578 66.0674 167.43 67.729C167.277 69.3952 166.957 71.0289 166.36 72.5977C165.009 76.1344 162.621 78.6268 159.024 79.8985C158.561 80.0563 158.094 80.1956 157.613 80.2605Z" fill="#8C695C"/>
<path d="M158.853 66.5176C158.575 66.0581 158.326 65.5801 158.029 65.1298C157.622 64.5125 157.192 63.9185 156.733 63.3429C156.682 63.278 156.636 63.2037 156.59 63.1387C157.96 62.5864 159.385 62.2522 160.848 62.0619C162.459 61.8484 164.069 61.8206 165.689 61.9273C166.018 61.9505 166.351 61.983 166.68 62.0202C166.856 62.0387 167.022 62.1037 167.143 62.2522L167.134 62.2661C167.078 62.3543 166.985 62.3729 166.897 62.4007C165.597 62.8185 164.343 63.3429 163.121 63.9602C161.727 64.6611 160.404 65.4779 159.145 66.4016C159.052 66.4573 158.983 66.5547 158.853 66.5176Z" fill="#8C695C"/>
<path d="M158.854 66.5176C159.34 66.1788 159.821 65.8307 160.316 65.5104C161.719 64.5961 163.181 63.7978 164.727 63.148C165.514 62.8184 166.31 62.5121 167.125 62.2615C166.893 63.0876 166.574 63.8813 166.25 64.6703C165.935 65.4361 165.569 66.1741 165.181 66.9028C164.477 68.2256 163.686 69.488 162.783 70.6808C162.089 71.6045 161.344 72.4817 160.552 73.3218C160.501 73.3775 160.436 73.4239 160.381 73.4749C160.362 73.15 160.432 72.8298 160.427 72.5049C160.409 70.8386 160.062 69.242 159.4 67.7104C159.228 67.3112 159.039 66.9167 158.854 66.5176Z" fill="#785353"/>
<rect x="13" y="19.5" width="23" height="7" fill="#F4A34E"/>
<rect x="12" y="25.5" width="25" height="1" fill="#F6BD57"/>
<rect x="12" y="23.5" width="25" height="1" fill="#F6BD57"/>
<rect x="12" y="21.5" width="25" height="1" fill="#F6BD57"/>
<rect x="12" y="19.5" width="25" height="1" fill="#F6BD57"/>
<path d="M29.8562 4.52619C30.793 4.8694 31.7298 5.2126 32.6501 5.54978C32.8579 6.00025 32.6514 6.41125 32.5063 6.80731C31.9424 8.39755 31.3395 9.99226 30.7591 11.5765C30.6381 11.9065 30.5172 12.2366 30.4456 12.5847C30.3421 13.0708 30.4858 13.4417 30.9382 13.6823C31.4071 13.929 31.8352 13.8799 32.2181 13.4961C32.5155 13.1933 32.6381 12.8077 32.7832 12.4116C33.3921 10.8004 33.9682 9.17718 34.5607 7.55995C34.7118 7.14739 34.8137 6.71677 35.2633 6.50714C36.4016 6.96163 37.6696 7.16411 38.6826 7.90962C38.2071 8.24078 37.96 8.71177 37.7666 9.23984C36.7992 11.8802 35.8379 14.5041 34.8706 17.1445C34.7134 17.5735 34.5995 18.0372 34.2182 18.3654C34.1162 18.4403 34.0055 18.4372 33.9129 18.3846C28.4462 16.3631 22.9734 14.358 17.5067 12.3365C16.685 12.0354 15.8632 11.7344 15.0415 11.4333C16.0512 8.67743 17.0115 5.90347 18.0601 3.14312C18.6552 1.62045 20.2255 0.997816 21.8032 1.57584C21.8701 2.1057 21.5797 2.54212 21.4164 2.98769C20.8887 4.47892 20.3282 5.95811 19.7901 7.42682C19.639 7.83938 19.5042 8.25796 19.5071 8.7082C19.5065 9.26951 19.7834 9.633 20.3214 9.79268C20.8594 9.95235 21.2268 9.71262 21.5215 9.31522C21.7186 9.03178 21.8291 8.67921 21.944 8.36567C22.5244 6.78144 23.1108 5.18071 23.6912 3.59649C23.8424 3.18393 23.9442 2.75331 24.3999 2.52718C25.3367 2.87038 26.2735 3.21359 27.1938 3.55077C27.4016 4.00124 27.1951 4.41224 27.05 4.8083C26.486 6.39854 25.8831 7.99325 25.3027 9.57747C25.1818 9.90752 25.0609 10.2376 24.9893 10.5857C24.8857 11.0718 25.0295 11.4427 25.4819 11.6833C25.9508 11.93 26.3788 11.8809 26.7618 11.4971C27.0591 11.1943 27.1817 10.8087 27.3268 10.4126C27.9358 8.80142 28.5118 7.17817 29.1043 5.56094C29.2987 5.18294 29.4066 4.73582 29.8562 4.52619Z" fill="#5F5260"/>
<path d="M36.7085 19.3528C35.8435 19.0172 34.9725 18.6981 34.1239 18.3685C35.3331 15.068 36.5423 11.7675 37.735 8.46103C37.9224 7.94945 38.1108 7.58796 38.7215 7.9053C39.7718 8.70187 40.2074 9.85347 39.7721 11.0416C38.7668 13.8366 37.7242 16.5804 36.7085 19.3528Z" fill="#4D3E4F"/>
<path d="M24.4328 2.53942C23.6529 4.66822 22.8669 6.81353 22.087 8.94233C21.6819 10.048 21.0776 10.4255 20.2334 10.135C19.2188 9.80068 18.9114 9.164 19.2914 7.97427C19.6955 6.71853 20.1429 5.49735 20.6457 4.27774C21.0171 3.36565 21.1316 2.34072 21.8032 1.57604C22.6907 1.90118 23.5618 2.2203 24.4328 2.53942Z" fill="#4D3E4F"/>
<path d="M29.8566 4.52636C29.0525 6.72117 28.2648 8.92201 27.4443 11.1108C27.0876 12.0844 26.4235 12.4214 25.5525 12.1023C24.6486 11.7711 24.4036 11.2696 24.7543 10.3124C25.5601 8.0621 26.4048 5.8073 27.227 3.56298C28.1145 3.88812 28.9856 4.20724 29.8566 4.52636Z" fill="#4D3E4F"/>
<path d="M35.2804 6.51342C34.4763 8.70823 33.6887 10.9091 32.8681 13.0979C32.5114 14.0715 31.8474 14.4085 30.9763 14.0893C30.0724 13.7582 29.8274 13.2566 30.1781 12.2995C30.9839 10.0492 31.8286 7.79436 32.6509 5.55004C33.5383 5.87518 34.4094 6.1943 35.2804 6.51342Z" fill="#4D3E4F"/>
</svg>
