<svg width="208" height="91" viewBox="0 0 208 91" fill="none" xmlns="http://www.w3.org/2000/svg">
<g clip-path="url(#clip0_1_470)">
<path d="M30.7659 55.5636C32.5296 55.5636 34.2823 55.5748 36.046 55.5636C36.5862 55.5636 37.0381 55.6416 37.2476 56.2202C37.4129 56.7099 37.2255 57.0771 36.6192 57.4889C25.596 57.4889 14.5727 57.4889 3.54949 57.4889C3.25186 57.2997 2.96526 57.1105 2.88809 56.721C2.76684 56.0644 3.19675 55.5748 3.9353 55.5748C5.78721 55.5636 7.63911 55.5636 9.49102 55.5636C9.63432 55.4635 9.79967 55.4412 9.96502 55.4412C13.3381 55.4635 16.7002 55.3745 20.0623 55.4301C21.6827 55.4079 23.3031 55.4079 24.9236 55.4301C26.6763 55.3967 28.429 55.419 30.1927 55.419C30.3911 55.419 30.5895 55.4301 30.7659 55.5636Z" fill="#785353"/>
<path d="M45.4378 0.856083C43.4647 2.51422 41.5687 4.26139 39.849 6.19775C36.3436 10.1484 33.5548 14.5664 31.3391 19.3627C28.7707 24.927 27.0511 30.7694 25.9708 36.801C25.7283 38.1698 25.5629 39.5386 25.3645 40.9186C25.2653 41.0744 25.4196 41.2413 25.3645 41.3971C24.7141 42.4209 23.9425 43.3668 23.3472 44.424C23.2811 44.5464 23.1598 44.7579 22.9835 44.5019C22.7299 43.2444 22.763 41.9646 22.6197 40.696C22.2008 37.1237 21.4182 33.6294 20.3489 30.2018C20.2607 29.9348 20.1725 29.6788 20.1725 29.3895C20.2938 27.1638 20.7568 24.9937 21.341 22.8571C21.826 21.0654 22.5315 19.3627 23.3031 17.6823C23.3913 17.5043 23.4575 17.304 23.6559 17.2038C24.0527 16.5361 24.4385 15.8684 24.8464 15.2118C28.2857 9.56967 33.18 5.63019 39.0664 2.85921C40.8632 2.01344 42.7261 1.32348 44.6442 0.822698C44.8205 0.778184 44.9969 0.755927 45.1843 0.711413C45.3055 0.678028 45.4378 0.633514 45.4378 0.856083Z" fill="#79C800"/>
<path d="M20.2938 29.3227C20.404 30.2464 20.7678 31.0922 21.0213 31.9824C21.7489 34.5531 22.289 37.146 22.6417 39.8057C22.8512 41.3971 22.9504 42.9885 23.0606 44.5798C23.215 44.7913 23.0827 44.9693 22.9945 45.1474C21.4953 48.0186 20.6355 51.0677 20.3379 54.295C20.3269 54.4731 20.3269 54.6734 20.1064 54.7513C19.8308 54.7068 19.8529 54.4731 19.8308 54.2727C19.4891 49.6656 18.2104 45.3366 16.1601 41.2191C15.8184 40.5291 15.3444 39.9059 15.1129 39.1492C15.1239 38.9155 15.2562 38.6818 15.1349 38.4481C14.4074 28.132 11.6516 18.4613 6.07381 9.60309C6.60292 9.81453 6.9226 10.1706 7.27534 10.4711C10.7366 13.3979 13.6578 16.7921 16.0609 20.6537C16.138 20.7761 16.2372 20.8874 16.3254 20.9986C16.8986 21.5884 17.2073 22.3452 17.5931 23.0463C18.497 24.7378 19.2907 26.485 19.9631 28.2767C20.0954 28.6216 20.1395 28.9889 20.2938 29.3227Z" fill="#79C800"/>
<path d="M15.2231 39.1269C15.4546 39.7501 15.8404 40.2954 16.1491 40.8852C17.7474 44.0012 18.8938 47.2841 19.5222 50.745C19.7426 51.958 19.9631 53.171 19.9741 54.4174C19.9741 54.5287 19.9851 54.64 20.0844 54.7179C20.2938 55.0072 20.2938 55.2854 20.0844 55.5748C16.5569 55.6081 13.0295 55.6304 9.50204 55.5748C9.50204 55.5414 9.51306 55.5191 9.53511 55.4969C9.74455 55.2966 10.0201 55.3411 10.2626 55.3411C11.6185 55.3411 12.9744 55.3411 14.3302 55.3411C14.9034 55.3411 14.9475 55.2854 14.7822 54.7401C14.242 52.9151 13.4263 51.2347 12.1917 49.7768C12.0594 49.621 11.9161 49.4764 11.9272 49.2538C11.7728 47.5178 11.398 45.8262 10.9571 44.1458C9.65636 39.1714 7.55092 34.6199 4.29907 30.6581C3.1747 29.2893 1.91805 28.0429 0.496048 26.9412C1.73065 26.9969 6.19507 29.4563 8.74144 31.6486C11.1886 33.7518 13.3271 36.1333 15.0026 38.9043C15.1129 38.9488 15.157 39.049 15.2231 39.1269Z" fill="#79C800"/>
<path d="M20.2938 29.3227C19.8529 28.7885 19.7647 28.0874 19.5111 27.4754C18.6293 25.3053 17.6041 23.2132 16.4026 21.1989C16.3695 21.1433 16.3585 21.0654 16.3365 20.9875C16.9207 19.2626 17.2073 17.4709 17.3285 15.657C17.6813 10.6603 16.8986 5.80826 15.4656 1.03415C15.4325 0.911734 15.4105 0.789321 15.3444 0.544495C19.897 5.27409 22.6748 10.7604 23.6228 17.1704C22.9835 18.7062 22.267 20.1974 21.7709 21.7887C21.0213 24.2593 20.4702 26.752 20.2938 29.3227Z" fill="#79C800"/>
<path d="M11.8941 49.2427C13.3932 50.834 14.3302 52.737 14.9475 54.818C15.1459 55.4857 15.1459 55.4857 14.4735 55.4969C12.82 55.4969 11.1666 55.4969 9.51306 55.4969C9.32567 52.4031 8.38869 49.6099 6.3053 47.2618C5.93051 46.85 5.51163 46.5051 5.09274 46.1378C5.12581 45.8707 5.30218 46.0154 5.42344 46.0265C7.65014 46.3047 9.61227 47.1728 11.2878 48.6751C11.4972 48.8532 11.6957 49.0423 11.8941 49.2427Z" fill="#79C800"/>
<path d="M15.2231 39.1269C15.1129 39.0935 15.0357 39.0156 15.0026 38.9043C15.19 38.793 15.0578 38.5927 15.1239 38.4481C15.2782 38.6595 15.2011 38.9043 15.2231 39.1269Z" fill="#79C800"/>
<path d="M20.0733 55.5636C20.0733 55.2743 20.0733 54.9961 20.0733 54.7067C20.3158 54.3061 20.2056 53.8387 20.2607 53.4158C20.5363 51.1679 21.1205 49.009 21.9693 46.9279C22.289 46.1267 22.6858 45.3588 23.0496 44.5798C23.7441 43.467 24.4496 42.3764 25.2543 41.3414C25.3204 41.2635 25.3755 41.1745 25.4747 41.1189C28.5502 37.5578 32.2981 35.0205 36.8066 33.6183C36.3988 33.9855 35.9799 34.3305 35.5941 34.7089C32.9926 37.235 31.3501 40.3399 30.1155 43.7118C29.6084 45.0806 29.2336 46.4939 28.8809 47.9072C28.8919 48.1187 28.8037 48.2856 28.6494 48.4414C26.7975 50.2331 25.6401 52.4031 25.1881 54.9627C25.155 55.1852 25.122 55.4078 24.9346 55.5636C23.3142 55.5636 21.6938 55.5636 20.0733 55.5636Z" fill="#79C800"/>
<path d="M24.9236 55.5636C25.2432 53.4826 25.9267 51.5574 27.2054 49.877C27.6022 49.354 28.0101 48.8198 28.5061 48.3858C28.6604 48.2522 28.7707 48.0964 28.8699 47.9295C29.0573 48.0519 29.1234 47.8516 29.2226 47.7848C31.4052 46.1044 33.9075 45.3143 36.5972 45.025C36.7184 45.0139 36.8728 44.8692 36.9058 45.1251C35.3075 45.9153 34.0949 47.1394 33.1469 48.6195C31.78 50.7339 30.9974 53.0709 30.7659 55.5748C28.8148 55.5636 26.8747 55.5636 24.9236 55.5636Z" fill="#79C800"/>
</g>
<g clip-path="url(#clip1_1_470)">
<path d="M147.017 39.1574C147.017 39.1058 147.017 39.0371 147.017 38.9856C147.287 38.0067 147.304 36.9763 148.112 36.1348C149.644 34.5377 151.884 34.1942 153.703 34.9842C156.617 36.2722 158.183 34.9499 159.716 33.576C160.12 33.2153 160.103 32.7173 160.086 32.2193C159.985 29.6433 160.406 27.1531 161.299 24.7317C161.972 22.9285 160.895 21.2798 159.008 21.194C157.779 21.1424 156.718 20.7646 155.859 19.8029C154.444 18.2229 154.63 15.7843 156.314 14.4104C157.914 13.1053 160.423 13.4487 161.551 15.0974C161.787 15.458 161.972 15.8358 162.141 16.2308C162.478 17.0208 163.033 17.6219 163.775 18.0169C164.633 18.4806 165.459 18.5321 166.267 17.828C167.244 16.9693 168.355 16.2652 169.501 15.6813C170.141 15.355 170.477 14.8741 170.578 14.1528C170.882 12.0749 170.494 10.3403 168.692 9.01799C166.537 7.47239 166.385 4.27813 168.086 2.20015C169.096 0.980833 170.376 0.706059 171.774 0.517151C171.943 0.517151 172.111 0.517151 172.279 0.517151C172.616 0.688885 173.004 0.654538 173.34 0.654538C175.244 0.740405 176.355 1.9082 177.046 3.5225C177.736 5.15398 177.585 6.80262 176.456 8.21084C175.227 9.73928 174.873 10.9758 176.591 13.2942C176.945 13.775 177.416 13.9639 177.972 13.9639C180.481 13.9639 182.772 14.7539 184.978 15.8702C185.567 16.1793 186.106 16.1621 186.662 15.8358C187.504 15.355 188.279 14.8054 189.003 14.1528C189.609 13.6205 189.828 12.9164 189.929 12.1092C190.249 9.4645 192.776 7.90172 195.049 8.9493C196.43 9.58472 197.255 10.6838 197.289 12.2809C197.34 13.9296 196.599 15.2176 195.15 15.75C193.146 16.4713 192.152 18.034 191.26 19.7686C190.889 20.4727 190.889 21.1081 191.344 21.7778C192.152 22.9628 192.658 24.3023 193.18 25.6247C193.618 26.741 194.275 27.1703 195.437 27.1531C196.767 27.1188 197.828 26.6036 198.653 25.4358C199.967 23.5639 202.291 22.7911 204.312 23.4093C206.653 24.1306 207.882 25.7964 207.916 28.3381C207.916 28.6987 207.916 29.0594 207.916 29.4028C207.967 31.6526 206.939 33.1982 204.935 34.0053C202.813 34.864 200.86 34.5377 199.209 32.8547C197.407 31 196.194 31.601 194.493 32.391C194.14 32.5628 193.988 32.9062 193.938 33.3012C193.752 34.6923 193.399 36.049 192.944 37.3713C192.624 38.333 192.809 38.8482 193.635 39.4321C194.477 40.0332 195.42 40.2049 196.413 40.2393C198.434 40.2908 200.001 41.9738 200.001 44.0174C200.001 45.6661 198.956 47.0915 197.373 47.6067C195.908 48.0875 194.173 47.5036 193.315 46.1126C192.658 45.0478 192.051 43.9659 191.007 43.2103C190.199 42.6092 189.946 42.592 189.222 43.3133C188.111 44.4124 186.932 45.4257 185.567 46.1813C184.793 46.6106 184.456 47.246 184.372 48.1047C184.17 50.2514 184.725 52.1233 186.342 53.6002C187.521 54.665 188.127 55.953 188.077 57.6016C188.026 59.1644 186.746 61.3798 184.607 61.3454C184.49 61.3454 184.389 61.3454 184.287 61.4313C183.782 61.4313 183.277 61.4313 182.772 61.4313C179.639 60.71 178.427 58.3916 179.589 55.266C180.397 53.085 179.926 51.0585 178.932 49.0664C178.713 48.6371 178.326 48.4653 177.888 48.4825C176.456 48.4997 175.025 48.431 173.627 48.139C173.054 48.0188 172.599 48.3108 172.195 48.7058C170.511 50.3373 169.787 52.3981 169.568 54.6821C169.517 55.2488 169.45 55.8156 169.332 56.3823C168.979 58.0825 167.143 59.4392 165.526 59.2331C163.657 59.0098 162.242 57.447 162.175 55.6438C162.124 54.1669 162.73 53.085 163.876 52.2263C165.93 50.6979 166.84 48.5684 166.89 46.0267C166.907 45.3913 166.671 44.8761 166.183 44.4468C164.869 43.3133 163.758 41.991 162.831 40.5141C162.377 39.7928 161.821 39.4836 160.996 39.6897C160.726 39.7584 160.44 39.7584 160.154 39.7412C158.267 39.621 156.937 40.4454 156.044 42.1284C155.303 43.5194 154.091 44.2922 152.575 44.6013C149.729 45.168 147.253 43.1588 147.186 40.2049C147.068 39.8615 147.202 39.5008 147.017 39.1574Z" fill="#F6BD57"/>
<path d="M169.686 23.0143C171.471 23.0315 172.801 24.4054 172.784 26.2429C172.784 28.0289 171.319 29.5402 169.584 29.5402C167.883 29.5402 166.401 28.0289 166.385 26.3116C166.385 24.5084 167.883 22.9971 169.686 23.0143Z" fill="#F4A34E"/>
<path d="M185.601 26.9814C186.881 26.9814 188.06 28.2007 188.076 29.5231C188.093 30.8798 186.864 32.1162 185.55 32.0991C184.253 32.0647 183.091 30.8798 183.075 29.5574C183.058 28.2179 184.27 26.9814 185.601 26.9814Z" fill="#F4A34E"/>
<path d="M175.479 34.2457C175.479 35.3964 174.57 36.3237 173.458 36.3237C172.346 36.3237 171.336 35.3105 171.336 34.1942C171.336 33.0608 172.313 32.1162 173.492 32.1334C174.553 32.1334 175.462 33.0951 175.479 34.2457Z" fill="#F4A34E"/>
<path d="M180.649 22.5335C180.633 23.478 179.774 24.3023 178.83 24.3023C177.887 24.3023 177.062 23.4437 177.079 22.4819C177.096 21.5202 177.921 20.6616 178.847 20.6616C179.841 20.6616 180.683 21.5374 180.649 22.5335Z" fill="#F4A34E"/>
<path d="M180.043 42.7638C179.016 42.7638 178.342 42.0597 178.342 40.9778C178.342 39.913 179.1 39.1574 180.144 39.1745C181.054 39.1917 181.828 40.016 181.845 40.9434C181.879 41.9223 181.037 42.7638 180.043 42.7638Z" fill="#F4A34E"/>
<path d="M188.312 5.06813C188.312 6.42483 187.234 7.5411 185.921 7.50676C184.641 7.47241 183.58 6.39049 183.58 5.08531C183.58 3.74578 184.691 2.62951 185.988 2.64668C187.285 2.66385 188.312 3.74578 188.312 5.06813Z" fill="#F6BD57"/>
<path d="M156.499 8.74322C154.528 8.72604 152.911 7.0774 152.911 5.0681C152.911 3.05881 154.545 1.39299 156.499 1.41017C158.452 1.41017 160.086 3.07599 160.103 5.08528C160.12 7.06022 158.452 8.76039 156.499 8.74322Z" fill="#F6BD57"/>
<path d="M153.215 51.7626C153.215 50.4059 154.292 49.2897 155.606 49.324C156.886 49.3412 157.947 50.4403 157.964 51.7455C157.981 53.1022 156.886 54.1841 155.555 54.1669C154.225 54.1497 153.215 53.1022 153.215 51.7626Z" fill="#F6BD57"/>
<path d="M197.693 59.0957C195.773 59.0957 194.291 57.5673 194.291 55.6095C194.308 53.6517 195.807 52.1405 197.727 52.1748C199.613 52.192 201.078 53.7033 201.078 55.6267C201.112 57.5673 199.613 59.0957 197.693 59.0957Z" fill="#F6BD57"/>
</g>
<g clip-path="url(#clip2_1_470)">
<path d="M93.4033 59.3525C94.5043 57.5757 95.8996 56.0932 97.6764 54.9923C98.0797 54.7416 98.0252 54.5344 97.7963 54.1965C95.9541 51.5913 95.8124 48.8334 97.1749 45.9883C97.2621 45.8139 97.4475 45.6286 97.2621 45.4433C96.8261 45.0073 96.9024 44.4513 96.9024 43.9281C96.9024 41.9006 96.9133 39.8622 96.9024 37.8455C96.8915 36.4612 96.1394 35.4256 94.9185 35.0332C93.5014 34.5754 91.9317 34.9896 91.1469 36.036C90.4819 36.919 90.362 37.8674 90.7872 38.8593C91.2341 39.8731 92.0298 40.4726 93.1526 40.5707C93.5123 40.6034 93.872 40.5707 94.2318 40.6034C94.9948 40.647 95.518 41.192 95.4962 41.8679C95.4744 42.5437 94.9839 43.0125 94.2427 43.0561C91.9862 43.1978 90.0568 42.5764 88.8141 40.5707C87.5933 38.6522 87.6805 36.6901 88.8795 34.7716C88.9013 34.728 88.8904 34.6735 88.9013 34.619C89.3047 34.2156 89.6971 33.8232 90.1004 33.4199C91.354 32.6459 92.7166 32.3516 94.1991 32.4388C97.0659 32.6023 99.2243 34.6953 99.3442 37.5621C99.4096 39.1754 99.3769 40.7996 99.366 42.4238C99.366 42.7072 99.2897 42.9798 99.2134 43.4703C102.494 41.3665 105.558 41.3338 108.621 43.3286C108.828 43.0997 108.719 42.838 108.73 42.5873C108.751 40.8214 108.664 39.0337 108.795 37.2678C109.024 33.9867 112.087 31.9047 115.597 32.5369C118.649 33.082 120.6 36.1233 119.816 39.11C119.129 41.7807 116.404 43.5248 113.668 43.0561C112.992 42.9471 112.61 42.5219 112.61 41.8461C112.61 41.1702 113.014 40.7451 113.679 40.647C114.06 40.5925 114.452 40.6361 114.834 40.6034C116.371 40.4835 117.516 39.2517 117.516 37.7474C117.516 36.265 116.349 35.0332 114.812 34.9133C112.458 34.7389 111.204 35.9052 111.193 38.2925C111.193 40.1674 111.193 42.0423 111.193 43.9172C111.182 44.4513 111.269 44.9964 110.823 45.4433C110.626 45.6395 110.823 45.8139 110.91 45.9883C112.283 48.8443 112.152 51.5913 110.31 54.1965C110.081 54.5126 109.994 54.7307 110.419 54.9814C112.185 56.0932 113.58 57.5757 114.692 59.3416C114.561 59.625 114.278 59.625 114.038 59.6468C112.131 59.9194 110.463 60.6933 109.166 62.1431C109.035 62.2957 108.871 62.4374 108.697 62.5246C106.539 62.8516 104.358 62.917 102.189 62.7971C101.274 62.7535 100.336 62.7753 99.4423 62.5355C99.1698 62.3938 98.9517 62.154 98.7446 61.9469C97.5347 60.6497 96.0195 59.9848 94.3081 59.6904C93.981 59.6468 93.6213 59.7013 93.4033 59.3525Z" fill="#9A7863"/>
<path d="M111.596 77.1969C112.229 77.6111 112.85 78.0145 113.493 78.4178C113.428 80.2491 112.458 81.6553 111.346 82.9852C109.362 85.3615 106.996 87.3127 104.522 89.1549C104.26 89.3511 103.988 89.471 103.693 89.2421C100.663 86.953 97.6981 84.5984 95.5834 81.3719C94.9948 80.478 94.635 79.5078 94.6132 78.4178C95.2346 78.0145 95.845 77.622 96.4772 77.2296C96.8043 77.2078 97.0659 77.3604 97.3384 77.5021C101.884 80.0202 106.419 79.9766 110.932 77.404C111.128 77.295 111.302 77.0552 111.596 77.1969Z" fill="#785353"/>
<path d="M108.512 62.4702C107.694 63.8546 107.051 65.3043 106.887 66.9503C106.778 68.0186 106.996 69.0215 107.105 70.0679C106.288 70.9945 105.176 71.2343 104.053 71.2234C102.93 71.2343 101.808 70.9836 101.001 70.0679C101.611 67.3428 101.066 64.8138 99.5839 62.4811C102.56 62.7318 105.536 62.7427 108.512 62.4702Z" fill="#785353"/>
<path d="M100.99 70.057C101.72 70.4167 102.407 70.8418 103.236 70.9727C104.653 71.2125 105.895 70.7546 107.095 70.057C107.64 71.8011 108.315 73.458 109.449 74.9187C110.092 75.758 110.921 76.4121 111.596 77.1969C106.56 80.3799 101.513 80.3472 96.4555 77.2296C97.7527 75.9106 99.0825 74.6026 99.9001 72.8912C100.358 71.9755 100.63 71.0054 100.99 70.057Z" fill="#9A7863"/>
<path d="M83.7518 78.1235C83.4248 77.7965 83.0978 77.4695 82.7708 77.1424C80.9286 74.9078 80.5143 72.3352 81.0921 69.5556C82.084 64.683 86.1282 60.5516 91.1098 59.6251C91.9382 59.4725 92.8337 59.1683 93.6622 59.0811C93.6622 59.0811 101.543 56.8117 103.189 58.6757C103.854 59.1444 102.48 64.7568 102.48 64.7568C102.48 64.7568 101.858 68.2366 101.345 70.2096C100.626 73.1092 99.0563 75.4637 96.789 77.3604C96.0946 77.8311 94.816 78.4396 94.816 78.4396C92.8866 79.4752 90.8481 80.0529 88.6244 79.9439C86.7931 79.8349 85.1689 79.279 83.7518 78.1235Z" fill="#C8D4E4"/>
<path d="M124.761 78.1235C125.088 77.7965 125.415 77.4695 125.742 77.1424C127.584 74.9078 127.998 72.3352 127.421 69.5556C126.429 64.683 122.385 60.5516 117.403 59.6251C116.574 59.4725 115.679 59.1683 114.851 59.0811C114.851 59.0811 106.97 56.8117 105.324 58.6757C104.659 59.1444 106.033 64.7568 106.033 64.7568C106.033 64.7568 106.655 68.2366 107.167 70.2096C107.887 73.1092 109.456 75.4637 111.724 77.3604C112.418 77.8311 113.697 78.4396 113.697 78.4396C115.626 79.4752 117.665 80.0529 119.888 79.9439C121.72 79.8349 123.344 79.279 124.761 78.1235Z" fill="#C8D4E4"/>
</g>
<defs>
<clipPath id="clip0_1_470">
<rect width="46" height="57" fill="white" transform="translate(0 0.5)"/>
</clipPath>
<clipPath id="clip1_1_470">
<rect width="61" height="61" fill="white" transform="translate(147 0.5)"/>
</clipPath>
<clipPath id="clip2_1_470">
<rect width="60" height="60" fill="white" transform="translate(74 30.5)"/>
</clipPath>
</defs>
</svg>
