<svg width="90" height="90" viewBox="0 0 94 112" fill="none" xmlns="http://www.w3.org/2000/svg">
    <path
        d="M90.0122 34.5044C90.5818 34.4496 91.0502 34.918 90.9957 35.4879C90.643 39.1627 88.916 51.4903 81.2287 59.1778C76.194 64.2124 68.7756 64.9569 64.6594 60.8405C60.5431 56.7243 61.2876 49.3059 66.3221 44.2712C74.0098 36.5838 86.3373 34.8566 90.0122 34.5044Z"
        fill="#91CF96" />
    <path
        d="M3.00436 43.4878C2.9496 42.9182 3.41798 42.4498 3.98787 42.5043C7.66267 42.857 19.9903 44.584 27.6778 52.2713C32.7124 57.306 33.4569 64.7244 29.3405 68.8406C25.2243 72.9569 17.8059 72.2124 12.7712 67.1779C5.08378 59.4902 3.35663 47.1627 3.00436 43.4878Z"
        fill="#91CF96" />
    <path
        d="M5.00435 9.52185C4.94967 8.93246 5.41805 8.44794 5.98779 8.5045C9.66272 8.8691 21.9903 10.6557 29.6778 18.6083C34.7124 23.8165 35.4569 31.4906 31.3406 35.7489C27.2243 40.0072 19.8061 39.2369 14.7714 34.0288C7.08386 26.0764 5.3568 13.3237 5.00435 9.52185Z"
        fill="#91CF96" />
    <path
        d="M80.6204 0.178859C81.2083 0.108409 81.7042 0.581364 81.6615 1.17192C81.3867 4.98112 79.9015 17.7724 72.1387 25.9105C67.0549 31.24 59.4011 32.1911 55.0435 28.0345C50.686 23.8779 51.2749 16.1879 56.3587 10.8581C64.1212 2.71984 76.8282 0.632825 80.6204 0.178859Z"
        fill="#91CF96" />
    <path
        d="M79.5 47.5C78.8165 46.823 77.7089 46.823 77.0253 47.5L48.75 73.5156V43.8744C48.75 41.5586 49.661 39.382 51.3135 37.746L66.4747 17.9512C67.1582 17.2742 67.1582 16.1772 66.4747 15.5001C65.7911 14.8231 64.6835 14.8231 64 15.5001L48.8388 35.2943C46.525 37.5852 45.2501 40.6322 45.2501 43.8746V45.7922C45.2189 45.7608 45.1926 45.7265 45.1613 45.6952L23.9745 25.0488C23.291 24.3718 22.1834 24.3718 21.4998 25.0488C20.8163 25.7258 20.8163 26.8229 21.4998 27.4999L42.6866 48.1471C44.3393 49.7824 45.2501 51.9592 45.2501 54.2748V82.1828L19.9746 57.5489C19.2911 56.8719 18.1835 56.8719 17.5 57.5489C16.8164 58.2259 16.8164 59.323 17.5 60L45.2499 87.0844V98.4999H48.7498V78.4176L79.4998 49.9511C80.1835 49.2739 80.1835 48.1772 79.5 47.5Z"
        fill="#5ABA63" />
    <path
        d="M79.937 109.948C73.6924 102.567 61.2893 97.5344 46.9999 97.5344C32.7104 97.5344 20.3075 102.567 14.0625 109.948"
        fill="#9A7863" />
    <path
        d="M56.1347 98.2544C53.2097 97.7928 50.155 97.5344 46.9999 97.5344C32.7106 97.5344 20.3075 102.567 14.0625 109.948H32.3321C37.1983 104.197 45.8116 99.8841 56.1347 98.2544Z"
        fill="#8C695C" />
    <path
        d="M85.7934 111.5H8.20707C7.34943 111.5 6.65527 110.805 6.65527 109.948C6.65527 109.091 7.34926 108.396 8.20707 108.396H85.7934C86.651 108.396 87.3452 109.091 87.3452 109.948C87.3452 110.805 86.651 111.5 85.7934 111.5Z"
        fill="#785353" />
</svg>