<svg width="90" height="90" viewBox="0 0 90 91" fill="none" xmlns="http://www.w3.org/2000/svg">
    <g clip-path="url(#clip0_1_454)">
        <path
            d="M29.0016 48.8747C28.9809 48.6586 29.1586 48.4809 29.3747 48.5016C30.7686 48.6353 35.4446 49.2904 38.3606 52.2064C40.2702 54.116 40.5526 56.9299 38.9913 58.4913C37.4299 60.0526 34.6161 59.7702 32.7064 57.8606C29.7904 54.9447 29.1353 50.2687 29.0016 48.8747Z"
            fill="#79C800" />
        <path
            d="M60.5913 39.5018C60.827 39.4792 61.0208 39.673 60.9982 39.9087C60.8524 41.4294 60.1377 46.5305 56.9567 49.7115C54.8734 51.7948 51.8037 52.1029 50.1004 50.3996C48.3971 48.6963 48.7052 45.6267 50.7885 43.5433C53.9694 40.3622 59.0705 39.6475 60.5913 39.5018Z"
            fill="#79C800" />
        <path
            d="M46.5512 78.0859L46.5514 59.6893C46.5514 57.6161 47.3591 55.6676 48.8244 54.203L55.5 47.5271C56.1061 46.9211 56.1061 45.939 55.5 45.3329C54.8939 44.7268 53.9118 44.7268 53.3057 45.3329L46.6301 52.0082C44.5784 54.059 43.4479 56.7868 43.4479 59.6895V61.4061C43.4203 61.378 43.397 61.3473 43.3692 61.3193L37.1947 55.1438C36.5886 54.5377 35.6065 54.5377 35.0004 55.1438C34.3943 55.7499 34.3943 56.732 35.0004 57.3381L41.1749 63.5143C42.6404 64.9782 43.4479 66.9269 43.4479 68.9999L43.4478 78.0859H46.5512Z"
            fill="#5ABA63" />
        <path
            d="M77.9372 88.9482C71.6925 81.567 59.2894 76.5345 45 76.5345C30.7106 76.5345 18.3076 81.567 12.0626 88.9484"
            fill="#9A7863" />
        <path
            d="M54.1348 77.2545C51.2098 76.7929 48.1551 76.5345 45 76.5345C30.7107 76.5345 18.3076 81.567 12.0626 88.9484H30.3323C35.1984 83.1967 43.8117 78.8842 54.1348 77.2545Z"
            fill="#8C695C" />
        <path
            d="M83.7932 90.5H6.20683C5.34919 90.5 4.65503 89.8052 4.65503 88.9482C4.65503 88.0913 5.34901 87.3964 6.20683 87.3964H83.7932C84.6508 87.3964 85.345 88.0913 85.345 88.9482C85.345 89.8052 84.6508 90.5 83.7932 90.5Z"
            fill="#785353" />
    </g>
    <defs>
        <clipPath id="clip0_1_454">
            <rect width="90" height="90" fill="white" transform="translate(0 0.5)" />
        </clipPath>
    </defs>
</svg>